<svg width="1061" height="650" viewBox="0 0 1061 650" fill="none" xmlns="http://www.w3.org/2000/svg">
<mask id="mask0_18_282" style="mask-type:alpha" maskUnits="userSpaceOnUse" x="281" y="241" width="556" height="322">
<rect width="326.592" height="326.592" rx="10" transform="matrix(-0.866044 -0.499967 0.866044 -0.499967 558.843 565.57)" fill="white"/>
</mask>
<g mask="url(#mask0_18_282)">
<path d="M458.772 268.322C221.532 321.922 243.564 512.048 284.235 600.411C301.351 665.479 303.331 680.12 381.052 716.241C458.772 752.362 704.818 608.362 781.59 570.525C858.361 532.688 1028.31 331.097 857.313 270.98C686.319 210.862 755.322 201.323 458.772 268.322Z" fill="url(#paint0_linear_18_282)"/>
<path d="M756.432 491.514C603.962 343.809 503.66 463.249 472.569 541.432C443.127 589.443 445.799 653.253 454.004 676.329C540.322 677.918 719.129 724.032 743.821 895.779C774.685 1110.46 1197.07 923.296 958.183 789.877C719.294 656.459 947.02 676.146 756.432 491.514Z" fill="url(#paint1_linear_18_282)"/>
<path d="M728.5 314.676C936.417 252.737 593.145 117.572 500.977 85.9374C408.808 54.3031 -53.5506 342.102 116.233 489.119C162.038 528.783 359.632 788.15 380.138 541.611C400.644 295.072 520.583 376.615 728.5 314.676Z" fill="url(#paint2_linear_18_282)"/>
<path d="M439.729 397.863L427.814 404.747L419.114 399.72L453.859 379.644L462.559 384.671L450.701 391.523L480.791 408.91L469.819 415.249L439.729 397.863ZM508.946 375.351C509.02 375.394 509.832 375.928 511.384 376.952L489.551 389.568C491.546 390.208 493.596 390.411 495.702 390.176C497.807 389.899 499.821 389.205 501.742 388.095C503.183 387.262 504.217 386.43 504.845 385.597C505.51 384.743 505.916 383.74 506.064 382.588L517.369 382.716C517.701 386.28 515.06 389.685 509.444 392.93C505.935 394.958 502.185 396.356 498.195 397.124C494.205 397.893 490.29 398.021 486.447 397.508C482.642 396.975 479.244 395.843 476.251 394.114C473.296 392.407 471.356 390.475 470.433 388.319C469.509 386.12 469.638 383.911 470.821 381.691C472.003 379.471 474.164 377.454 477.304 375.639C480.296 373.91 483.64 372.704 487.334 372.021C490.991 371.317 494.704 371.242 498.472 371.797C502.241 372.309 505.732 373.494 508.946 375.351ZM484.84 379.93C483.215 380.869 482.31 381.926 482.125 383.1C481.977 384.253 482.55 385.373 483.843 386.462L496.145 379.354C494.261 378.606 492.303 378.286 490.271 378.393C488.276 378.478 486.466 378.991 484.84 379.93ZM544.611 372.61C541.286 374.531 537.647 375.866 533.694 376.613C529.741 377.36 525.844 377.477 522.002 376.965C518.196 376.431 514.798 375.3 511.805 373.571C508.813 371.842 506.873 369.889 505.987 367.711C505.1 365.491 505.322 363.25 506.652 360.987C507.945 358.703 510.254 356.601 513.579 354.68C516.977 352.716 520.653 351.446 524.606 350.869C528.522 350.272 532.29 350.421 535.911 351.318L531.921 358.426C527.857 357.657 524.514 358.031 521.891 359.547C520.007 360.635 519.065 361.905 519.065 363.357C519.102 364.787 520.228 366.142 522.445 367.423C524.698 368.725 527.081 369.398 529.593 369.44C532.105 369.44 534.304 368.896 536.188 367.807C538.811 366.292 539.457 364.36 538.127 362.012L550.429 359.707C551.981 361.799 552.258 363.987 551.26 366.271C550.226 368.533 548.009 370.646 544.611 372.61ZM551.071 333.016C554.803 330.86 558.903 329.771 563.373 329.75C567.88 329.707 572.369 330.977 576.839 333.56L594.018 343.486L583.489 349.57L568.028 340.637C563.927 338.267 560.233 338.032 556.945 339.932C555.135 340.978 554.267 342.163 554.341 343.486C554.452 344.788 555.689 346.122 558.054 347.489L572.572 355.878L562.043 361.961L520.926 338.203L531.454 332.119L545.308 340.124C545.382 338.843 545.918 337.595 546.915 336.378C547.913 335.161 549.298 334.041 551.071 333.016ZM543.506 451.615C540.366 453.43 536.93 454.966 533.199 456.226C529.468 457.485 526.032 458.275 522.892 458.595L518.403 451.839C521.285 451.498 524.222 450.868 527.214 449.95C530.207 449.032 532.811 447.933 535.028 446.652C539.239 444.219 540.292 442.394 538.187 441.177C537.078 440.537 535.656 440.419 533.92 440.825C532.183 441.188 529.69 441.967 526.439 443.162C522.892 444.486 519.789 445.51 517.129 446.236C514.432 446.94 511.587 447.239 508.595 447.132C505.603 447.026 502.758 446.193 500.061 444.635C497.697 443.269 496.219 441.668 495.628 439.832C495 437.975 495.406 435.99 496.847 433.877C498.325 431.742 500.929 429.597 504.661 427.441C507.21 425.968 510.017 424.687 513.084 423.598C516.113 422.488 519.124 421.709 522.116 421.261L526.882 427.921C521.193 428.903 516.612 430.397 513.139 432.404C510.959 433.663 509.703 434.773 509.371 435.734C509.001 436.673 509.334 437.441 510.368 438.039C511.403 438.637 512.77 438.743 514.469 438.359C516.168 437.975 518.607 437.185 521.784 435.99C525.367 434.645 528.489 433.631 531.149 432.948C533.809 432.222 536.635 431.913 539.627 432.019C542.62 432.083 545.464 432.895 548.161 434.453C550.489 435.798 551.948 437.388 552.539 439.224C553.13 441.059 552.705 443.055 551.264 445.211C549.787 447.346 547.201 449.48 543.506 451.615ZM583.985 425.921C583.652 426.754 582.987 427.629 581.99 428.547C581.029 429.443 579.828 430.308 578.388 431.14C574.472 433.403 570.5 434.588 566.473 434.694C562.447 434.801 558.531 433.755 554.726 431.556L544.64 425.729L540.262 428.258L532.394 423.712L536.771 421.182L528.958 416.668L539.487 410.584L547.3 415.099L554.171 411.128L562.04 415.675L555.169 419.645L565.144 425.409C566.215 426.028 567.342 426.359 568.524 426.401C569.706 426.401 570.777 426.124 571.738 425.569C572.957 424.864 573.714 424.064 574.01 423.167L583.985 425.921ZM571.531 399.241C576.518 396.359 581.469 394.822 586.382 394.63C591.259 394.416 596.043 395.665 600.734 398.376L617.414 408.014L607.606 413.681L603.727 411.44C605.131 414.001 603.634 416.552 599.238 419.092C596.911 420.437 594.491 421.366 591.979 421.878C589.467 422.39 587.084 422.508 584.83 422.23C582.577 421.91 580.564 421.238 578.79 420.213C575.946 418.57 574.837 416.67 575.465 414.514C576.056 412.336 578.624 409.935 583.168 407.309L589.153 403.851C585.791 402.122 582.078 402.432 578.014 404.78C576.574 405.612 575.355 406.594 574.357 407.726C573.323 408.836 572.695 409.924 572.473 410.992L561.778 408.91C562.332 407.309 563.496 405.655 565.269 403.947C567.042 402.197 569.13 400.628 571.531 399.241ZM595.525 413.553C596.745 412.849 597.52 412.059 597.853 411.184C598.185 410.309 597.982 409.423 597.243 408.526L594.639 407.021L590.095 409.647C587.029 411.419 586.511 412.891 588.543 414.065C589.467 414.599 590.557 414.823 591.813 414.738C593.069 414.653 594.306 414.258 595.525 413.553ZM640.342 395.343C637.017 397.264 633.378 398.598 629.425 399.345C625.472 400.092 621.575 400.21 617.732 399.697C613.927 399.164 610.529 398.032 607.536 396.303C604.544 394.574 602.604 392.621 601.718 390.444C600.831 388.224 601.053 385.982 602.383 383.72C603.676 381.436 605.985 379.333 609.309 377.412C612.708 375.448 616.384 374.178 620.337 373.602C624.253 373.004 628.021 373.153 631.642 374.05L627.652 381.158C623.588 380.39 620.245 380.763 617.622 382.279C615.738 383.367 614.795 384.638 614.795 386.089C614.832 387.519 615.959 388.875 618.176 390.156C620.429 391.458 622.812 392.13 625.324 392.173C627.836 392.173 630.035 391.628 631.919 390.54C634.542 389.024 635.188 387.092 633.858 384.744L646.16 382.439C647.712 384.531 647.989 386.719 646.991 389.003C645.957 391.266 643.74 393.379 640.342 395.343ZM660.877 370.733L660.933 374.351L668.303 378.61L657.774 384.694L616.657 360.935L627.185 354.852L648.742 367.307L649.019 355.044L661.487 347.84L661.875 362.472L692.575 364.586L679.829 371.95L660.877 370.733Z" fill="#FBFBFB"/>
</g>
<mask id="mask1_18_282" style="mask-type:alpha" maskUnits="userSpaceOnUse" x="243" y="473" width="186" height="109">
<rect width="113.007" height="113.007" rx="10" transform="matrix(0.866044 0.499967 -0.866044 0.499967 335.869 471)" fill="#F8F8F8"/>
</mask>
<g mask="url(#mask1_18_282)">
<rect x="264" y="516" width="144" height="85" fill="url(#paint3_linear_18_282)"/>
<g style="mix-blend-mode:lighten">
<rect y="0.499967" width="87.7136" height="87.7136" rx="9.5" transform="matrix(0.866044 0.499967 -0.866044 0.499967 336.45 471.25)" fill="#FFFEFE"/>
<rect y="0.499967" width="87.7136" height="87.7136" rx="9.5" transform="matrix(0.866044 0.499967 -0.866044 0.499967 336.45 471.25)" stroke="white"/>
</g>
</g>
<mask id="mask2_18_282" style="mask-type:alpha" maskUnits="userSpaceOnUse" x="351" y="539" width="186" height="109">
<rect width="113.007" height="113.007" rx="10" transform="matrix(0.866044 0.499967 -0.866044 0.499967 443.869 537)" fill="#F8F8F8"/>
</mask>
<g mask="url(#mask2_18_282)">
<rect x="372" y="582" width="144" height="85" fill="url(#paint4_linear_18_282)"/>
<g style="mix-blend-mode:lighten">
<rect y="0.499967" width="87.7136" height="87.7136" rx="9.5" transform="matrix(0.866044 0.499967 -0.866044 0.499967 444.45 537.25)" fill="#FFFEFE"/>
<rect y="0.499967" width="87.7136" height="87.7136" rx="9.5" transform="matrix(0.866044 0.499967 -0.866044 0.499967 444.45 537.25)" stroke="white"/>
</g>
</g>
<mask id="mask3_18_282" style="mask-type:alpha" maskUnits="userSpaceOnUse" x="574" y="151" width="192" height="112">
<rect width="116.622" height="116.622" rx="10" transform="matrix(0.866044 0.499967 -0.866044 0.499967 670 149)" fill="#F8F8F8"/>
</mask>
<g mask="url(#mask3_18_282)">
<rect x="595.832" y="195.439" width="148.606" height="87.7189" fill="url(#paint5_linear_18_282)"/>
<g style="mix-blend-mode:lighten">
<rect y="0.499967" width="90.5513" height="90.5513" rx="9.5" transform="matrix(0.866044 0.499967 -0.866044 0.499967 670.586 149.25)" fill="#FFFEFE"/>
<rect y="0.499967" width="90.5513" height="90.5513" rx="9.5" transform="matrix(0.866044 0.499967 -0.866044 0.499967 670.586 149.25)" stroke="white"/>
</g>
</g>
<mask id="mask4_18_282" style="mask-type:alpha" maskUnits="userSpaceOnUse" x="133" y="406" width="186" height="109">
<rect width="113.007" height="113.007" rx="10" transform="matrix(0.866044 0.499967 -0.866044 0.499967 225.869 404)" fill="#F8F8F8"/>
</mask>
<g mask="url(#mask4_18_282)">
<rect x="154" y="449" width="144" height="85" fill="url(#paint6_linear_18_282)"/>
<g style="mix-blend-mode:lighten">
<rect y="0.499967" width="87.7136" height="87.7136" rx="9.5" transform="matrix(0.866044 0.499967 -0.866044 0.499967 226.45 404.25)" fill="#FFFEFE"/>
<rect y="0.499967" width="87.7136" height="87.7136" rx="9.5" transform="matrix(0.866044 0.499967 -0.866044 0.499967 226.45 404.25)" stroke="white"/>
</g>
<mask id="mask5_18_282" style="mask-type:alpha" maskUnits="userSpaceOnUse" x="133" y="406" width="186" height="109">
<rect width="113.007" height="113.007" rx="10" transform="matrix(0.866044 0.499967 -0.866044 0.499967 225.869 404)" fill="#F8F8F8"/>
</mask>
<g mask="url(#mask5_18_282)">
<rect x="154" y="449" width="144" height="85" fill="url(#paint7_linear_18_282)"/>
<g style="mix-blend-mode:lighten">
<rect y="0.499967" width="87.7136" height="87.7136" rx="9.5" transform="matrix(0.866044 0.499967 -0.866044 0.499967 226.45 404.25)" fill="#FFFEFE"/>
<rect y="0.499967" width="87.7136" height="87.7136" rx="9.5" transform="matrix(0.866044 0.499967 -0.866044 0.499967 226.45 404.25)" stroke="white"/>
</g>
</g>
</g>
<mask id="mask6_18_282" style="mask-type:alpha" maskUnits="userSpaceOnUse" x="436" y="183" width="101" height="60">
<rect width="64.0042" height="64.0042" rx="10" transform="matrix(0.866044 0.499967 -0.866044 0.499967 486.43 181)" fill="#F8F8F8"/>
</mask>
<g mask="url(#mask6_18_282)">
<rect x="448" y="206" width="76" height="49" fill="url(#paint8_linear_18_282)"/>
<g style="mix-blend-mode:lighten">
<rect y="0.499967" width="49.2449" height="49.2449" rx="9.5" transform="matrix(0.866044 0.499967 -0.866044 0.499967 486.947 181.25)" fill="#FFFEFE"/>
<rect y="0.499967" width="49.2449" height="49.2449" rx="9.5" transform="matrix(0.866044 0.499967 -0.866044 0.499967 486.947 181.25)" stroke="white"/>
</g>
<mask id="mask7_18_282" style="mask-type:alpha" maskUnits="userSpaceOnUse" x="436" y="183" width="101" height="60">
<rect width="64.0042" height="64.0042" rx="10" transform="matrix(0.866044 0.499967 -0.866044 0.499967 486.43 181)" fill="#F8F8F8"/>
</mask>
<g mask="url(#mask7_18_282)">
<rect x="448" y="206" width="77" height="49" fill="url(#paint9_linear_18_282)"/>
<g style="mix-blend-mode:lighten">
<rect y="0.499967" width="49.2449" height="49.2449" rx="9.5" transform="matrix(0.866044 0.499967 -0.866044 0.499967 486.947 181.25)" fill="#FFFEFE"/>
<rect y="0.499967" width="49.2449" height="49.2449" rx="9.5" transform="matrix(0.866044 0.499967 -0.866044 0.499967 486.947 181.25)" stroke="white"/>
</g>
</g>
</g>
<mask id="mask8_18_282" style="mask-type:alpha" maskUnits="userSpaceOnUse" x="687" y="176" width="351" height="204">
<rect width="208.014" height="208.014" rx="10" transform="matrix(0.866044 0.499967 -0.866044 0.499967 862.149 174)" fill="#F8F8F8"/>
</mask>
<g mask="url(#mask8_18_282)">
<rect x="725" y="256" width="274" height="158" fill="url(#paint10_linear_18_282)"/>
<g style="mix-blend-mode:lighten">
<rect y="0.499967" width="162.296" height="162.296" rx="9.5" transform="matrix(0.866044 0.499967 -0.866044 0.499967 862.854 174.25)" fill="#FFFEFE"/>
<rect y="0.499967" width="162.296" height="162.296" rx="9.5" transform="matrix(0.866044 0.499967 -0.866044 0.499967 862.854 174.25)" stroke="white"/>
</g>
</g>
<mask id="mask9_18_282" style="mask-type:alpha" maskUnits="userSpaceOnUse" x="705" y="415" width="351" height="204">
<rect width="208.014" height="208.014" rx="10" transform="matrix(0.866044 0.499967 -0.866044 0.499967 880.149 413)" fill="#F8F8F8"/>
</mask>
<g mask="url(#mask9_18_282)">
<rect x="743" y="495" width="274" height="158" fill="url(#paint11_linear_18_282)"/>
<g style="mix-blend-mode:lighten">
<rect y="0.499967" width="162.296" height="162.296" rx="9.5" transform="matrix(0.866044 0.499967 -0.866044 0.499967 880.854 413.25)" fill="#FFFEFE"/>
<rect y="0.499967" width="162.296" height="162.296" rx="9.5" transform="matrix(0.866044 0.499967 -0.866044 0.499967 880.854 413.25)" stroke="white"/>
</g>
</g>
<path d="M486.819 149.158L488.364 152.065C488.711 152.602 489.087 153.077 489.53 153.519C490.829 154.805 492.04 156.177 493.155 157.626C495.772 161.069 497.538 164.893 498.798 169.029C499.554 171.556 499.965 174.147 499.996 176.768C500.122 184.603 497.442 191.33 492.037 196.921C491.158 197.808 490.208 198.622 489.197 199.354C488.662 199.354 488.409 198.942 488.188 198.563C487.786 197.861 487.519 197.09 487.399 196.289C487.21 195.341 487.085 194.393 487.146 193.415V192.972C487.103 192.878 486.631 149.381 486.819 149.158Z" fill="#599636"/>
<path d="M486.819 149.062C486.756 148.935 486.692 149.032 486.629 149.093C486.66 149.727 486.439 150.293 486.094 150.833C485.714 151.369 485.211 151.781 484.706 152.223C481.903 154.655 479.696 157.593 477.929 160.879C475.577 165.301 474.366 170.04 474.022 175.03C473.864 176.83 474.59 183.18 475.156 185.012C476.701 189.877 479.475 193.953 483.069 197.491C483.952 198.342 484.896 199.133 485.873 199.892C486.157 199.892 486.188 199.638 486.253 199.45C486.377 199.046 486.472 198.635 486.537 198.217L487.17 193.48L486.819 149.062Z" fill="#6CAC48"/>
<path d="M488.364 201.278C488.427 200.553 488.774 199.952 489.152 199.352C488.772 199.194 488.49 198.881 488.269 198.531C488.079 198.2 487.922 197.851 487.799 197.489C487.358 196.162 487.264 194.77 487.137 193.415V192.594C486.98 192.72 486.947 193.793 486.947 193.953C486.855 195.386 486.665 196.81 486.379 198.217C486.285 198.786 486.222 199.354 485.873 199.859C485.873 199.923 485.873 199.986 485.904 200.08C486.472 201.755 486.627 203.46 486.723 205.199V205.833C486.723 206.59 486.692 206.431 487.32 206.685C487.573 206.779 487.855 206.812 488.109 207C488.298 207 488.329 206.842 488.329 206.715L488.235 205.673V202.766C488.204 202.259 488.298 201.755 488.362 201.28L488.364 201.278Z" fill="#C2BFBF"/>
<path d="M814.947 228.169C814.763 228.284 814.184 228.653 813.651 228.98C801.504 236.582 796.201 246.875 799.351 256.794C801.096 262.313 805.257 267.433 811.587 271.853C813.792 273.398 814.509 273.82 818.009 275.648C821.51 277.477 822.318 277.851 825.276 279.003C845.48 286.886 872.869 288.07 895.399 282.042C899.432 280.962 903.319 279.633 907.38 277.934C908.961 277.272 915.117 274.056 916.385 273.231C922 269.569 925.786 265.96 928.368 261.799C928.763 261.161 928.809 261.022 928.607 261.032C928.478 261.041 920.411 260.427 910.691 259.669L893.022 258.293L869.667 255.933C856.822 254.638 846.293 253.592 846.256 253.611C846.21 253.625 852.366 256.879 859.909 260.838C873.12 267.767 873.644 268.05 873.79 268.299C874.002 268.659 874.002 268.851 873.818 269.158C873.671 269.389 873.441 269.537 872.054 270.262L870.464 271.092L869.775 271.174C869.325 271.227 868.893 271.212 868.489 271.145L867.882 271.03L831.078 251.759L831.004 251.423C830.959 251.246 831.023 250.953 831.124 250.775C831.317 250.483 831.446 250.396 833.035 249.566C834.91 248.587 835.296 248.462 836.315 248.486C836.6 248.491 849.381 249.839 864.734 251.484C880.086 253.13 901.062 255.37 911.362 256.469L930.077 258.469L930.206 258.143C931.373 255.268 931.815 251.813 931.393 248.675C930.512 242.004 926.02 235.655 918.431 230.348C916.226 228.803 915.51 228.381 912.009 226.553C908.509 224.724 907.7 224.35 904.742 223.199C884.539 215.315 857.149 214.131 834.62 220.159C830.641 221.219 826.773 222.539 822.785 224.2C821.811 224.613 815.636 227.732 814.947 228.169ZM862.614 232.966C863.275 232.851 864.056 232.884 864.626 233.047C864.938 233.134 870.065 235.792 881.558 241.814L898.049 250.456L890.671 249.645L883.284 248.84L871.277 242.568C863.513 238.513 859.186 236.215 859.03 236.076C858.662 235.73 858.58 235.351 858.782 234.996C858.966 234.698 859.085 234.617 860.528 233.863C861.888 233.153 862.145 233.038 862.614 232.966Z" fill="black"/>
<path d="M930.496 461.763C923.873 457.931 909.303 459.098 892.696 464.203C882.67 455.007 871.055 449.795 862.008 451.21C859.909 451.528 857.993 452.212 856.302 453.191L860.846 455.82C861.783 455.278 862.721 454.948 863.699 454.783C868.06 454.099 875.314 456.905 882.161 461.951C883.852 463.189 885.503 464.569 887.112 466.019C882.14 467.764 877.026 469.851 871.952 472.221C865.431 471.631 859.155 471.301 853.286 471.231C853.755 463.814 856.608 458.249 860.846 455.797L856.302 453.167C850.698 456.41 847.356 462.965 846.867 471.266C832.562 471.573 821.273 473.53 815.669 476.772L820.214 479.402C824.432 476.961 834.05 475.287 846.826 474.992C846.969 478.376 847.519 481.995 848.579 485.745C844.463 488.693 840.856 491.652 837.86 494.541C835.354 493.633 833.031 492.69 830.891 491.735C822.149 487.785 817.279 483.599 818.42 481.076C818.665 480.51 819.297 479.956 820.234 479.413L815.69 476.784C813.978 477.774 812.796 478.883 812.226 480.109C809.801 485.332 818.808 492.029 834.682 497.795C825.919 507.393 823.922 515.788 830.525 519.608C837.147 523.44 851.717 522.272 868.325 517.167C878.35 526.364 889.965 531.575 899.013 530.16C901.112 529.842 903.027 529.158 904.739 528.168C910.343 524.925 913.685 518.37 914.174 510.069C928.478 509.762 939.768 507.805 945.371 504.563C947.083 503.572 948.265 502.464 948.835 501.238C951.26 496.015 942.254 489.317 926.38 483.552C935.122 473.99 937.098 465.583 930.496 461.763V461.763ZM890.373 469.25C892.248 471.207 894.02 473.318 895.671 475.499C893.205 475.039 890.699 474.603 888.111 474.214C885.543 473.813 882.955 473.471 880.408 473.152C883.73 471.726 887.051 470.417 890.373 469.25ZM902.742 487.207C903.903 489.718 904.882 492.171 905.615 494.553C902.844 496.463 899.909 498.326 896.812 500.118C893.735 501.898 890.515 503.596 887.255 505.2C883.139 504.775 878.9 504.233 874.58 503.572C870.362 502.924 866.246 502.169 862.232 501.332C860.765 499.021 859.46 496.616 858.319 494.187C857.158 491.676 856.18 489.223 855.446 486.841C858.217 484.931 861.152 483.068 864.249 481.276C867.326 479.496 870.546 477.798 873.806 476.194C877.922 476.619 882.161 477.161 886.481 477.822C890.699 478.47 894.815 479.225 898.829 480.062C900.276 482.385 901.601 484.778 902.742 487.207ZM906.675 481.866C910.506 482.809 914.174 483.847 917.597 484.931C915.58 486.853 913.318 488.799 910.832 490.732C910.261 489.247 909.65 487.738 908.937 486.24C908.244 484.754 907.469 483.292 906.675 481.866ZM907.755 506.402C903.903 506.367 899.828 506.202 895.569 505.907C897.485 504.893 899.42 503.844 901.315 502.747C903.231 501.639 905.085 500.519 906.838 499.387C907.388 501.827 907.673 504.186 907.755 506.402ZM880.592 508.23C877.27 509.656 873.949 510.965 870.627 512.132C868.752 510.175 866.98 508.065 865.329 505.883C867.795 506.343 870.301 506.779 872.889 507.169C875.477 507.558 878.045 507.911 880.592 508.23ZM853.245 474.98C857.097 475.015 861.172 475.18 865.431 475.475C863.515 476.489 861.58 477.539 859.685 478.635C857.769 479.743 855.915 480.864 854.162 481.995C853.612 479.555 853.327 477.197 853.245 474.98ZM850.168 490.65C850.739 492.135 851.35 493.645 852.063 495.142C852.756 496.628 853.51 498.078 854.305 499.505C850.474 498.561 846.806 497.524 843.383 496.439C845.42 494.529 847.682 492.583 850.168 490.65V490.65ZM857.239 516.082C846.949 518.476 838.248 518.841 835.048 516.99C831.849 515.139 832.46 510.093 836.617 504.15C837.616 502.7 838.859 501.202 840.204 499.693C845.359 501.332 851.045 502.853 857.198 504.221C859.562 507.758 862.191 511.024 865.023 513.984C862.374 514.785 859.766 515.493 857.239 516.082ZM897.322 526.588C892.961 527.272 885.706 524.465 878.86 519.419C877.168 518.181 875.518 516.802 873.908 515.351C878.88 513.606 883.995 511.519 889.069 509.149C895.589 509.739 901.866 510.069 907.734 510.14C907.266 517.556 904.413 523.121 900.174 525.574C899.237 526.093 898.279 526.435 897.322 526.588V526.588ZM930.129 489.636C938.871 493.586 943.741 497.771 942.6 500.295C942.355 500.861 941.724 501.415 940.786 501.957C936.568 504.398 926.95 506.072 914.174 506.367C914.031 502.983 913.481 499.363 912.421 495.614C916.537 492.666 920.144 489.707 923.14 486.818C925.666 487.738 928.01 488.669 930.129 489.636V489.636ZM924.383 477.232C923.384 478.682 922.141 480.18 920.796 481.689C915.641 480.05 909.955 478.529 903.802 477.161C901.438 473.624 898.809 470.358 895.977 467.399C898.626 466.597 901.234 465.889 903.781 465.288C914.072 462.895 922.773 462.529 925.972 464.38C929.151 466.243 928.54 471.29 924.383 477.232V477.232Z" fill="#61DAFB"/>
<path d="M889.802 496.085C894.945 493.11 894.945 488.285 889.802 485.309C884.659 482.333 876.32 482.333 871.177 485.309C866.034 488.285 866.034 493.11 871.177 496.085C876.32 499.061 884.659 499.061 889.802 496.085Z" fill="#61DAFB"/>
<g clip-path="url(#clip0_18_282)">
<path d="M229.659 467.053L192.065 448.632L226.076 429.078L257.753 450.835L247.925 461.137L229.659 467.053Z" fill="#E9CA32"/>
<path d="M244.568 459.2L212.473 440.671L226.497 432.629L252.72 450.645L244.568 459.2Z" fill="#FFDE25"/>
<path d="M214.787 443.735L211.092 445.869L232.454 458.201L229.032 459.544L226.156 457.884L222.187 459.543L228.623 463.258L241.216 458.992L214.787 443.735ZM217.559 442.135L227.789 436.23L231.199 438.988L225.559 442.244L232.278 446.123L237.918 442.867L250.795 451.091L243.987 457.392L239.743 454.942L243.676 450.299L238.407 446.859L232.992 451.044L217.559 442.135Z" fill="white"/>
</g>
<g clip-path="url(#clip1_18_282)">
<path d="M340.369 532.637L300.07 512.859L336.207 492.084L370.218 515.405L359.817 526.375L340.369 532.637Z" fill="#E34F26"/>
<path d="M356.217 524.297L321.787 504.421L336.688 495.876L364.843 515.188L356.217 524.297Z" fill="#EF652A"/>
<path d="M341.155 503.17L337.025 500.3L314.18 513.489L329.394 520.815L345.161 511.713L350.493 515.505L346.818 519.214L340.195 521.305L336.372 519.413L331.842 522.028L339.712 525.857L351.644 522L358.399 515.069L345.51 506.17L328.952 515.729L323.706 513.244L341.155 503.17Z" fill="white"/>
</g>
<g clip-path="url(#clip2_18_282)">
<path d="M447.882 600.321L406.073 579.833L443.898 558.087L479.127 582.283L468.196 593.741L447.882 600.321Z" fill="#1B73BA"/>
<path d="M464.463 591.586L428.77 570.98L444.366 562.036L473.529 582.073L464.463 591.586Z" fill="#1C88C7"/>
<path d="M445.016 566.869L421.104 580.674L426.417 582.993L437.764 576.442L431.394 585.657L436.552 587.887L453.003 578.389L458.706 582.37L454.225 586.214L447.877 588.382L443.911 586.542L439.273 589.219L447.335 593.155L460.057 589.013L466.558 581.758L453.234 572.66L443.155 578.478L449.578 569.503L445.016 566.869Z" fill="white"/>
</g>
<rect width="157.945" height="74.7906" rx="10" transform="matrix(0.872014 -0.489481 -0.00338252 0.999994 535.323 90.2103)" fill="url(#paint12_linear_18_282)"/>
<rect width="157.945" height="74.7906" rx="10" transform="matrix(0.872014 -0.489481 -0.00338252 0.999994 561.323 99.2103)" fill="url(#paint13_linear_18_282)"/>
<path d="M587.551 135.901L588.062 125.226L600.53 117.507L600.56 116.882L588.092 124.601L588.559 114.862L601.814 106.655L601.844 106.031L588.005 114.6L586.937 136.887L600.893 128.246L600.923 127.622L587.551 135.901L587.551 135.901ZM612.903 105.241L607.387 115.714L602.684 111.569L601.925 112.039L607.014 116.4L600.63 128.408L601.331 127.974L607.342 116.651L612.63 120.978L613.36 120.527L607.744 115.947L613.603 104.808L612.903 105.241L612.903 105.241ZM614.849 124.936L615.328 114.947L615.386 114.911C615.667 116.151 616.302 116.893 617.291 117.139C618.28 117.385 619.573 117.014 621.169 116.025C622.2 115.387 623.126 114.596 623.946 113.655C624.765 112.713 625.461 111.692 626.033 110.591C626.605 109.489 627.057 108.341 627.388 107.147C627.719 105.953 627.912 104.793 627.965 103.67C628.023 102.463 627.93 101.44 627.687 100.601C627.444 99.7619 627.063 99.1396 626.544 98.734C626.026 98.3283 625.382 98.1612 624.614 98.2335C623.845 98.3052 622.965 98.6485 621.972 99.2631C621.213 99.7331 620.502 100.29 619.838 100.933C619.174 101.576 618.579 102.272 618.052 103.023C617.522 103.778 617.054 104.574 616.664 105.381C616.266 106.203 615.953 107.029 615.724 107.857L615.666 107.893L615.881 103.398L615.297 103.759L614.265 125.297L614.849 124.936V124.936ZM621.197 115.432C619.368 116.565 617.93 116.804 616.885 116.148C615.84 115.493 615.378 113.907 615.498 111.389C615.548 110.348 615.732 109.275 616.049 108.17C616.366 107.065 616.8 105.999 617.35 104.972C617.899 103.945 618.564 102.988 619.343 102.102C620.122 101.216 620.988 100.478 621.942 99.8872C622.915 99.2846 623.757 98.9654 624.467 98.9298C625.177 98.894 625.753 99.0874 626.196 99.5101C626.638 99.9328 626.959 100.532 627.158 101.307C627.357 102.083 627.431 102.99 627.381 104.031C627.336 104.968 627.18 105.968 626.912 107.033C626.644 108.097 626.258 109.144 625.756 110.172C625.253 111.199 624.626 112.173 623.873 113.094C623.121 114.014 622.229 114.793 621.197 115.432V115.432ZM630.791 109.734L631.226 100.651C631.268 99.7768 631.426 98.8512 631.699 97.8742C631.973 96.8973 632.368 95.9407 632.885 95.0048C633.402 94.0688 634.044 93.1867 634.811 92.3585C635.578 91.5303 636.475 90.8281 637.504 90.2517L637.534 89.6275C636.64 90.1613 635.851 90.7501 635.169 91.3948C634.486 92.0397 633.892 92.7103 633.387 93.4071C632.881 94.1037 632.47 94.8076 632.152 95.5191C631.835 96.2297 631.591 96.937 631.428 97.618L631.37 97.6541L631.56 93.6898L630.976 94.0514L630.207 110.096L630.791 109.734L630.791 109.734ZM637.856 97.6972L650.41 89.9238C650.502 88.7967 650.451 87.7988 650.256 86.9298C650.062 86.0606 649.716 85.3964 649.219 84.9372C648.721 84.4779 648.061 84.2709 647.237 84.3165C646.413 84.3621 645.417 84.7466 644.249 85.4696C643.412 85.9879 642.586 86.6814 641.77 87.5502C640.954 88.4189 640.227 89.3989 639.589 90.4904C638.951 91.5819 638.423 92.7624 638.003 94.0321C637.583 95.3014 637.342 96.602 637.278 97.9339C637.221 99.12 637.294 100.15 637.498 101.023C637.702 101.897 638.048 102.551 638.537 102.985C639.026 103.419 639.675 103.588 640.482 103.492C641.289 103.396 642.277 102.976 643.446 102.232C645.159 101.171 646.624 99.7643 647.841 98.0114C649.059 96.258 649.819 94.3788 650.123 92.3733L649.539 92.7348C649.201 94.6605 648.49 96.3879 647.407 97.9169C646.323 99.4462 644.993 100.699 643.416 101.675C642.346 102.338 641.45 102.701 640.729 102.763C640.009 102.826 639.431 102.658 638.997 102.261C638.563 101.863 638.256 101.271 638.076 100.483C637.897 99.6961 637.823 98.7672 637.856 97.6972ZM649.856 89.6611L637.886 97.0728C637.998 95.9131 638.241 94.7833 638.615 93.6836C638.988 92.5837 639.458 91.5508 640.024 90.5848C640.589 89.6187 641.236 88.7493 641.962 87.9763C642.688 87.2035 643.46 86.5639 644.278 86.0577C645.251 85.4551 646.098 85.1176 646.82 85.0445C647.541 84.9716 648.133 85.1144 648.598 85.4729C649.062 85.8315 649.4 86.3747 649.611 87.1024C649.821 87.8302 649.903 88.6831 649.856 89.6611ZM662.69 79.0192L663.274 78.6577C663.36 76.868 662.936 75.8687 662.001 75.6596C661.067 75.4507 659.763 75.8645 658.089 76.9009C657.154 77.4794 656.36 78.0924 655.706 78.7399C655.052 79.3871 654.511 80.0351 654.083 80.6835C653.655 81.3319 653.342 81.9497 653.144 82.5369C652.946 83.1241 652.836 83.6362 652.815 84.0731C652.774 84.9471 652.886 85.5538 653.153 85.8932C653.42 86.2327 653.858 86.3553 654.467 86.2611C654.885 86.2038 655.363 86.09 655.9 85.9192C656.437 85.7481 657.061 85.5333 657.773 85.2745C658.407 85.0436 659.031 84.8183 659.646 84.5989C660.261 84.3798 660.8 84.2631 661.264 84.2487C661.727 84.2344 662.099 84.3523 662.38 84.6026C662.661 84.8527 662.784 85.3317 662.75 86.0391C662.718 86.7259 662.539 87.4019 662.214 88.0672C661.892 88.7287 661.479 89.3722 661.005 89.952C660.523 90.5429 659.992 91.0838 659.411 91.5745C658.831 92.0654 658.268 92.4794 657.723 92.8169C655.952 93.9136 654.614 94.3329 653.71 94.0747C652.807 93.8163 652.398 92.7819 652.485 90.9714L651.901 91.333C651.804 93.3517 652.245 94.5127 653.221 94.8166C654.199 95.1202 655.69 94.6514 657.694 93.41C658.337 93.0124 658.988 92.5335 659.647 91.9736C660.307 91.414 660.903 90.7975 661.436 90.1243C661.964 89.4588 662.416 88.723 662.757 87.9737C663.105 87.2128 663.299 86.4267 663.337 85.6151C663.374 84.8451 663.263 84.3083 663.004 84.0043C662.744 83.7006 662.394 83.534 661.951 83.5052C661.509 83.4763 661.005 83.5511 660.439 83.7298C659.87 83.9095 659.299 84.0963 658.726 84.2903C658.021 84.5323 657.315 84.7776 656.609 85.026C656.004 85.239 655.444 85.3939 654.929 85.4903C654.434 85.5747 654.046 85.4972 653.765 85.2574C653.483 85.0177 653.362 84.5023 653.4 83.7115C653.407 83.5659 653.458 83.2816 653.554 82.8589C653.649 82.436 653.853 81.9417 654.163 81.3759C654.473 80.8104 654.937 80.1898 655.555 79.5143C656.173 78.8391 657.008 78.1759 658.059 77.5251C658.779 77.0792 659.432 76.7559 660.018 76.5546C660.603 76.3536 661.102 76.3025 661.512 76.4016C661.923 76.5007 662.232 76.7587 662.438 77.176C662.645 77.5934 662.729 78.2076 662.69 79.0192V79.0192ZM676.208 70.6494L676.792 70.2878C676.878 68.4981 676.454 67.4987 675.519 67.2897C674.585 67.0808 673.281 67.4945 671.607 68.531C670.673 69.1094 669.878 69.7225 669.224 70.3699C668.57 71.0172 668.029 71.6652 667.601 72.3136C667.173 72.962 666.86 73.5798 666.662 74.167C666.464 74.7542 666.355 75.2662 666.334 75.7031C666.292 76.5771 666.404 77.1838 666.672 77.5232C666.939 77.8629 667.377 77.9854 667.985 77.8911C668.404 77.8338 668.881 77.72 669.418 77.5493C669.955 77.3782 670.579 77.1634 671.291 76.9046C671.925 76.6736 672.55 76.4483 673.165 76.229C673.78 76.0099 674.319 75.8932 674.782 75.8787C675.246 75.8645 675.618 75.9823 675.898 76.2327C676.179 76.4828 676.303 76.9617 676.269 77.6691C676.236 78.3559 676.057 79.032 675.732 79.6973C675.41 80.3587 674.998 81.0022 674.523 81.582C674.041 82.173 673.51 82.7138 672.93 83.2047C672.349 83.6954 671.786 84.1096 671.241 84.447C669.47 85.5437 668.132 85.9629 667.229 85.7047C666.325 85.4465 665.916 84.412 666.003 82.6015L665.419 82.963C665.323 84.9817 665.763 86.1429 666.74 86.4466C667.717 86.7503 669.208 86.2815 671.213 85.0401C671.855 84.6424 672.506 84.1636 673.165 83.6038C673.825 83.0441 674.421 82.4277 674.954 81.7543C675.482 81.0888 675.934 80.353 676.275 79.6038C676.623 78.8428 676.817 78.0568 676.856 77.2452C676.893 76.4752 676.781 75.9383 676.522 75.6344C676.263 75.3306 675.912 75.1641 675.469 75.1352C675.027 75.1063 674.523 75.1812 673.957 75.3598C673.388 75.5395 672.817 75.7263 672.245 75.9203C671.539 76.1623 670.834 76.4076 670.127 76.656C669.522 76.8691 668.962 77.024 668.447 77.1205C667.952 77.2049 667.564 77.1273 667.283 76.8874C667.001 76.6477 666.88 76.1324 666.918 75.3416C666.925 75.196 666.976 74.9117 667.072 74.4889C667.168 74.066 667.371 73.5717 667.681 73.006C667.992 72.4405 668.456 71.8198 669.074 71.1444C669.692 70.4691 670.526 69.806 671.577 69.1551C672.297 68.7092 672.95 68.3859 673.536 68.1846C674.122 67.9836 674.62 67.9326 675.031 68.0316C675.441 68.1307 675.75 68.3888 675.957 68.806C676.163 69.2234 676.247 69.8377 676.209 70.6493L676.208 70.6494Z" fill="black"/>
<g clip-path="url(#clip3_18_282)">
<path d="M668.808 208.669C668.808 208.669 667.82 210.83 672.336 208.761C677.802 206.253 680.229 204.759 684.61 201.046C684.61 201.046 686.924 200.741 689.682 200.041C682.764 210.04 661.953 215.702 668.808 208.669V208.669ZM660.54 205.605C660.54 205.605 659.853 208.272 664.325 206.175C670.107 203.463 674.29 201.099 680.07 196.168C680.07 196.168 682.066 196.176 684.174 195.595C673.812 206.531 653.539 213.671 660.54 205.605" fill="#5382A1"/>
<path d="M661.51 191.751C667.939 192.015 667.267 195.98 667.267 195.98C667.267 195.98 670.929 189.34 662.539 188.517C654.709 187.752 649.94 187.878 655.601 175.557C655.601 175.557 639.708 190.852 661.51 191.751" fill="#E76F00"/>
<path d="M700.86 195.961C700.86 195.961 704.056 195.785 701.494 198.554C696.621 203.817 675.142 216.957 666.319 218.958C663.148 219.678 665.955 216.515 666.977 215.601C668.041 214.646 668.873 214.23 668.873 214.23C664.683 214.648 656.398 225.361 666.929 220.979C695.651 209.031 710.165 193.933 700.86 195.961ZM656.126 200.034C656.126 200.034 647.551 208.074 655.789 204.44C659.269 202.906 665.293 199.321 670.512 195.756C674.775 192.841 678.615 189.659 678.615 189.659C678.615 189.659 677.677 191.013 677.301 192.168C668.885 200.501 645.412 212.435 648.689 206.99C651.461 202.386 656.126 200.034 656.126 200.034L656.126 200.034ZM687.608 194.904C693.179 184.709 682 184.456 679.034 187.072C678.307 187.713 678.063 188.045 678.063 188.045C678.063 188.045 677.869 187.54 678.289 187.03C683.094 181.242 699.107 183.902 687.679 195.214C687.679 195.214 687.698 195.018 687.608 194.904" fill="#5382A1"/>
<path d="M635.183 172.724C635.183 172.724 648.059 172.731 645.434 185.686C643.332 196.077 655.623 194.215 663.089 195.883C651.921 196.21 642.95 196.002 641.496 191.827C639.36 185.699 648.013 177.135 635.183 172.724" fill="#E76F00"/>
<path d="M684.943 215.352C696.806 209.328 712.815 198.803 707.938 195.519C707.938 195.519 709.161 197.126 702.317 202.913C694.595 209.442 682.649 216.096 674.539 219.451C674.539 219.451 677.145 219.31 684.943 215.352" fill="#5382A1"/>
</g>
<rect width="417.385" height="123.1" rx="10" transform="matrix(0.87699 -0.480509 0.87699 0.480509 0 394.557)" fill="url(#paint14_linear_18_282)"/>
<g clip-path="url(#clip4_18_282)">
<path d="M312.795 265.615C312.314 265.892 311.946 266.219 311.766 266.593L306.223 278.502C305.863 279.272 306.268 280.1 307.247 280.665L322.306 289.359C323.284 289.923 324.717 290.157 326.053 289.95L331.439 289.113C333.917 288.626 334.516 288.266 335.272 287.829C337.73 286.41 337.645 284.74 335.057 283.247L320.192 274.665C319.982 274.544 319.649 274.562 319.443 274.681L317.803 275.628C317.593 275.749 317.565 275.939 317.775 276.06L332.64 284.642C333.787 285.304 333.743 286.661 330.832 287.223L325.195 288.075C325.001 288.108 324.784 288.094 324.64 288.011L309.581 279.318C309.438 279.235 309.388 279.096 309.443 278.981L314.986 267.104C315.011 267.05 315.06 267.001 315.128 266.962C315.196 266.922 315.281 266.894 315.375 266.88L335.949 263.679C336.148 263.651 336.385 263.674 336.532 263.759L351.591 272.453C351.735 272.536 351.81 272.663 351.757 272.773L346.186 284.667C346.141 284.77 345.986 284.859 345.797 284.891L340.439 285.68C340.36 285.693 340.288 285.718 340.23 285.751C340.172 285.785 340.129 285.826 340.105 285.872C339.702 286.711 339.589 286.847 339.02 287.523C338.88 287.69 338.671 287.945 339.686 287.779L346.655 286.734C347.307 286.632 347.901 286.433 348.377 286.156C348.858 285.882 349.203 285.539 349.378 285.162L354.949 273.268C355.304 272.496 354.903 271.67 353.925 271.106L338.865 262.412C337.887 261.847 336.455 261.614 335.12 261.821L314.49 265.021C313.846 265.123 313.276 265.337 312.795 265.615L312.795 265.615Z" fill="#83CD29"/>
<path d="M327.056 269.806C323.33 271.957 322.694 274.152 325.326 275.672C328.182 277.32 331.169 276.502 335.099 274.641C339.796 272.412 340.756 272.582 341.597 273.067C343.055 273.909 342.512 274.94 339.759 276.529C336.3 278.526 334.679 278.467 332.707 277.623C332.493 277.534 332.201 277.53 332.012 277.639L330.318 278.618C330.109 278.738 330.108 278.946 330.317 279.066C332.516 280.335 336.313 281.145 342.033 277.842C346.174 275.452 346.94 273.136 344.098 271.495C341.28 269.869 338.594 270.545 334.047 272.558C329.452 274.592 328.803 274.664 327.854 274.116C327.071 273.664 326.352 272.87 329.358 271.134C332.043 269.584 333.614 269.345 335.828 270.154C336.033 270.231 336.318 270.223 336.494 270.121L338.189 269.143C338.293 269.082 338.33 268.987 338.328 268.902C338.319 268.815 338.279 268.734 338.162 268.678C334.787 267.033 331.244 267.388 327.056 269.806V269.806Z" fill="#83CD29"/>
<path d="M216.114 298.63C215.968 298.714 215.862 298.819 215.808 298.934C215.755 299.05 215.756 299.171 215.809 299.286C215.863 299.401 215.967 299.507 216.112 299.591L237.328 311.839C237.536 311.959 237.626 312.123 237.55 312.288C237.513 312.369 237.439 312.442 237.337 312.501C237.234 312.561 237.106 312.603 236.966 312.625L231.496 313.477C231.097 313.539 230.732 313.66 230.44 313.829C230.147 313.998 229.936 314.209 229.829 314.439L223.952 327.054C223.732 327.526 223.991 328.039 224.589 328.384L240.563 337.606C241.16 337.95 242.022 338.084 242.838 337.957L264.69 334.564C265.09 334.503 265.455 334.381 265.747 334.212C266.04 334.043 266.25 333.833 266.357 333.602L272.234 320.987C272.342 320.756 272.343 320.513 272.236 320.283C272.129 320.052 271.918 319.842 271.626 319.673L231.801 296.682C231.501 296.51 231.128 296.386 230.718 296.325C230.309 296.263 229.878 296.265 229.47 296.331L216.614 298.437C216.412 298.47 216.256 298.546 216.114 298.63V298.63ZM146.867 361.629C146.613 361.788 146.41 361.958 146.31 362.174L140.433 374.789C140.325 375.02 140.324 375.263 140.431 375.494C140.538 375.724 140.748 375.935 141.042 376.103L162.508 388.463C162.806 388.635 163.237 388.706 163.645 388.639C163.847 388.61 164.031 388.549 164.177 388.465C164.324 388.38 164.429 388.274 164.479 388.157L167.989 380.688C168.2 380.209 168.003 379.702 167.407 379.358L157.396 373.578C156.798 373.234 156.565 372.735 156.787 372.264L158.263 369.075C158.369 368.844 158.581 368.634 158.875 368.465C159.161 368.3 159.525 368.172 159.93 368.113L165.456 367.26C165.855 367.197 166.276 367.197 166.676 367.259C167.076 367.32 167.44 367.442 167.732 367.611L177.743 373.391C178.339 373.735 179.224 373.849 180.046 373.727L192.985 371.701C193.187 371.672 193.371 371.611 193.518 371.527C193.664 371.442 193.769 371.336 193.819 371.219C193.873 371.104 193.873 370.982 193.819 370.867C193.766 370.752 193.661 370.647 193.515 370.562L172.104 358.17C171.813 358.001 171.449 357.879 171.049 357.817C170.65 357.755 170.228 357.756 169.829 357.819L147.977 361.212C147.606 361.268 147.31 361.386 147.033 361.533L146.867 361.629ZM271.645 289.818C271.356 289.986 271.145 290.192 271.034 290.428L265.157 303.043C265.049 303.273 265.048 303.516 265.155 303.747C265.262 303.978 265.472 304.188 265.765 304.356L281.739 313.578C282.34 313.925 283.223 314.044 284.043 313.914L305.617 310.489C306.414 310.363 307.056 310.017 307.283 309.558L310.987 302.072C311.105 301.835 311.011 301.574 310.711 301.4C310.566 301.314 310.384 301.253 310.184 301.222C309.984 301.191 309.773 301.192 309.573 301.224L287.638 304.665C287.228 304.73 286.744 304.662 286.445 304.489L281.453 301.608C281.154 301.435 281.066 301.17 281.176 300.935L283.015 296.991C283.068 296.876 283.173 296.771 283.32 296.686C283.466 296.602 283.648 296.541 283.848 296.51L290.678 295.449C290.878 295.418 291.089 295.418 291.288 295.448C291.488 295.479 291.67 295.54 291.816 295.625L295.754 297.898C295.9 297.983 296.082 298.043 296.282 298.074C296.482 298.105 296.692 298.105 296.892 298.074C297.302 298.01 297.616 297.829 297.725 297.593L301.208 290.011C301.315 289.78 301.316 289.537 301.209 289.307C301.102 289.076 300.892 288.866 300.6 288.697L296.745 286.472C296.15 286.128 295.285 285.995 294.469 286.121L272.701 289.465C272.301 289.527 271.937 289.649 271.646 289.819L271.645 289.818ZM242.116 320.635C242.189 320.593 242.292 320.554 242.394 320.538L249.891 319.38C250.094 319.349 250.325 319.374 250.473 319.46L255.965 322.63C256.114 322.716 256.158 322.849 256.103 322.966L254.097 327.294C254.07 327.352 254.017 327.404 253.944 327.446C253.871 327.489 253.78 327.519 253.681 327.535L246.184 328.693C245.98 328.724 245.75 328.699 245.601 328.613L240.11 325.443C239.961 325.357 239.918 325.224 239.972 325.106L241.977 320.779C242 320.724 242.048 320.674 242.117 320.635L242.117 320.634L242.116 320.635Z" fill="#404137"/>
<path d="M188.626 337.649C188.337 337.816 188.125 338.023 188.015 338.259L182.11 350.858C181.889 351.329 182.149 351.843 182.746 352.187L198.72 361.409C199.317 361.754 200.179 361.887 200.996 361.761L222.847 358.368C223.247 358.306 223.612 358.185 223.905 358.016C224.198 357.847 224.408 357.636 224.514 357.405L230.392 344.79C230.5 344.56 230.5 344.317 230.393 344.086C230.286 343.855 230.076 343.645 229.783 343.477L213.809 334.255C213.211 333.91 212.322 333.76 211.505 333.887L189.682 337.296C189.282 337.358 188.918 337.48 188.626 337.649V337.649ZM285.789 298.016C285.734 298.048 285.673 298.083 285.651 298.128L284.536 300.564C284.514 300.609 284.513 300.656 284.532 300.701C284.552 300.746 284.591 300.787 284.647 300.821L287.698 302.582C287.812 302.648 287.984 302.671 288.142 302.646L292.334 301.986C292.492 301.962 292.599 301.901 292.64 301.81L293.781 299.39C293.803 299.345 293.805 299.298 293.785 299.253C293.766 299.208 293.727 299.167 293.671 299.133L290.62 297.372C290.562 297.34 290.491 297.317 290.413 297.306C290.335 297.295 290.254 297.296 290.176 297.308L285.956 297.951C285.877 297.963 285.845 297.984 285.79 298.016L285.789 298.016Z" fill="#83CD29"/>
</g>
<defs>
<linearGradient id="paint0_linear_18_282" x1="758.625" y1="151.413" x2="476.701" y2="760.957" gradientUnits="userSpaceOnUse">
<stop stop-color="#F6D1AF"/>
<stop offset="1" stop-color="#FF6F6F"/>
</linearGradient>
<linearGradient id="paint1_linear_18_282" x1="977.985" y1="651.562" x2="476.566" y2="771.821" gradientUnits="userSpaceOnUse">
<stop stop-color="#EBBC75"/>
<stop offset="1" stop-color="#F291CB"/>
</linearGradient>
<linearGradient id="paint2_linear_18_282" x1="344.294" y1="129.142" x2="513.855" y2="618.513" gradientUnits="userSpaceOnUse">
<stop stop-color="#CF70A6"/>
<stop offset="1" stop-color="#EEA069"/>
</linearGradient>
<linearGradient id="paint3_linear_18_282" x1="336" y1="516" x2="161.191" y2="620.23" gradientUnits="userSpaceOnUse">
<stop stop-color="#F8F8F8"/>
<stop offset="0.505208" stop-color="#CBC2C2" stop-opacity="0.494792"/>
<stop offset="1" stop-color="#848484" stop-opacity="0"/>
</linearGradient>
<linearGradient id="paint4_linear_18_282" x1="444" y1="582" x2="269.191" y2="686.23" gradientUnits="userSpaceOnUse">
<stop stop-color="#F8F8F8"/>
<stop offset="0.505208" stop-color="#CBC2C2" stop-opacity="0.494792"/>
<stop offset="1" stop-color="#848484" stop-opacity="0"/>
</linearGradient>
<linearGradient id="paint5_linear_18_282" x1="670.135" y1="195.439" x2="489.734" y2="303.004" gradientUnits="userSpaceOnUse">
<stop stop-color="#F8F8F8"/>
<stop offset="0.505208" stop-color="#CBC2C2" stop-opacity="0.494792"/>
<stop offset="1" stop-color="#848484" stop-opacity="0"/>
</linearGradient>
<linearGradient id="paint6_linear_18_282" x1="226" y1="449" x2="51.191" y2="553.23" gradientUnits="userSpaceOnUse">
<stop stop-color="#F8F8F8"/>
<stop offset="0.505208" stop-color="#CBC2C2" stop-opacity="0.494792"/>
<stop offset="1" stop-color="#848484" stop-opacity="0"/>
</linearGradient>
<linearGradient id="paint7_linear_18_282" x1="226" y1="449" x2="51.191" y2="553.23" gradientUnits="userSpaceOnUse">
<stop stop-color="#F8F8F8"/>
<stop offset="0.505208" stop-color="#CBC2C2" stop-opacity="0.494792"/>
<stop offset="1" stop-color="#848484" stop-opacity="0"/>
</linearGradient>
<linearGradient id="paint8_linear_18_282" x1="486" y1="206" x2="389.651" y2="258.596" gradientUnits="userSpaceOnUse">
<stop stop-color="#F8F8F8"/>
<stop offset="0.505208" stop-color="#CBC2C2" stop-opacity="0.494792"/>
<stop offset="1" stop-color="#848484" stop-opacity="0"/>
</linearGradient>
<linearGradient id="paint9_linear_18_282" x1="486.5" y1="206" x2="389.473" y2="259.663" gradientUnits="userSpaceOnUse">
<stop stop-color="#F8F8F8"/>
<stop offset="0.505208" stop-color="#CBC2C2" stop-opacity="0.494792"/>
<stop offset="1" stop-color="#848484" stop-opacity="0"/>
</linearGradient>
<linearGradient id="paint10_linear_18_282" x1="862" y1="256" x2="533.5" y2="456.5" gradientUnits="userSpaceOnUse">
<stop stop-color="white"/>
<stop offset="0.9999" stop-color="#898989" stop-opacity="0.692708"/>
<stop offset="1" stop-color="#D8AFAF" stop-opacity="0"/>
</linearGradient>
<linearGradient id="paint11_linear_18_282" x1="880" y1="495" x2="551.5" y2="695.5" gradientUnits="userSpaceOnUse">
<stop stop-color="white"/>
<stop offset="0.9999" stop-color="#898989" stop-opacity="0.692708"/>
<stop offset="1" stop-color="#D8AFAF" stop-opacity="0"/>
</linearGradient>
<linearGradient id="paint12_linear_18_282" x1="78.9725" y1="0" x2="78.9725" y2="74.7906" gradientUnits="userSpaceOnUse">
<stop stop-color="#FF9A9A"/>
<stop offset="0.994792" stop-color="#FAA05F"/>
</linearGradient>
<linearGradient id="paint13_linear_18_282" x1="78.9725" y1="0" x2="78.9725" y2="74.7906" gradientUnits="userSpaceOnUse">
<stop stop-color="#FFDDAA"/>
<stop offset="1" stop-color="#FFCFCF"/>
</linearGradient>
<linearGradient id="paint14_linear_18_282" x1="208.693" y1="0" x2="208.693" y2="123.1" gradientUnits="userSpaceOnUse">
<stop offset="0.0625" stop-color="#FFD2DB"/>
<stop offset="0.979167" stop-color="#FFD6CD"/>
</linearGradient>
<clipPath id="clip0_18_282">
<rect width="39.191" height="44.9063" fill="white" transform="matrix(0.866044 -0.499967 0.866044 0.499967 192 448.594)"/>
</clipPath>
<clipPath id="clip1_18_282">
<rect width="41.6404" height="48.1722" fill="white" transform="matrix(0.866044 -0.499967 0.866044 0.499967 300 512.819)"/>
</clipPath>
<clipPath id="clip2_18_282">
<rect width="43.5862" height="49.9425" fill="white" transform="matrix(0.866044 -0.499967 0.866044 0.499967 406 579.792)"/>
</clipPath>
<clipPath id="clip3_18_282">
<rect width="52.9924" height="71.7125" fill="white" transform="matrix(0.866044 -0.499967 0.866044 0.499967 606 189.495)"/>
</clipPath>
<clipPath id="clip4_18_282">
<rect width="228.299" height="64.535" fill="white" transform="matrix(0.866044 -0.499967 0.866044 0.499967 111 359.142)"/>
</clipPath>
</defs>
</svg>
