          <svg viewBox="0 0 200 200" xmlns="http://www.w3.org/2000/svg">
            <path
              fill="#000"
              d="M41.1,-54.7C53.9,-47.2,65.4,-36.1,71.7,-22C77.9,-8,79,9,73.2,22.8C67.3,36.5,54.6,47.1,41.2,56.1C27.9,65.2,13.9,72.8,2.8,69C-8.4,65.2,-16.9,50,-25.3,39.3C-33.8,28.7,-42.3,22.6,-47.9,13.6C-53.5,4.7,-56,-7.2,-56.8,-22.7C-57.6,-38.1,-56.5,-57.2,-46.7,-65.7C-36.9,-74.2,-18.5,-72.2,-2.2,-69.2C14.1,-66.2,28.2,-62.3,41.1,-54.7Z"
              transform="translate(100 100)"
            />
          </svg>
          