<svg width="1037" height="679" viewBox="0 0 1037 679" fill="none" xmlns="http://www.w3.org/2000/svg">
<g id="Frame 1" clip-path="url(#clip0_29_16)">
<g id="TechStack">
<mask id="mask0_29_16" style="mask-type:alpha" maskUnits="userSpaceOnUse" x="292" y="247" width="556" height="322">
<rect id="Rectangle 5" width="326.592" height="326.592" rx="10" transform="matrix(-0.866044 -0.499967 0.866044 -0.499967 569.843 571.57)" fill="white"/>
</mask>
<g mask="url(#mask0_29_16)">
<path id="Vector 2" d="M469.772 274.322C232.532 327.922 254.564 518.048 295.235 606.411C312.351 671.479 314.331 686.12 392.052 722.241C469.772 758.362 715.818 614.362 792.59 576.525C869.361 538.688 1039.31 337.097 868.313 276.98C697.319 216.862 766.322 207.323 469.772 274.322Z" fill="url(#paint0_linear_29_16)"/>
<path id="Vector 3" d="M767.432 497.514C614.962 349.809 514.66 469.249 483.569 547.432C454.127 595.443 456.799 659.253 465.004 682.329C551.322 683.918 730.129 730.032 754.821 901.779C785.685 1116.46 1208.07 929.296 969.183 795.877C730.294 662.459 958.02 682.146 767.432 497.514Z" fill="url(#paint1_linear_29_16)"/>
<path id="Vector 1" d="M739.5 320.676C947.417 258.737 604.145 123.572 511.977 91.9374C419.808 60.3031 -42.5506 348.102 127.233 495.119C173.038 534.783 370.632 794.15 391.138 547.611C411.644 301.072 531.583 382.615 739.5 320.676Z" fill="url(#paint2_linear_29_16)"/>
<g id="Tech Stack">
<path d="M450.729 403.863L438.814 410.747L430.114 405.72L464.859 385.644L473.559 390.671L461.701 397.523L491.791 414.91L480.819 421.249L450.729 403.863ZM519.946 381.351C520.02 381.394 520.832 381.928 522.384 382.952L500.551 395.568C502.546 396.208 504.596 396.411 506.702 396.176C508.807 395.899 510.821 395.205 512.742 394.095C514.183 393.262 515.217 392.43 515.845 391.597C516.51 390.743 516.916 389.74 517.064 388.588L528.369 388.716C528.701 392.28 526.06 395.685 520.444 398.93C516.935 400.958 513.185 402.356 509.195 403.124C505.205 403.893 501.29 404.021 497.447 403.508C493.642 402.975 490.244 401.843 487.251 400.114C484.296 398.407 482.356 396.475 481.433 394.319C480.509 392.12 480.638 389.911 481.821 387.691C483.003 385.471 485.164 383.454 488.304 381.639C491.296 379.91 494.64 378.704 498.334 378.021C501.991 377.317 505.704 377.242 509.472 377.797C513.241 378.309 516.732 379.494 519.946 381.351ZM495.84 385.93C494.215 386.869 493.31 387.926 493.125 389.1C492.977 390.253 493.55 391.373 494.843 392.462L507.145 385.354C505.261 384.606 503.303 384.286 501.271 384.393C499.276 384.478 497.466 384.991 495.84 385.93ZM555.611 378.61C552.286 380.531 548.647 381.866 544.694 382.613C540.741 383.36 536.844 383.477 533.002 382.965C529.196 382.431 525.798 381.3 522.805 379.571C519.813 377.842 517.873 375.889 516.987 373.711C516.1 371.491 516.322 369.25 517.652 366.987C518.945 364.703 521.254 362.601 524.579 360.68C527.977 358.716 531.653 357.446 535.606 356.869C539.522 356.272 543.29 356.421 546.911 357.318L542.921 364.426C538.857 363.657 535.514 364.031 532.891 365.547C531.007 366.635 530.065 367.905 530.065 369.357C530.102 370.787 531.228 372.142 533.445 373.423C535.698 374.725 538.081 375.398 540.593 375.44C543.105 375.44 545.304 374.896 547.188 373.807C549.811 372.292 550.457 370.36 549.127 368.012L561.429 365.707C562.981 367.799 563.258 369.987 562.26 372.271C561.226 374.533 559.009 376.646 555.611 378.61ZM562.071 339.016C565.803 336.86 569.903 335.771 574.373 335.75C578.88 335.707 583.369 336.977 587.839 339.56L605.018 349.486L594.489 355.57L579.028 346.637C574.927 344.267 571.233 344.032 567.945 345.932C566.135 346.978 565.267 348.163 565.341 349.486C565.452 350.788 566.689 352.122 569.054 353.489L583.572 361.878L573.043 367.961L531.926 344.203L542.454 338.119L556.308 346.124C556.382 344.843 556.918 343.595 557.915 342.378C558.913 341.161 560.298 340.041 562.071 339.016ZM554.506 457.615C551.366 459.43 547.93 460.966 544.199 462.226C540.468 463.485 537.032 464.275 533.892 464.595L529.403 457.839C532.285 457.498 535.222 456.868 538.214 455.95C541.207 455.032 543.811 453.933 546.028 452.652C550.239 450.219 551.292 448.394 549.187 447.177C548.078 446.537 546.656 446.419 544.92 446.825C543.183 447.188 540.69 447.967 537.439 449.162C533.892 450.486 530.789 451.51 528.129 452.236C525.432 452.94 522.587 453.239 519.595 453.132C516.603 453.026 513.758 452.193 511.061 450.635C508.697 449.269 507.219 447.668 506.628 445.832C506 443.975 506.406 441.99 507.847 439.877C509.325 437.742 511.929 435.597 515.661 433.441C518.21 431.968 521.017 430.687 524.084 429.598C527.113 428.488 530.124 427.709 533.116 427.261L537.882 433.921C532.193 434.903 527.612 436.397 524.139 438.404C521.959 439.663 520.703 440.773 520.371 441.734C520.001 442.673 520.334 443.441 521.368 444.039C522.403 444.637 523.77 444.743 525.469 444.359C527.168 443.975 529.607 443.185 532.784 441.99C536.367 440.645 539.489 439.631 542.149 438.948C544.809 438.222 547.635 437.913 550.627 438.019C553.62 438.083 556.464 438.895 559.161 440.453C561.489 441.798 562.948 443.388 563.539 445.224C564.13 447.059 563.705 449.055 562.264 451.211C560.787 453.346 558.201 455.48 554.506 457.615ZM594.985 431.921C594.652 432.754 593.987 433.629 592.99 434.547C592.029 435.443 590.828 436.308 589.388 437.14C585.472 439.403 581.5 440.588 577.473 440.694C573.447 440.801 569.531 439.755 565.726 437.556L555.64 431.729L551.262 434.258L543.394 429.712L547.771 427.182L539.958 422.668L550.487 416.584L558.3 421.099L565.171 417.128L573.04 421.675L566.169 425.645L576.144 431.409C577.215 432.028 578.342 432.359 579.524 432.401C580.706 432.401 581.777 432.124 582.738 431.569C583.957 430.864 584.714 430.064 585.01 429.167L594.985 431.921ZM582.531 405.241C587.518 402.359 592.469 400.822 597.382 400.63C602.259 400.416 607.043 401.665 611.734 404.376L628.414 414.014L618.606 419.681L614.727 417.44C616.131 420.001 614.634 422.552 610.238 425.092C607.911 426.437 605.491 427.366 602.979 427.878C600.467 428.39 598.084 428.508 595.83 428.23C593.577 427.91 591.564 427.238 589.79 426.213C586.946 424.57 585.837 422.67 586.465 420.514C587.056 418.336 589.624 415.935 594.168 413.309L600.153 409.851C596.791 408.122 593.078 408.432 589.014 410.78C587.574 411.612 586.355 412.594 585.357 413.726C584.323 414.836 583.695 415.924 583.473 416.992L572.778 414.91C573.332 413.309 574.496 411.655 576.269 409.947C578.042 408.197 580.13 406.628 582.531 405.241ZM606.525 419.553C607.745 418.849 608.52 418.059 608.853 417.184C609.185 416.309 608.982 415.423 608.243 414.526L605.639 413.021L601.095 415.647C598.029 417.419 597.511 418.891 599.543 420.065C600.467 420.599 601.557 420.823 602.813 420.738C604.069 420.653 605.306 420.258 606.525 419.553ZM651.342 401.343C648.017 403.264 644.378 404.598 640.425 405.345C636.472 406.092 632.575 406.21 628.732 405.697C624.927 405.164 621.529 404.032 618.536 402.303C615.544 400.574 613.604 398.621 612.718 396.444C611.831 394.224 612.053 391.982 613.383 389.72C614.676 387.436 616.985 385.333 620.309 383.412C623.708 381.448 627.384 380.178 631.337 379.602C635.253 379.004 639.021 379.153 642.642 380.05L638.652 387.158C634.588 386.39 631.245 386.763 628.622 388.279C626.738 389.367 625.795 390.638 625.795 392.089C625.832 393.519 626.959 394.875 629.176 396.156C631.429 397.458 633.812 398.13 636.324 398.173C638.836 398.173 641.035 397.628 642.919 396.54C645.542 395.024 646.188 393.092 644.858 390.744L657.16 388.439C658.712 390.531 658.989 392.719 657.991 395.003C656.957 397.266 654.74 399.379 651.342 401.343ZM671.877 376.733L671.933 380.351L679.303 384.61L668.774 390.694L627.657 366.935L638.185 360.852L659.742 373.307L660.019 361.044L672.487 353.84L672.875 368.472L703.575 370.586L690.829 377.95L671.877 376.733Z" fill="#FBFBFB"/>
<path d="M450.729 403.863L451.594 403.363L450.729 402.863L449.863 403.363L450.729 403.863ZM438.814 410.747L437.949 411.247L438.814 411.748L439.68 411.247L438.814 410.747ZM430.114 405.72L429.248 405.22L428.383 405.72L429.248 406.221L430.114 405.72ZM464.859 385.644L465.725 385.144L464.859 384.644L463.993 385.144L464.859 385.644ZM473.559 390.671L474.425 391.172L475.291 390.671L474.425 390.171L473.559 390.671ZM461.701 397.523L460.835 397.023L459.969 397.523L460.835 398.024L461.701 397.523ZM491.791 414.91L492.657 415.41L493.523 414.91L492.657 414.409L491.791 414.91ZM480.819 421.249L479.953 421.75L480.819 422.25L481.685 421.75L480.819 421.249ZM449.863 403.363L437.949 410.247L439.68 411.247L451.594 404.363L449.863 403.363ZM439.68 410.247L430.98 405.22L429.248 406.221L437.949 411.247L439.68 410.247ZM430.98 406.221L465.725 386.145L463.993 385.144L429.248 405.22L430.98 406.221ZM463.993 386.145L472.694 391.172L474.425 390.171L465.725 385.144L463.993 386.145ZM472.694 390.171L460.835 397.023L462.567 398.024L474.425 391.172L472.694 390.171ZM460.835 398.024L490.925 415.41L492.657 414.409L462.567 397.023L460.835 398.024ZM490.925 414.409L479.953 420.749L481.685 421.75L492.657 415.41L490.925 414.409ZM481.685 420.749L451.594 403.363L449.863 404.363L479.953 421.75L481.685 420.749ZM522.384 382.952L523.25 383.452L524.06 382.984L523.306 382.486L522.384 382.952ZM500.551 395.568L499.685 395.067L498.537 395.731L499.956 396.186L500.551 395.568ZM506.702 396.176L506.934 396.871L506.954 396.868L506.974 396.866L506.702 396.176ZM515.845 391.597L514.728 391.307L514.723 391.315L515.845 391.597ZM517.064 388.588L517.088 387.88L515.929 387.867L515.843 388.535L517.064 388.588ZM528.369 388.716L529.592 388.678L529.53 388.021L528.393 388.008L528.369 388.716ZM509.195 403.124L508.808 402.453L509.195 403.124ZM497.447 403.508L497.159 404.196L497.172 404.198L497.447 403.508ZM481.433 394.319L480.243 394.486L480.244 394.489L481.433 394.319ZM481.821 387.691L480.65 387.483L480.65 387.483L481.821 387.691ZM498.334 378.021L498.707 378.695L498.721 378.692L498.334 378.021ZM509.472 377.797L509.17 378.483L509.181 378.484L509.192 378.486L509.472 377.797ZM493.125 389.1L491.906 389.036L491.905 389.042L491.904 389.048L493.125 389.1ZM494.843 392.462L493.833 392.862L494.667 393.564L495.709 392.962L494.843 392.462ZM507.145 385.354L508.011 385.854L509.053 385.252L507.838 384.77L507.145 385.354ZM501.271 384.393L501.361 385.099L501.372 385.098L501.382 385.098L501.271 384.393ZM519.08 381.852C519.066 381.843 519.098 381.863 519.225 381.945C519.333 382.016 519.489 382.118 519.691 382.251C520.097 382.517 520.687 382.906 521.462 383.418L523.306 382.486C521.784 381.481 520.924 380.916 520.812 380.851L519.08 381.852ZM521.518 382.452L499.685 395.067L501.417 396.068L523.25 383.452L521.518 382.452ZM499.956 396.186C502.185 396.902 504.526 397.139 506.934 396.871L506.47 395.481C504.665 395.683 502.906 395.514 501.145 394.949L499.956 396.186ZM506.974 396.866C509.356 396.552 511.565 395.775 513.608 394.595L511.876 393.594C510.076 394.634 508.259 395.245 506.429 395.486L506.974 396.866ZM513.608 394.595C515.126 393.718 516.263 392.814 516.968 391.88L514.723 391.315C514.171 392.046 513.239 392.807 511.876 393.594L513.608 394.595ZM516.962 391.888C517.697 390.943 518.129 389.856 518.285 388.64L515.843 388.535C515.703 389.624 515.323 390.544 514.728 391.307L516.962 391.888ZM517.04 389.295L528.345 389.423L528.393 388.008L517.088 387.88L517.04 389.295ZM527.146 388.754C527.455 392.064 525.023 395.284 519.579 398.429L521.31 399.43C527.097 396.086 529.948 392.497 529.592 388.678L527.146 388.754ZM519.579 398.429C516.179 400.393 512.588 401.725 508.808 402.453L509.583 403.795C513.782 402.986 517.69 401.522 521.31 399.43L519.579 398.429ZM508.808 402.453C505.017 403.183 501.331 403.3 497.723 402.819L497.172 404.198C501.248 404.741 505.394 404.602 509.583 403.795L508.808 402.453ZM497.736 402.821C494.167 402.32 490.964 401.259 488.117 399.614L486.385 400.615C489.523 402.428 493.117 403.629 497.159 404.196L497.736 402.821ZM488.117 399.614C485.305 397.989 483.487 396.169 482.621 394.149L480.244 394.489C481.226 396.781 483.286 398.824 486.385 400.615L488.117 399.614ZM482.623 394.152C481.752 392.081 481.872 390.001 482.991 387.899L480.65 387.483C479.405 389.821 479.266 392.16 480.243 394.486L482.623 394.152ZM482.991 387.899C484.108 385.801 486.156 383.881 489.17 382.14L487.438 381.139C484.172 383.026 481.897 385.141 480.65 387.483L482.991 387.899ZM489.17 382.14C492.037 380.483 495.215 379.341 498.707 378.695L497.961 377.347C494.064 378.068 490.556 379.338 487.438 381.139L489.17 382.14ZM498.721 378.692C502.154 378.031 505.627 377.961 509.17 378.483L509.775 377.111C505.781 376.523 501.829 376.602 497.947 377.35L498.721 378.692ZM509.192 378.486C512.702 378.963 515.998 380.071 519.08 381.852L520.812 380.851C517.465 378.917 513.779 377.656 509.753 377.108L509.192 378.486ZM494.975 385.43C493.174 386.47 492.12 387.676 491.906 389.036L494.345 389.164C494.5 388.176 495.256 387.268 496.706 386.43L494.975 385.43ZM491.904 389.048C491.733 390.383 492.406 391.661 493.833 392.862L495.853 392.061C494.693 391.086 494.222 390.122 494.346 389.152L491.904 389.048ZM495.709 392.962L508.011 385.854L506.279 384.853L493.977 391.962L495.709 392.962ZM507.838 384.77C505.749 383.942 503.511 383.565 501.16 383.688L501.382 385.098C503.095 385.008 504.773 385.271 506.452 385.937L507.838 384.77ZM501.181 383.687C498.85 383.787 496.775 384.389 494.975 385.43L496.706 386.43C498.157 385.592 499.702 385.17 501.361 385.099L501.181 383.687ZM544.694 382.613L545.075 383.285L544.694 382.613ZM533.002 382.965L532.713 383.653L532.726 383.654L533.002 382.965ZM516.987 373.711L515.794 373.871L515.795 373.873L516.987 373.711ZM517.652 366.987L518.811 367.215L518.816 367.207L517.652 366.987ZM535.606 356.869L535.906 357.555L535.919 357.553L535.606 356.869ZM546.911 357.318L548.075 357.536L548.42 356.922L547.393 356.667L546.911 357.318ZM542.921 364.426L542.54 365.098L543.707 365.319L544.086 364.644L542.921 364.426ZM530.065 369.357L528.84 369.357L528.84 369.362L528.84 369.367L530.065 369.357ZM540.593 375.44L540.557 376.148L540.575 376.148L540.593 376.148V375.44ZM549.127 368.012L548.749 367.339L547.582 367.558L547.963 368.232L549.127 368.012ZM561.429 365.707L562.555 365.428L562.115 364.834L561.051 365.034L561.429 365.707ZM562.26 372.271L563.444 372.451L563.448 372.444L562.26 372.271ZM554.745 378.11C551.538 379.963 548.061 381.232 544.313 381.94L545.075 383.285C549.233 382.499 553.034 381.1 556.477 379.111L554.745 378.11ZM544.313 381.94C540.56 382.65 536.89 382.757 533.277 382.276L532.726 383.654C536.798 384.197 540.922 384.07 545.075 383.285L544.313 381.94ZM533.29 382.277C529.721 381.777 526.518 380.715 523.671 379.071L521.939 380.071C525.077 381.884 528.672 383.086 532.713 383.652L533.29 382.277ZM523.671 379.071C520.824 377.426 519.008 375.587 518.179 373.549L515.795 373.873C516.738 376.191 518.802 378.258 521.939 380.071L523.671 379.071ZM518.18 373.552C517.347 371.467 517.551 369.359 518.811 367.215L516.492 366.76C515.093 369.141 514.853 371.516 515.794 373.871L518.18 373.552ZM518.816 367.207C520.041 365.042 522.238 363.033 525.444 361.18L523.713 360.179C520.27 362.169 517.848 364.365 516.488 366.767L518.816 367.207ZM525.444 361.18C528.715 359.29 532.203 358.095 535.906 357.555L535.306 356.183C531.104 356.796 527.239 358.142 523.713 360.179L525.444 361.18ZM535.919 357.553C539.579 356.995 543.066 357.135 546.428 357.968L547.393 356.667C543.514 355.707 539.465 355.549 535.293 356.185L535.919 357.553ZM545.746 357.099L541.756 364.208L544.086 364.644L548.075 357.536L545.746 357.099ZM543.302 363.753C541.122 363.341 539.055 363.22 537.133 363.435C535.2 363.651 533.493 364.198 532.025 365.046L533.757 366.047C534.911 365.38 536.188 364.982 537.598 364.824C539.019 364.666 540.656 364.742 542.54 365.098L543.302 363.753ZM532.025 365.046C529.927 366.259 528.84 367.705 528.84 369.357L531.289 369.357C531.289 368.105 532.087 367.012 533.757 366.047L532.025 365.046ZM528.84 369.367C528.883 371.027 530.2 372.549 532.579 373.924L534.311 372.923C532.257 371.736 531.32 370.547 531.289 369.346L528.84 369.367ZM532.579 373.924C534.992 375.318 537.656 376.098 540.557 376.148L540.629 374.733C538.507 374.697 536.405 374.133 534.311 372.923L532.579 373.924ZM540.593 376.148C543.451 376.148 545.955 375.52 548.054 374.308L546.322 373.307C544.652 374.272 542.759 374.733 540.593 374.733V376.148ZM548.054 374.308C549.522 373.459 550.468 372.473 550.842 371.356C551.214 370.246 551.004 369.052 550.291 367.792L547.963 368.232C548.58 369.321 548.712 370.266 548.438 371.088C548.165 371.902 547.477 372.64 546.322 373.307L548.054 374.308ZM549.505 368.685L561.807 366.38L561.051 365.034L548.749 367.339L549.505 368.685ZM560.304 365.985C561.746 367.929 562.007 369.958 561.073 372.097L563.448 372.444C564.508 370.015 564.216 367.668 562.555 365.428L560.304 365.985ZM561.077 372.09C560.107 374.211 558.019 376.218 554.745 378.11L556.477 379.111C560 377.075 562.345 374.856 563.444 372.451L561.077 372.09ZM574.373 335.75L574.383 336.458L574.393 336.457L574.373 335.75ZM605.018 349.486L605.883 349.987L606.749 349.486L605.883 348.986L605.018 349.486ZM594.489 355.57L593.623 356.07L594.489 356.57L595.355 356.07L594.489 355.57ZM565.341 349.486L564.117 349.509L564.117 349.515L564.118 349.521L565.341 349.486ZM583.572 361.878L584.438 362.378L585.304 361.878L584.438 361.377L583.572 361.878ZM573.043 367.961L572.178 368.462L573.043 368.962L573.909 368.462L573.043 367.961ZM531.926 344.203L531.06 343.703L530.194 344.203L531.06 344.703L531.926 344.203ZM542.454 338.119L543.32 337.619L542.454 337.119L541.589 337.619L542.454 338.119ZM556.308 346.124L555.442 346.625L557.438 347.778L557.532 346.148L556.308 346.124ZM557.915 342.378L556.809 342.075L557.915 342.378ZM562.937 339.516C566.485 337.466 570.292 336.477 574.383 336.458L574.363 335.043C569.515 335.066 565.12 336.254 561.205 338.516L562.937 339.516ZM574.393 336.457C578.454 336.419 582.641 337.558 586.973 340.061L588.705 339.06C584.096 336.397 579.307 334.996 574.353 335.043L574.393 336.457ZM586.973 340.061L604.152 349.987L605.883 348.986L588.705 339.06L586.973 340.061ZM604.152 348.986L593.623 355.07L595.355 356.07L605.883 349.987L604.152 348.986ZM595.355 355.07L579.894 346.136L578.162 347.137L593.623 356.07L595.355 355.07ZM579.894 346.136C577.751 344.898 575.557 344.123 573.316 343.98C571.008 343.833 568.914 344.372 567.079 345.432L568.811 346.432C570.265 345.593 571.661 345.299 573.048 345.387C574.501 345.479 576.205 346.006 578.162 347.137L579.894 346.136ZM567.079 345.432C565.061 346.598 564.031 347.966 564.117 349.509L566.565 349.463C566.503 348.359 567.209 347.358 568.811 346.432L567.079 345.432ZM564.118 349.521C564.249 351.067 565.71 352.557 568.188 353.989L569.919 352.988C567.669 351.688 566.654 350.51 566.564 349.451L564.118 349.521ZM568.188 353.989L582.706 362.378L584.438 361.377L569.919 352.988L568.188 353.989ZM582.706 361.377L572.178 367.461L573.909 368.462L584.438 362.378L582.706 361.377ZM573.909 367.461L532.792 343.703L531.06 344.703L572.178 368.462L573.909 367.461ZM532.792 344.703L543.32 338.62L541.589 337.619L531.06 343.703L532.792 344.703ZM541.589 338.62L555.442 346.625L557.174 345.624L543.32 337.619L541.589 338.62ZM557.532 346.148C557.6 344.969 558.092 343.815 559.022 342.681L556.809 342.075C555.743 343.375 555.164 344.718 555.084 346.101L557.532 346.148ZM559.022 342.681C559.955 341.543 561.256 340.488 562.937 339.516L561.205 338.516C559.34 339.593 557.871 340.78 556.809 342.075L559.022 342.681ZM544.199 462.226L543.582 461.615L544.199 462.226ZM533.892 464.595L532.749 464.849L533.111 465.393L534.105 465.292L533.892 464.595ZM529.403 457.839L529.157 457.146L527.743 457.314L528.26 458.093L529.403 457.839ZM538.214 455.95L537.64 455.325L538.214 455.95ZM544.92 446.825L545.336 447.49L545.357 447.486L545.379 447.481L544.92 446.825ZM537.439 449.162L536.781 448.565L536.774 448.568L537.439 449.162ZM528.129 452.236L528.633 452.881L528.643 452.878L528.652 452.876L528.129 452.236ZM506.628 445.832L507.832 445.703L507.83 445.696L506.628 445.832ZM507.847 439.877L506.71 439.614L506.708 439.617L507.847 439.877ZM524.084 429.598L524.725 430.201L524.732 430.199L524.739 430.196L524.084 429.598ZM533.116 427.261L534.248 426.991L533.841 426.422L532.809 426.576L533.116 427.261ZM537.882 433.921L538.232 434.599L539.532 434.375L539.014 433.651L537.882 433.921ZM520.371 441.734L521.565 441.89L521.568 441.881L521.572 441.872L520.371 441.734ZM525.469 444.359L525.915 445.018L525.915 445.018L525.469 444.359ZM532.784 441.99L532.117 441.396L532.116 441.397L532.784 441.99ZM542.149 438.948L542.646 439.595L542.659 439.591L542.672 439.588L542.149 438.948ZM550.627 438.019L550.552 438.726L550.567 438.726L550.582 438.726L550.627 438.019ZM563.539 445.224L562.335 445.353L563.539 445.224ZM562.264 451.211L563.401 451.474L563.407 451.466L562.264 451.211ZM553.64 457.115C550.572 458.888 547.22 460.387 543.582 461.615L544.817 462.837C548.641 461.546 552.16 459.971 555.372 458.115L553.64 457.115ZM543.582 461.615C539.934 462.846 536.636 463.597 533.679 463.898L534.105 465.292C537.428 464.953 541.002 464.124 544.817 462.837L543.582 461.615ZM535.035 464.342L530.547 457.586L528.26 458.093L532.749 464.849L535.035 464.342ZM529.65 458.532C532.661 458.175 535.708 457.52 538.789 456.575L537.64 455.325C534.736 456.216 531.909 456.82 529.157 457.146L529.65 458.532ZM538.789 456.575C541.88 455.627 544.584 454.487 546.894 453.152L545.162 452.152C543.038 453.379 540.534 454.438 537.64 455.325L538.789 456.575ZM546.894 453.152C549.044 451.91 550.521 450.751 551.138 449.682C551.452 449.137 551.557 448.591 551.374 448.065C551.19 447.533 550.73 447.068 550.052 446.677L548.321 447.677C548.696 447.894 548.894 448.114 548.973 448.342C549.054 448.576 549.026 448.867 548.814 449.234C548.379 449.99 547.224 450.961 545.162 452.152L546.894 453.152ZM550.052 446.677C549.329 446.259 548.459 445.99 547.462 445.908C546.481 445.827 545.47 445.933 544.461 446.169L545.379 447.481C546.106 447.311 546.673 447.272 547.115 447.309C547.54 447.344 547.936 447.455 548.321 447.677L550.052 446.677ZM544.503 446.159C542.633 446.55 540.045 447.365 536.781 448.565L538.096 449.759C541.335 448.568 543.734 447.825 545.336 447.49L544.503 446.159ZM536.774 448.568C533.255 449.881 530.201 450.888 527.606 451.596L528.652 452.876C531.376 452.132 534.529 451.09 538.103 449.756L536.774 448.568ZM527.625 451.591C525.112 452.247 522.467 452.526 519.671 452.426L519.52 453.839C522.708 453.952 525.752 453.633 528.633 452.881L527.625 451.591ZM519.671 452.426C517.05 452.333 514.472 451.605 511.927 450.135L510.195 451.135C513.044 452.781 516.155 453.719 519.52 453.839L519.671 452.426ZM511.927 450.135C509.731 448.866 508.376 447.393 507.832 445.703L505.424 445.961C506.062 447.943 507.663 449.672 510.195 451.135L511.927 450.135ZM507.83 445.696C507.255 443.996 507.614 442.149 508.986 440.136L506.708 439.617C505.199 441.831 504.745 443.954 505.426 445.968L507.83 445.696ZM508.984 440.139C510.384 438.118 512.876 436.05 516.527 433.941L514.795 432.94C510.983 435.143 508.266 437.366 506.71 439.614L508.984 440.139ZM516.527 433.941C519.008 432.507 521.74 431.261 524.725 430.201L523.443 428.996C520.295 430.113 517.411 431.428 514.795 432.94L516.527 433.941ZM524.739 430.196C527.678 429.119 530.572 428.373 533.424 427.946L532.809 426.576C529.675 427.046 526.548 427.858 523.428 429.001L524.739 430.196ZM531.985 427.531L536.75 434.191L539.014 433.651L534.248 426.991L531.985 427.531ZM537.531 433.243C531.688 434.252 526.917 435.798 523.273 437.903L525.005 438.904C528.307 436.996 532.697 435.554 538.232 434.599L537.531 433.243ZM523.273 437.903C521.044 439.192 519.575 440.425 519.17 441.595L521.572 441.872C521.832 441.121 522.875 440.134 525.005 438.904L523.273 437.903ZM519.177 441.577C518.73 442.714 519.125 443.743 520.503 444.539L522.234 443.539C521.543 443.139 521.273 442.632 521.565 441.89L519.177 441.577ZM520.503 444.539C521.197 444.941 522.04 445.193 523.005 445.268C523.951 445.342 524.932 445.24 525.915 445.018L525.023 443.7C524.307 443.862 523.754 443.899 523.333 443.866C522.932 443.835 522.574 443.735 522.234 443.539L520.503 444.539ZM525.915 445.018C527.738 444.606 530.263 443.783 533.452 442.583L532.116 441.397C528.95 442.588 526.599 443.344 525.023 443.7L525.915 445.018ZM533.451 442.583C537.003 441.25 540.065 440.257 542.646 439.595L541.652 438.301C538.912 439.005 535.732 440.04 532.117 441.396L533.451 442.583ZM542.672 439.588C545.141 438.914 547.761 438.626 550.552 438.726L550.703 437.313C547.509 437.199 544.476 437.531 541.626 438.308L542.672 439.588ZM550.582 438.726C553.188 438.782 555.755 439.485 558.295 440.953L560.027 439.953C557.174 438.304 554.052 437.385 550.673 437.312L550.582 438.726ZM558.295 440.953C560.451 442.199 561.79 443.661 562.335 445.353L564.743 445.094C564.106 443.115 562.526 441.396 560.027 439.953L558.295 440.953ZM562.335 445.353C562.876 447.033 562.5 448.894 561.122 450.956L563.407 451.466C564.91 449.217 565.384 447.086 564.743 445.094L562.335 445.353ZM561.127 450.949C559.727 452.971 557.252 455.028 553.64 457.115L555.372 458.115C559.149 455.933 561.846 453.721 563.401 451.474L561.127 450.949ZM594.985 431.921L596.178 432.08L596.398 431.527L595.512 431.283L594.985 431.921ZM592.99 434.547L591.953 434.17L591.948 434.174L592.99 434.547ZM577.473 440.694L577.53 441.401L577.473 440.694ZM555.64 431.729L556.506 431.229L555.64 430.728L554.774 431.229L555.64 431.729ZM551.262 434.258L550.397 434.759L551.262 435.259L552.128 434.759L551.262 434.258ZM543.394 429.712L542.528 429.211L541.662 429.712L542.528 430.212L543.394 429.712ZM547.771 427.182L548.637 427.683L549.503 427.182L548.637 426.682L547.771 427.182ZM539.958 422.668L539.092 422.167L538.226 422.668L539.092 423.168L539.958 422.668ZM550.487 416.584L551.352 416.084L550.487 415.583L549.621 416.084L550.487 416.584ZM558.3 421.099L557.434 421.599L558.3 422.099L559.166 421.599L558.3 421.099ZM565.171 417.128L566.037 416.628L565.171 416.128L564.306 416.628L565.171 417.128ZM573.04 421.675L573.906 422.175L574.772 421.675L573.906 421.175L573.04 421.675ZM566.169 425.645L565.303 425.145L564.437 425.645L565.303 426.146L566.169 425.645ZM579.524 432.401L579.447 433.107L579.486 433.109L579.524 433.109L579.524 432.401ZM585.01 429.167L585.538 428.529L584.104 428.133L583.807 429.035L585.01 429.167ZM593.791 431.762C593.497 432.5 592.896 433.302 591.953 434.17L594.027 434.923C595.078 433.955 595.807 433.007 596.178 432.08L593.791 431.762ZM591.948 434.174C591.043 435.019 589.903 435.842 588.522 436.64L590.253 437.64C591.753 436.774 593.015 435.867 594.031 434.919L591.948 434.174ZM588.522 436.64C584.74 438.825 581.041 439.891 577.417 439.987L577.53 441.401C581.96 441.284 586.203 439.981 590.253 437.64L588.522 436.64ZM577.417 439.987C573.839 440.082 570.239 439.163 566.591 437.056L564.86 438.057C568.823 440.347 573.054 441.52 577.53 441.401L577.417 439.987ZM566.591 437.056L556.506 431.229L554.774 432.229L564.86 438.057L566.591 437.056ZM554.774 431.229L550.397 433.758L552.128 434.759L556.506 432.229L554.774 431.229ZM552.128 433.758L544.259 429.211L542.528 430.212L550.397 434.759L552.128 433.758ZM544.259 430.212L548.637 427.683L546.905 426.682L542.528 429.211L544.259 430.212ZM548.637 426.682L540.824 422.167L539.092 423.168L546.905 427.683L548.637 426.682ZM540.824 423.168L551.352 417.084L549.621 416.084L539.092 422.167L540.824 423.168ZM549.621 417.084L557.434 421.599L559.166 420.598L551.352 416.084L549.621 417.084ZM559.166 421.599L566.037 417.629L564.306 416.628L557.434 420.598L559.166 421.599ZM564.306 417.629L572.174 422.175L573.906 421.175L566.037 416.628L564.306 417.629ZM572.174 421.175L565.303 425.145L567.035 426.146L573.906 422.175L572.174 421.175ZM565.303 426.146L575.278 431.909L577.009 430.908L567.035 425.145L565.303 426.146ZM575.278 431.909C576.499 432.615 577.892 433.051 579.447 433.107L579.6 431.695C578.791 431.666 577.93 431.441 577.009 430.908L575.278 431.909ZM579.524 433.109C581.08 433.109 582.451 432.735 583.604 432.069L581.872 431.069C581.104 431.512 580.332 431.694 579.524 431.694L579.524 433.109ZM583.604 432.069C584.98 431.274 585.867 430.349 586.213 429.3L583.807 429.035C583.562 429.779 582.934 430.455 581.872 431.069L583.604 432.069ZM584.482 429.806L594.457 432.559L595.512 431.283L585.538 428.529L584.482 429.806ZM597.382 400.63L597.465 401.336L597.475 401.335L597.382 400.63ZM628.414 414.014L629.28 414.514L630.146 414.014L629.28 413.514L628.414 414.014ZM618.606 419.681L617.74 420.182L618.606 420.682L619.472 420.182L618.606 419.681ZM614.727 417.44L615.593 416.94L613.559 417.654L614.727 417.44ZM602.979 427.878L603.386 428.545L602.979 427.878ZM595.83 428.23L595.538 428.917L595.557 428.92L595.575 428.922L595.83 428.23ZM586.465 420.514L587.673 420.631L587.675 420.623L586.465 420.514ZM600.153 409.851L601.019 410.352L601.936 409.821L600.967 409.323L600.153 409.851ZM585.357 413.726L586.435 414.061L586.442 414.054L586.448 414.047L585.357 413.726ZM583.473 416.992L583.082 417.662L584.509 417.94L584.689 417.076L583.473 416.992ZM572.778 414.91L571.577 414.772L571.366 415.382L572.387 415.581L572.778 414.91ZM576.269 409.947L577.319 410.312L577.326 410.305L576.269 409.947ZM608.853 417.184L610.049 417.335L608.853 417.184ZM608.243 414.526L609.349 414.222L609.258 414.112L609.109 414.026L608.243 414.526ZM605.639 413.021L606.505 412.521L605.639 412.021L604.773 412.521L605.639 413.021ZM602.813 420.738L602.956 421.441L602.813 420.738ZM583.397 405.741C588.264 402.929 592.952 401.512 597.465 401.336L597.299 399.924C591.985 400.132 586.773 401.789 581.665 404.74L583.397 405.741ZM597.475 401.335C601.88 401.143 606.334 402.257 610.869 404.876L612.6 403.876C607.751 401.074 602.637 399.69 597.29 399.924L597.475 401.335ZM610.869 404.876L627.548 414.514L629.28 413.514L612.6 403.876L610.869 404.876ZM627.548 413.514L617.74 419.181L619.472 420.182L629.28 414.514L627.548 413.514ZM619.472 419.181L615.593 416.94L613.861 417.94L617.74 420.182L619.472 419.181ZM613.559 417.654C614.779 419.878 613.572 422.166 609.372 424.592L611.104 425.593C615.697 422.939 617.483 420.125 615.894 417.226L613.559 417.654ZM609.372 424.592C607.145 425.879 604.875 426.741 602.571 427.211L603.386 428.545C606.107 427.991 608.677 426.995 611.104 425.593L609.372 424.592ZM602.571 427.211C600.238 427.687 598.086 427.785 596.086 427.538L595.575 428.922C598.082 429.231 600.695 429.094 603.386 428.545L602.571 427.211ZM596.123 427.543C594.104 427.256 592.285 426.654 590.656 425.713L588.924 426.713C590.843 427.822 593.05 428.564 595.538 428.917L596.123 427.543ZM590.656 425.713C588.071 424.219 587.115 422.545 587.673 420.631L585.258 420.396C584.559 422.794 585.821 424.92 588.924 426.713L590.656 425.713ZM587.675 420.623C588.207 418.665 590.56 416.395 595.034 413.81L593.302 412.809C588.688 415.475 585.906 418.008 585.256 420.404L587.675 420.623ZM595.034 413.81L601.019 410.352L599.287 409.351L593.302 412.809L595.034 413.81ZM600.967 409.323C599.076 408.35 596.958 407.896 594.672 408.087C592.448 408.272 590.274 409.052 588.149 410.28L589.88 411.28C591.819 410.16 593.533 409.611 595.022 409.487C596.449 409.368 597.868 409.624 599.339 410.38L600.967 409.323ZM588.149 410.28C586.61 411.169 585.317 412.212 584.266 413.405L586.448 414.047C587.392 412.977 588.537 412.056 589.88 411.28L588.149 410.28ZM584.279 413.39C583.184 414.565 582.5 415.738 582.257 416.907L584.689 417.076C584.889 416.11 585.461 415.106 586.435 414.061L584.279 413.39ZM583.864 416.321L573.169 414.24L572.387 415.581L583.082 417.662L583.864 416.321ZM573.979 415.049C574.5 413.543 575.603 411.964 577.319 410.311L575.219 409.583C573.389 411.346 572.164 413.076 571.577 414.772L573.979 415.049ZM577.326 410.305C579.048 408.605 581.072 407.084 583.397 405.741L581.665 404.74C579.187 406.172 577.037 407.789 575.212 409.59L577.326 410.305ZM607.391 420.053C608.757 419.265 609.661 418.357 610.049 417.335L607.657 417.032C607.38 417.761 606.732 418.433 605.66 419.053L607.391 420.053ZM610.049 417.335C610.446 416.29 610.191 415.244 609.349 414.222L607.138 414.83C607.773 415.601 607.925 416.327 607.657 417.032L610.049 417.335ZM609.109 414.026L606.505 412.521L604.773 413.522L607.377 415.026L609.109 414.026ZM604.773 412.521L600.229 415.147L601.961 416.147L606.505 413.522L604.773 412.521ZM600.229 415.147C598.628 416.072 597.536 417.003 597.207 417.94C596.857 418.936 597.407 419.832 598.677 420.566L600.409 419.565C599.648 419.125 599.44 418.698 599.607 418.221C599.796 417.684 600.496 416.994 601.961 416.147L600.229 415.147ZM598.677 420.566C599.856 421.247 601.314 421.552 602.956 421.441L602.67 420.035C601.8 420.094 601.078 419.952 600.409 419.565L598.677 420.566ZM602.956 421.441C604.57 421.331 606.048 420.83 607.391 420.053L605.66 419.053C604.565 419.685 603.568 419.974 602.67 420.035L602.956 421.441ZM640.425 405.345L640.806 406.017L640.425 405.345ZM628.732 405.697L628.444 406.385L628.457 406.387L628.732 405.697ZM612.718 396.444L611.524 396.603L611.526 396.606L612.718 396.444ZM613.383 389.72L614.542 389.947L614.546 389.94L613.383 389.72ZM631.337 379.602L631.637 380.288L631.65 380.286L631.337 379.602ZM642.642 380.05L643.806 380.268L644.151 379.654L643.124 379.4L642.642 380.05ZM638.652 387.158L638.271 387.831L639.438 388.051L639.816 387.376L638.652 387.158ZM625.795 392.089H624.571L624.571 392.094L624.571 392.1L625.795 392.089ZM636.324 398.173L636.288 398.88L636.306 398.88H636.324V398.173ZM644.858 390.744L644.48 390.071L643.312 390.29L643.694 390.964L644.858 390.744ZM657.16 388.439L658.286 388.16L657.845 387.567L656.782 387.766L657.16 388.439ZM657.991 395.003L659.175 395.184L659.179 395.176L657.991 395.003ZM650.476 400.842C647.269 402.695 643.792 403.964 640.044 404.673L640.806 406.017C644.964 405.231 648.764 403.832 652.207 401.843L650.476 400.842ZM640.044 404.673C636.291 405.382 632.621 405.49 629.008 405.008L628.457 406.387C632.529 406.929 636.653 406.802 640.806 406.017L640.044 404.673ZM629.021 405.01C625.452 404.509 622.249 403.448 619.402 401.803L617.67 402.803C620.808 404.617 624.402 405.818 628.444 406.385L629.021 405.01ZM619.402 401.803C616.555 400.158 614.739 398.319 613.91 396.282L611.526 396.606C612.469 398.923 614.532 400.99 617.67 402.803L619.402 401.803ZM613.911 396.285C613.078 394.199 613.282 392.092 614.542 389.947L612.223 389.492C610.824 391.873 610.584 394.248 611.524 396.603L613.911 396.285ZM614.546 389.94C615.772 387.774 617.969 385.765 621.175 383.912L619.444 382.912C616.001 384.901 613.579 387.097 612.219 389.5L614.546 389.94ZM621.175 383.912C624.446 382.022 627.934 380.828 631.637 380.288L631.037 378.916C626.834 379.528 622.97 380.874 619.444 382.912L621.175 383.912ZM631.65 380.286C635.31 379.727 638.797 379.868 642.159 380.7L643.124 379.4C639.245 378.439 635.196 378.281 631.024 378.918L631.65 380.286ZM641.477 379.832L637.487 386.94L639.816 387.376L643.806 380.268L641.477 379.832ZM639.033 386.486C636.853 386.073 634.786 385.953 632.864 386.167C630.931 386.383 629.224 386.93 627.756 387.779L629.487 388.779C630.642 388.112 631.919 387.714 633.329 387.557C634.75 387.398 636.387 387.474 638.271 387.831L639.033 386.486ZM627.756 387.779C625.657 388.991 624.571 390.438 624.571 392.089H627.02C627.02 390.837 627.818 389.744 629.487 388.779L627.756 387.779ZM624.571 392.1C624.614 393.759 625.931 395.281 628.31 396.656L630.042 395.655C627.987 394.468 627.051 393.279 627.02 392.079L624.571 392.1ZM628.31 396.656C630.723 398.05 633.387 398.831 636.288 398.88L636.36 397.465C634.238 397.429 632.136 396.865 630.042 395.655L628.31 396.656ZM636.324 398.88C639.182 398.88 641.686 398.252 643.784 397.04L642.053 396.039C640.383 397.004 638.49 397.465 636.324 397.465V398.88ZM643.784 397.04C645.253 396.192 646.199 395.206 646.573 394.089C646.945 392.978 646.735 391.784 646.022 390.524L643.694 390.964C644.311 392.053 644.443 392.999 644.168 393.82C643.896 394.635 643.208 395.372 642.053 396.039L643.784 397.04ZM645.236 391.417L657.538 389.112L656.782 387.766L644.48 390.071L645.236 391.417ZM656.035 388.718C657.477 390.662 657.738 392.69 656.804 394.83L659.179 395.176C660.239 392.747 659.947 390.4 658.286 388.16L656.035 388.718ZM656.807 394.822C655.838 396.943 653.75 398.95 650.476 400.842L652.207 401.843C655.731 399.807 658.076 397.588 659.175 395.184L656.807 394.822ZM671.877 376.733L672.013 376.03L670.641 375.942L670.653 376.739L671.877 376.733ZM671.933 380.351L670.708 380.358L670.713 380.647L671.067 380.852L671.933 380.351ZM679.303 384.61L680.169 385.11L681.035 384.61L680.169 384.11L679.303 384.61ZM668.774 390.694L667.908 391.194L668.774 391.694L669.64 391.194L668.774 390.694ZM627.657 366.935L626.791 366.435L625.925 366.935L626.791 367.436L627.657 366.935ZM638.185 360.852L639.051 360.351L638.185 359.851L637.32 360.351L638.185 360.852ZM659.742 373.307L658.876 373.807L660.928 374.993L660.966 373.316L659.742 373.307ZM660.019 361.044L659.153 360.544L658.801 360.747L658.794 361.035L660.019 361.044ZM672.487 353.84L673.711 353.829L673.667 352.157L671.621 353.339L672.487 353.84ZM672.875 368.472L671.651 368.483L671.667 369.102L672.73 369.175L672.875 368.472ZM703.575 370.586L704.441 371.086L706.224 370.055L703.72 369.883L703.575 370.586ZM690.829 377.95L690.694 378.653L691.279 378.691L691.695 378.45L690.829 377.95ZM670.653 376.739L670.708 380.358L673.157 380.345L673.102 376.727L670.653 376.739ZM671.067 380.852L678.437 385.11L680.169 384.11L672.799 379.851L671.067 380.852ZM678.437 384.11L667.908 390.193L669.64 391.194L680.169 385.11L678.437 384.11ZM669.64 390.193L628.522 366.435L626.791 367.436L667.908 391.194L669.64 390.193ZM628.522 367.436L639.051 361.352L637.32 360.351L626.791 366.435L628.522 367.436ZM637.32 361.352L658.876 373.807L660.608 372.807L639.051 360.351L637.32 361.352ZM660.966 373.316L661.243 361.053L658.794 361.035L658.517 373.298L660.966 373.316ZM660.885 361.544L673.353 354.34L671.621 353.339L659.153 360.544L660.885 361.544ZM671.263 353.85L671.651 368.483L674.099 368.461L673.711 353.829L671.263 353.85ZM672.73 369.175L703.43 371.288L703.72 369.883L673.02 367.77L672.73 369.175ZM702.709 370.085L689.963 377.45L691.695 378.45L704.441 371.086L702.709 370.085ZM690.965 377.247L672.013 376.03L671.742 377.436L690.694 378.653L690.965 377.247Z" fill="#D67D7D"/>
</g>
</g>
</g>
<g id="NextTile">
<mask id="mask1_29_16" style="mask-type:alpha" maskUnits="userSpaceOnUse" x="698" y="182" width="351" height="204">
<rect id="Rectangle 6" width="208.014" height="208.014" rx="10" transform="matrix(0.866044 0.499967 -0.866044 0.499967 873.149 180)" fill="#F8F8F8"/>
</mask>
<g mask="url(#mask1_29_16)">
<rect id="Rectangle 7" x="736" y="262" width="274" height="158" fill="url(#paint3_linear_29_16)"/>
<g id="Rectangle 6_2" style="mix-blend-mode:lighten">
<rect y="0.499967" width="162.296" height="162.296" rx="9.5" transform="matrix(0.866044 0.499967 -0.866044 0.499967 873.854 180.25)" fill="#FFFEFE"/>
<rect y="0.499967" width="162.296" height="162.296" rx="9.5" transform="matrix(0.866044 0.499967 -0.866044 0.499967 873.854 180.25)" stroke="white"/>
</g>
</g>
</g>
<g id="ReactTile">
<mask id="mask2_29_16" style="mask-type:alpha" maskUnits="userSpaceOnUse" x="716" y="421" width="351" height="204">
<rect id="Rectangle 6_3" width="208.014" height="208.014" rx="10" transform="matrix(0.866044 0.499967 -0.866044 0.499967 891.149 419)" fill="#F8F8F8"/>
</mask>
<g mask="url(#mask2_29_16)">
<rect id="Rectangle 7_2" x="754" y="501" width="274" height="158" fill="url(#paint4_linear_29_16)"/>
<g id="Rectangle 6_4" style="mix-blend-mode:lighten">
<rect y="0.499967" width="162.296" height="162.296" rx="9.5" transform="matrix(0.866044 0.499967 -0.866044 0.499967 891.854 419.25)" fill="#FFFEFE"/>
<rect y="0.499967" width="162.296" height="162.296" rx="9.5" transform="matrix(0.866044 0.499967 -0.866044 0.499967 891.854 419.25)" stroke="white"/>
</g>
</g>
</g>
<g id="HtmlTile">
<mask id="mask3_29_16" style="mask-type:alpha" maskUnits="userSpaceOnUse" x="254" y="479" width="186" height="109">
<rect id="Rectangle 6_5" width="113.007" height="113.007" rx="10" transform="matrix(0.866044 0.499967 -0.866044 0.499967 346.869 477)" fill="#F8F8F8"/>
</mask>
<g mask="url(#mask3_29_16)">
<rect id="Rectangle 7_3" x="275" y="522" width="144" height="85" fill="url(#paint5_linear_29_16)"/>
<g id="Rectangle 6_6" style="mix-blend-mode:lighten">
<rect y="0.499967" width="87.7136" height="87.7136" rx="9.5" transform="matrix(0.866044 0.499967 -0.866044 0.499967 347.45 477.25)" fill="#FFFEFE"/>
<rect y="0.499967" width="87.7136" height="87.7136" rx="9.5" transform="matrix(0.866044 0.499967 -0.866044 0.499967 347.45 477.25)" stroke="white"/>
</g>
</g>
</g>
<g id="CSSTile">
<mask id="mask4_29_16" style="mask-type:alpha" maskUnits="userSpaceOnUse" x="362" y="545" width="186" height="109">
<rect id="Rectangle 6_7" width="113.007" height="113.007" rx="10" transform="matrix(0.866044 0.499967 -0.866044 0.499967 454.869 543)" fill="#F8F8F8"/>
</mask>
<g mask="url(#mask4_29_16)">
<rect id="Rectangle 7_4" x="383" y="588" width="144" height="85" fill="url(#paint6_linear_29_16)"/>
<g id="Rectangle 6_8" style="mix-blend-mode:lighten">
<rect y="0.499967" width="87.7136" height="87.7136" rx="9.5" transform="matrix(0.866044 0.499967 -0.866044 0.499967 455.45 543.25)" fill="#FFFEFE"/>
<rect y="0.499967" width="87.7136" height="87.7136" rx="9.5" transform="matrix(0.866044 0.499967 -0.866044 0.499967 455.45 543.25)" stroke="white"/>
</g>
</g>
</g>
<g id="JavaTile">
<mask id="mask5_29_16" style="mask-type:alpha" maskUnits="userSpaceOnUse" x="585" y="157" width="192" height="112">
<rect id="Rectangle 6_9" width="116.622" height="116.622" rx="10" transform="matrix(0.866044 0.499967 -0.866044 0.499967 681 155)" fill="#F8F8F8"/>
</mask>
<g mask="url(#mask5_29_16)">
<rect id="Rectangle 7_5" x="606.832" y="201.439" width="148.606" height="87.7189" fill="url(#paint7_linear_29_16)"/>
<g id="Rectangle 6_10" style="mix-blend-mode:lighten">
<rect y="0.499967" width="90.5513" height="90.5513" rx="9.5" transform="matrix(0.866044 0.499967 -0.866044 0.499967 681.586 155.25)" fill="#FFFEFE"/>
<rect y="0.499967" width="90.5513" height="90.5513" rx="9.5" transform="matrix(0.866044 0.499967 -0.866044 0.499967 681.586 155.25)" stroke="white"/>
</g>
</g>
</g>
<g id="JSTile">
<mask id="mask6_29_16" style="mask-type:alpha" maskUnits="userSpaceOnUse" x="144" y="412" width="186" height="109">
<rect id="Rectangle 6_11" width="113.007" height="113.007" rx="10" transform="matrix(0.866044 0.499967 -0.866044 0.499967 236.869 410)" fill="#F8F8F8"/>
</mask>
<g mask="url(#mask6_29_16)">
<rect id="Rectangle 7_6" x="165" y="455" width="144" height="85" fill="url(#paint8_linear_29_16)"/>
<g id="Rectangle 6_12" style="mix-blend-mode:lighten">
<rect y="0.499967" width="87.7136" height="87.7136" rx="9.5" transform="matrix(0.866044 0.499967 -0.866044 0.499967 237.45 410.25)" fill="#FFFEFE"/>
<rect y="0.499967" width="87.7136" height="87.7136" rx="9.5" transform="matrix(0.866044 0.499967 -0.866044 0.499967 237.45 410.25)" stroke="white"/>
</g>
<g id="Mask group">
<mask id="mask7_29_16" style="mask-type:alpha" maskUnits="userSpaceOnUse" x="144" y="412" width="186" height="109">
<rect id="Rectangle 6_13" width="113.007" height="113.007" rx="10" transform="matrix(0.866044 0.499967 -0.866044 0.499967 236.869 410)" fill="#F8F8F8"/>
</mask>
<g mask="url(#mask7_29_16)">
<rect id="Rectangle 7_7" x="165" y="455" width="144" height="85" fill="url(#paint9_linear_29_16)"/>
<g id="Rectangle 6_14" style="mix-blend-mode:lighten">
<rect y="0.499967" width="87.7136" height="87.7136" rx="9.5" transform="matrix(0.866044 0.499967 -0.866044 0.499967 237.45 410.25)" fill="#FFFEFE"/>
<rect y="0.499967" width="87.7136" height="87.7136" rx="9.5" transform="matrix(0.866044 0.499967 -0.866044 0.499967 237.45 410.25)" stroke="white"/>
</g>
</g>
</g>
</g>
</g>
<g id="MongoTile">
<mask id="mask8_29_16" style="mask-type:alpha" maskUnits="userSpaceOnUse" x="447" y="189" width="101" height="60">
<rect id="Rectangle 6_15" width="64.0042" height="64.0042" rx="10" transform="matrix(0.866044 0.499967 -0.866044 0.499967 497.43 187)" fill="#F8F8F8"/>
</mask>
<g mask="url(#mask8_29_16)">
<rect id="Rectangle 7_8" x="459" y="212" width="76" height="49" fill="url(#paint10_linear_29_16)"/>
<g id="Rectangle 6_16" style="mix-blend-mode:lighten">
<rect y="0.499967" width="49.2449" height="49.2449" rx="9.5" transform="matrix(0.866044 0.499967 -0.866044 0.499967 497.947 187.25)" fill="#FFFEFE"/>
<rect y="0.499967" width="49.2449" height="49.2449" rx="9.5" transform="matrix(0.866044 0.499967 -0.866044 0.499967 497.947 187.25)" stroke="white"/>
</g>
<g id="Mask group_2">
<mask id="mask9_29_16" style="mask-type:alpha" maskUnits="userSpaceOnUse" x="447" y="189" width="101" height="60">
<rect id="Rectangle 6_17" width="64.0042" height="64.0042" rx="10" transform="matrix(0.866044 0.499967 -0.866044 0.499967 497.43 187)" fill="#F8F8F8"/>
</mask>
<g mask="url(#mask9_29_16)">
<rect id="Rectangle 7_9" x="459" y="212" width="77" height="49" fill="url(#paint11_linear_29_16)"/>
<g id="Rectangle 6_18" style="mix-blend-mode:lighten">
<rect y="0.499967" width="49.2449" height="49.2449" rx="9.5" transform="matrix(0.866044 0.499967 -0.866044 0.499967 497.947 187.25)" fill="#FFFEFE"/>
<rect y="0.499967" width="49.2449" height="49.2449" rx="9.5" transform="matrix(0.866044 0.499967 -0.866044 0.499967 497.947 187.25)" stroke="white"/>
</g>
</g>
</g>
</g>
</g>
<g id="Mongo">
<path d="M497.819 155.158L499.364 158.065C499.711 158.602 500.087 159.077 500.53 159.519C501.829 160.805 503.04 162.177 504.155 163.626C506.772 167.069 508.538 170.893 509.798 175.029C510.554 177.556 510.965 180.147 510.996 182.768C511.122 190.603 508.442 197.33 503.037 202.921C502.158 203.808 501.208 204.622 500.197 205.354C499.662 205.354 499.409 204.942 499.188 204.563C498.786 203.861 498.519 203.09 498.399 202.289C498.21 201.341 498.085 200.393 498.146 199.415V198.972C498.103 198.878 497.631 155.381 497.819 155.158Z" fill="#599636"/>
<path d="M497.819 155.062C497.756 154.935 497.692 155.032 497.629 155.093C497.66 155.727 497.439 156.293 497.094 156.833C496.714 157.369 496.211 157.781 495.706 158.223C492.903 160.655 490.696 163.593 488.929 166.879C486.577 171.301 485.366 176.04 485.022 181.03C484.864 182.83 485.59 189.18 486.156 191.012C487.701 195.877 490.475 199.953 494.069 203.491C494.952 204.342 495.896 205.133 496.873 205.892C497.157 205.892 497.188 205.638 497.253 205.45C497.377 205.046 497.472 204.635 497.537 204.217L498.17 199.48L497.819 155.062Z" fill="#6CAC48"/>
<path d="M499.364 207.278C499.427 206.553 499.774 205.952 500.152 205.352C499.772 205.194 499.49 204.881 499.269 204.531C499.079 204.2 498.922 203.851 498.799 203.489C498.358 202.162 498.264 200.77 498.137 199.415V198.594C497.98 198.72 497.947 199.793 497.947 199.953C497.855 201.386 497.665 202.81 497.379 204.217C497.285 204.786 497.222 205.354 496.873 205.859C496.873 205.923 496.873 205.986 496.904 206.08C497.472 207.755 497.627 209.46 497.723 211.199V211.833C497.723 212.59 497.692 212.431 498.32 212.685C498.573 212.779 498.855 212.812 499.109 213C499.298 213 499.329 212.842 499.329 212.715L499.235 211.673V208.766C499.204 208.259 499.298 207.755 499.362 207.28L499.364 207.278Z" fill="#C2BFBF"/>
</g>
<g id="Next">
<path id="Vector" d="M825.947 234.169C825.763 234.284 825.184 234.653 824.651 234.98C812.504 242.582 807.201 252.875 810.351 262.794C812.096 268.313 816.257 273.433 822.587 277.853C824.792 279.398 825.509 279.82 829.009 281.648C832.51 283.477 833.318 283.851 836.276 285.003C856.48 292.886 883.869 294.07 906.399 288.042C910.432 286.962 914.319 285.633 918.38 283.934C919.961 283.272 926.117 280.056 927.385 279.231C933 275.569 936.786 271.96 939.368 267.799C939.763 267.161 939.809 267.022 939.607 267.032C939.478 267.041 931.411 266.427 921.691 265.669L904.022 264.293L880.667 261.933C867.822 260.638 857.293 259.592 857.256 259.611C857.21 259.625 863.366 262.879 870.909 266.838C884.12 273.767 884.644 274.05 884.79 274.299C885.002 274.659 885.002 274.851 884.818 275.158C884.671 275.389 884.441 275.537 883.054 276.262L881.464 277.092L880.775 277.174C880.325 277.227 879.893 277.212 879.489 277.145L878.882 277.03L842.078 257.759L842.004 257.423C841.959 257.246 842.023 256.953 842.124 256.775C842.317 256.483 842.446 256.396 844.035 255.566C845.91 254.587 846.296 254.462 847.315 254.486C847.6 254.491 860.381 255.839 875.734 257.484C891.086 259.13 912.062 261.37 922.362 262.469L941.077 264.469L941.206 264.143C942.373 261.268 942.815 257.813 942.393 254.675C941.512 248.004 937.02 241.655 929.431 236.348C927.226 234.803 926.51 234.381 923.009 232.553C919.509 230.724 918.7 230.35 915.742 229.199C895.539 221.315 868.149 220.131 845.62 226.159C841.641 227.219 837.773 228.539 833.785 230.2C832.811 230.613 826.636 233.732 825.947 234.169ZM873.614 238.966C874.275 238.851 875.056 238.884 875.626 239.047C875.938 239.134 881.065 241.792 892.558 247.814L909.049 256.456L901.671 255.645L894.284 254.84L882.277 248.568C874.513 244.513 870.186 242.215 870.03 242.076C869.662 241.73 869.58 241.351 869.782 240.996C869.966 240.698 870.085 240.617 871.528 239.863C872.888 239.153 873.145 239.038 873.614 238.966Z" fill="black"/>
</g>
<g id="React">
<g id="Group">
<path id="Vector_2" d="M941.496 467.763C934.873 463.931 920.303 465.098 903.696 470.203C893.67 461.007 882.055 455.795 873.008 457.21C870.909 457.528 868.993 458.212 867.302 459.191L871.846 461.82C872.783 461.278 873.721 460.948 874.699 460.783C879.06 460.099 886.314 462.905 893.161 467.951C894.852 469.189 896.503 470.569 898.112 472.019C893.14 473.764 888.026 475.851 882.952 478.221C876.431 477.631 870.155 477.301 864.286 477.231C864.755 469.814 867.608 464.249 871.846 461.797L867.302 459.167C861.698 462.41 858.356 468.965 857.867 477.266C843.562 477.573 832.273 479.53 826.669 482.772L831.214 485.402C835.432 482.961 845.05 481.287 857.826 480.992C857.969 484.376 858.519 487.995 859.579 491.745C855.463 494.693 851.856 497.652 848.86 500.541C846.354 499.633 844.031 498.69 841.891 497.735C833.149 493.785 828.279 489.599 829.42 487.076C829.665 486.51 830.297 485.956 831.234 485.413L826.69 482.784C824.978 483.774 823.796 484.883 823.226 486.109C820.801 491.332 829.808 498.029 845.682 503.795C836.919 513.393 834.922 521.788 841.525 525.608C848.147 529.44 862.717 528.272 879.325 523.167C889.35 532.364 900.965 537.575 910.013 536.16C912.112 535.842 914.027 535.158 915.739 534.168C921.343 530.925 924.685 524.37 925.174 516.069C939.478 515.762 950.768 513.805 956.371 510.563C958.083 509.572 959.265 508.464 959.835 507.238C962.26 502.015 953.254 495.317 937.38 489.552C946.122 479.99 948.098 471.583 941.496 467.763V467.763ZM901.373 475.25C903.248 477.207 905.02 479.318 906.671 481.499C904.205 481.039 901.699 480.603 899.111 480.214C896.543 479.813 893.955 479.471 891.408 479.152C894.73 477.726 898.051 476.417 901.373 475.25ZM913.742 493.207C914.903 495.718 915.882 498.171 916.615 500.553C913.844 502.463 910.909 504.326 907.812 506.118C904.735 507.898 901.515 509.596 898.255 511.2C894.139 510.775 889.9 510.233 885.58 509.572C881.362 508.924 877.246 508.169 873.232 507.332C871.765 505.021 870.46 502.616 869.319 500.187C868.158 497.676 867.18 495.223 866.446 492.841C869.217 490.931 872.152 489.068 875.249 487.276C878.326 485.496 881.546 483.798 884.806 482.194C888.922 482.619 893.161 483.161 897.481 483.822C901.699 484.47 905.815 485.225 909.829 486.062C911.276 488.385 912.601 490.778 913.742 493.207ZM917.675 487.866C921.506 488.809 925.174 489.847 928.597 490.931C926.58 492.853 924.318 494.799 921.832 496.732C921.261 495.247 920.65 493.738 919.937 492.24C919.244 490.754 918.469 489.292 917.675 487.866ZM918.755 512.402C914.903 512.367 910.828 512.202 906.569 511.907C908.485 510.893 910.42 509.844 912.315 508.747C914.231 507.639 916.085 506.519 917.838 505.387C918.388 507.827 918.673 510.186 918.755 512.402ZM891.592 514.23C888.27 515.656 884.949 516.965 881.627 518.132C879.752 516.175 877.98 514.065 876.329 511.883C878.795 512.343 881.301 512.779 883.889 513.169C886.477 513.558 889.045 513.911 891.592 514.23ZM864.245 480.98C868.097 481.015 872.172 481.18 876.431 481.475C874.515 482.489 872.58 483.539 870.685 484.635C868.769 485.743 866.915 486.864 865.162 487.995C864.612 485.555 864.327 483.197 864.245 480.98ZM861.168 496.65C861.739 498.135 862.35 499.645 863.063 501.142C863.756 502.628 864.51 504.078 865.305 505.505C861.474 504.561 857.806 503.524 854.383 502.439C856.42 500.529 858.682 498.583 861.168 496.65V496.65ZM868.239 522.082C857.949 524.476 849.248 524.841 846.048 522.99C842.849 521.139 843.46 516.093 847.617 510.15C848.616 508.7 849.859 507.202 851.204 505.693C856.359 507.332 862.045 508.853 868.198 510.221C870.562 513.758 873.191 517.024 876.023 519.984C873.374 520.785 870.766 521.493 868.239 522.082ZM908.322 532.588C903.961 533.272 896.706 530.465 889.86 525.419C888.168 524.181 886.518 522.802 884.908 521.351C889.88 519.606 894.995 517.519 900.069 515.149C906.589 515.739 912.866 516.069 918.734 516.14C918.266 523.556 915.413 529.121 911.174 531.574C910.237 532.093 909.279 532.435 908.322 532.588V532.588ZM941.129 495.636C949.871 499.586 954.741 503.771 953.6 506.295C953.355 506.861 952.724 507.415 951.786 507.957C947.568 510.398 937.95 512.072 925.174 512.367C925.031 508.983 924.481 505.363 923.421 501.614C927.537 498.666 931.144 495.707 934.14 492.818C936.666 493.738 939.01 494.669 941.129 495.636V495.636ZM935.383 483.232C934.384 484.682 933.141 486.18 931.796 487.689C926.641 486.05 920.955 484.529 914.802 483.161C912.438 479.624 909.809 476.358 906.977 473.399C909.626 472.597 912.234 471.889 914.781 471.288C925.072 468.895 933.773 468.529 936.972 470.38C940.151 472.243 939.54 477.29 935.383 483.232V483.232Z" fill="#61DAFB"/>
<path id="Vector_3" d="M900.802 502.085C905.945 499.11 905.945 494.285 900.802 491.309C895.659 488.333 887.32 488.333 882.177 491.309C877.034 494.285 877.034 499.11 882.177 502.085C887.32 505.061 895.659 505.061 900.802 502.085Z" fill="#61DAFB"/>
</g>
</g>
<g id="JS">
<g id="javascript-1 1" clip-path="url(#clip1_29_16)">
<path id="Vector_4" d="M240.659 473.053L203.065 454.632L237.076 435.078L268.753 456.835L258.925 467.137L240.659 473.053Z" fill="#E9CA32"/>
<path id="Vector_5" d="M255.568 465.2L223.473 446.671L237.497 438.629L263.72 456.645L255.568 465.2Z" fill="#FFDE25"/>
<g id="Group_2">
<path id="Vector_6" d="M225.787 449.735L222.092 451.869L243.454 464.201L240.032 465.544L237.156 463.884L233.187 465.543L239.623 469.258L252.216 464.992L225.787 449.735ZM228.559 448.135L238.789 442.23L242.199 444.988L236.559 448.244L243.278 452.123L248.918 448.867L261.795 457.091L254.987 463.392L250.743 460.942L254.676 456.299L249.407 452.859L243.992 457.044L228.559 448.135Z" fill="white"/>
</g>
</g>
</g>
<g id="Html">
<g id="html-1 1" clip-path="url(#clip2_29_16)">
<path id="Vector_7" d="M351.369 538.637L311.07 518.859L347.207 498.084L381.218 521.405L370.817 532.375L351.369 538.637Z" fill="#E34F26"/>
<path id="Vector_8" d="M367.217 530.297L332.787 510.421L347.688 501.876L375.843 521.188L367.217 530.297Z" fill="#EF652A"/>
<path id="Vector_9" d="M352.155 509.17L348.025 506.3L325.18 519.489L340.394 526.815L356.161 517.713L361.493 521.505L357.818 525.214L351.195 527.305L347.372 525.413L342.842 528.028L350.712 531.857L362.644 528L369.399 521.069L356.51 512.17L339.952 521.729L334.706 519.244L352.155 509.17Z" fill="white"/>
</g>
</g>
<g id="CSS">
<g id="css-3 1" clip-path="url(#clip3_29_16)">
<path id="Vector_10" d="M458.882 606.321L417.073 585.833L454.898 564.087L490.127 588.283L479.196 599.741L458.882 606.321Z" fill="#1B73BA"/>
<path id="Vector_11" d="M475.463 597.586L439.77 576.98L455.366 568.036L484.529 588.073L475.463 597.586Z" fill="#1C88C7"/>
<path id="Vector_12" d="M456.016 572.869L432.104 586.674L437.417 588.993L448.764 582.442L442.394 591.657L447.552 593.887L464.003 584.389L469.706 588.37L465.225 592.214L458.877 594.382L454.911 592.542L450.273 595.219L458.335 599.155L471.057 595.013L477.558 587.758L464.234 578.66L454.155 584.478L460.578 575.503L456.016 572.869Z" fill="white"/>
</g>
</g>
<g id="ExpressBack">
<rect id="Rectangle 8" width="157.945" height="74.7906" rx="10" transform="matrix(0.872014 -0.489481 -0.00338252 0.999994 546.323 96.2103)" fill="url(#paint12_linear_29_16)"/>
</g>
<g id="ExpressFront">
<rect id="Rectangle 8_2" width="157.945" height="74.7906" rx="10" transform="matrix(0.872014 -0.489481 -0.00338252 0.999994 572.323 105.21)" fill="url(#paint13_linear_29_16)"/>
<g id="express-109 1">
<path id="Vector_13" d="M598.551 141.901L599.062 131.226L611.53 123.507L611.56 122.882L599.092 130.601L599.559 120.862L612.814 112.655L612.844 112.031L599.005 120.6L597.937 142.887L611.893 134.246L611.923 133.622L598.551 141.901L598.551 141.901ZM623.903 111.241L618.387 121.714L613.684 117.569L612.925 118.039L618.014 122.4L611.63 134.408L612.331 133.974L618.342 122.651L623.63 126.978L624.36 126.527L618.744 121.947L624.603 110.808L623.903 111.241L623.903 111.241ZM625.849 130.936L626.328 120.947L626.386 120.911C626.667 122.151 627.302 122.893 628.291 123.139C629.28 123.385 630.573 123.014 632.169 122.025C633.2 121.387 634.126 120.596 634.946 119.655C635.765 118.713 636.461 117.692 637.033 116.591C637.605 115.489 638.057 114.341 638.388 113.147C638.719 111.953 638.912 110.793 638.965 109.67C639.023 108.463 638.93 107.44 638.687 106.601C638.444 105.762 638.063 105.14 637.544 104.734C637.026 104.328 636.382 104.161 635.614 104.233C634.845 104.305 633.965 104.648 632.972 105.263C632.213 105.733 631.502 106.29 630.838 106.933C630.174 107.576 629.579 108.272 629.052 109.023C628.522 109.778 628.054 110.574 627.664 111.381C627.266 112.203 626.953 113.029 626.724 113.857L626.666 113.893L626.881 109.398L626.297 109.759L625.265 131.297L625.849 130.936V130.936ZM632.197 121.432C630.368 122.565 628.93 122.804 627.885 122.148C626.84 121.493 626.378 119.907 626.498 117.389C626.548 116.348 626.732 115.275 627.049 114.17C627.366 113.065 627.8 111.999 628.35 110.972C628.899 109.945 629.564 108.988 630.343 108.102C631.122 107.216 631.988 106.478 632.942 105.887C633.915 105.285 634.757 104.965 635.467 104.93C636.177 104.894 636.753 105.087 637.196 105.51C637.638 105.933 637.959 106.532 638.158 107.307C638.357 108.083 638.431 108.99 638.381 110.031C638.336 110.968 638.18 111.968 637.912 113.033C637.644 114.097 637.258 115.144 636.756 116.172C636.253 117.199 635.626 118.173 634.873 119.094C634.121 120.014 633.229 120.793 632.197 121.432V121.432ZM641.791 115.734L642.226 106.651C642.268 105.777 642.426 104.851 642.699 103.874C642.973 102.897 643.368 101.941 643.885 101.005C644.402 100.069 645.044 99.1867 645.811 98.3585C646.578 97.5303 647.475 96.8281 648.504 96.2517L648.534 95.6275C647.64 96.1613 646.851 96.7501 646.169 97.3948C645.486 98.0397 644.892 98.7103 644.387 99.4071C643.881 100.104 643.47 100.808 643.152 101.519C642.835 102.23 642.591 102.937 642.428 103.618L642.37 103.654L642.56 99.6898L641.976 100.051L641.207 116.096L641.791 115.734L641.791 115.734ZM648.856 103.697L661.41 95.9238C661.502 94.7967 661.451 93.7988 661.256 92.9298C661.062 92.0606 660.716 91.3964 660.219 90.9372C659.721 90.4779 659.061 90.2709 658.237 90.3165C657.413 90.3621 656.417 90.7466 655.249 91.4696C654.412 91.9879 653.586 92.6814 652.77 93.5502C651.954 94.4189 651.227 95.3989 650.589 96.4904C649.951 97.5819 649.423 98.7624 649.003 100.032C648.583 101.301 648.342 102.602 648.278 103.934C648.221 105.12 648.294 106.15 648.498 107.023C648.702 107.897 649.048 108.551 649.537 108.985C650.026 109.419 650.675 109.588 651.482 109.492C652.289 109.396 653.277 108.976 654.446 108.232C656.159 107.171 657.624 105.764 658.841 104.011C660.059 102.258 660.819 100.379 661.123 98.3733L660.539 98.7348C660.201 100.66 659.49 102.388 658.407 103.917C657.323 105.446 655.993 106.699 654.416 107.675C653.346 108.338 652.45 108.701 651.729 108.763C651.009 108.826 650.431 108.658 649.997 108.261C649.563 107.863 649.256 107.271 649.076 106.483C648.897 105.696 648.823 104.767 648.856 103.697ZM660.856 95.6611L648.886 103.073C648.998 101.913 649.241 100.783 649.615 99.6836C649.988 98.5837 650.458 97.5508 651.024 96.5848C651.589 95.6187 652.236 94.7493 652.962 93.9763C653.688 93.2035 654.46 92.5639 655.278 92.0577C656.251 91.4551 657.098 91.1176 657.82 91.0445C658.541 90.9716 659.133 91.1144 659.598 91.4729C660.062 91.8315 660.4 92.3747 660.611 93.1024C660.821 93.8302 660.903 94.6831 660.856 95.6611ZM673.69 85.0192L674.274 84.6577C674.36 82.868 673.936 81.8687 673.001 81.6596C672.067 81.4507 670.763 81.8645 669.089 82.9009C668.154 83.4794 667.36 84.0924 666.706 84.7399C666.052 85.3871 665.511 86.0351 665.083 86.6835C664.655 87.3319 664.342 87.9497 664.144 88.5369C663.946 89.1241 663.836 89.6362 663.815 90.0731C663.774 90.9471 663.886 91.5538 664.153 91.8932C664.42 92.2327 664.858 92.3553 665.467 92.2611C665.885 92.2038 666.363 92.09 666.9 91.9192C667.437 91.7481 668.061 91.5333 668.773 91.2745C669.407 91.0436 670.031 90.8183 670.646 90.5989C671.261 90.3798 671.8 90.2631 672.264 90.2487C672.727 90.2344 673.099 90.3523 673.38 90.6026C673.661 90.8527 673.784 91.3317 673.75 92.0391C673.718 92.7259 673.539 93.4019 673.214 94.0672C672.892 94.7287 672.479 95.3722 672.005 95.952C671.523 96.5429 670.992 97.0838 670.411 97.5745C669.831 98.0654 669.268 98.4794 668.723 98.8169C666.952 99.9136 665.614 100.333 664.71 100.075C663.807 99.8163 663.398 98.7819 663.485 96.9714L662.901 97.333C662.804 99.3517 663.245 100.513 664.221 100.817C665.199 101.12 666.69 100.651 668.694 99.41C669.337 99.0124 669.988 98.5335 670.647 97.9736C671.307 97.414 671.903 96.7975 672.436 96.1243C672.964 95.4588 673.416 94.723 673.757 93.9737C674.105 93.2128 674.299 92.4267 674.337 91.6151C674.374 90.8451 674.263 90.3083 674.004 90.0043C673.744 89.7006 673.394 89.534 672.951 89.5052C672.509 89.4763 672.005 89.5511 671.439 89.7298C670.87 89.9095 670.299 90.0963 669.726 90.2903C669.021 90.5323 668.315 90.7776 667.609 91.026C667.004 91.239 666.444 91.3939 665.929 91.4903C665.434 91.5747 665.046 91.4972 664.765 91.2574C664.483 91.0177 664.362 90.5023 664.4 89.7115C664.407 89.5659 664.458 89.2816 664.554 88.8589C664.649 88.436 664.853 87.9417 665.163 87.3759C665.473 86.8104 665.937 86.1898 666.555 85.5143C667.173 84.8391 668.008 84.1759 669.059 83.5251C669.779 83.0792 670.432 82.7559 671.018 82.5546C671.603 82.3536 672.102 82.3025 672.512 82.4016C672.923 82.5007 673.232 82.7587 673.438 83.176C673.645 83.5934 673.729 84.2076 673.69 85.0192V85.0192ZM687.208 76.6494L687.792 76.2878C687.878 74.4981 687.454 73.4987 686.519 73.2897C685.585 73.0808 684.281 73.4945 682.607 74.531C681.673 75.1094 680.878 75.7225 680.224 76.3699C679.57 77.0172 679.029 77.6652 678.601 78.3136C678.173 78.962 677.86 79.5798 677.662 80.167C677.464 80.7542 677.355 81.2662 677.334 81.7031C677.292 82.5771 677.404 83.1838 677.672 83.5232C677.939 83.8629 678.377 83.9854 678.985 83.8911C679.404 83.8338 679.881 83.72 680.418 83.5493C680.955 83.3782 681.579 83.1634 682.291 82.9046C682.925 82.6736 683.55 82.4483 684.165 82.229C684.78 82.0099 685.319 81.8932 685.782 81.8787C686.246 81.8645 686.618 81.9823 686.898 82.2327C687.179 82.4828 687.303 82.9617 687.269 83.6691C687.236 84.3559 687.057 85.032 686.732 85.6973C686.41 86.3587 685.998 87.0022 685.523 87.582C685.041 88.173 684.51 88.7138 683.93 89.2047C683.349 89.6954 682.786 90.1096 682.241 90.447C680.47 91.5437 679.132 91.9629 678.229 91.7047C677.325 91.4465 676.916 90.412 677.003 88.6015L676.419 88.963C676.323 90.9817 676.763 92.1429 677.74 92.4466C678.717 92.7503 680.208 92.2815 682.213 91.0401C682.855 90.6424 683.506 90.1636 684.165 89.6038C684.825 89.0441 685.421 88.4277 685.954 87.7543C686.482 87.0888 686.934 86.353 687.275 85.6038C687.623 84.8428 687.817 84.0568 687.856 83.2452C687.893 82.4752 687.781 81.9383 687.522 81.6344C687.263 81.3306 686.912 81.1641 686.469 81.1352C686.027 81.1063 685.523 81.1812 684.957 81.3598C684.388 81.5395 683.817 81.7263 683.245 81.9203C682.539 82.1623 681.834 82.4076 681.127 82.656C680.522 82.8691 679.962 83.024 679.447 83.1205C678.952 83.2049 678.564 83.1273 678.283 82.8874C678.001 82.6477 677.88 82.1324 677.918 81.3416C677.925 81.196 677.976 80.9117 678.072 80.4889C678.168 80.066 678.371 79.5717 678.681 79.006C678.992 78.4405 679.456 77.8198 680.074 77.1444C680.692 76.4691 681.526 75.806 682.577 75.1551C683.297 74.7092 683.95 74.3859 684.536 74.1846C685.122 73.9836 685.62 73.9326 686.031 74.0316C686.441 74.1307 686.75 74.3888 686.957 74.806C687.163 75.2234 687.247 75.8377 687.209 76.6493L687.208 76.6494Z" fill="black"/>
</g>
</g>
<g id="Java">
<g id="java-14 1" clip-path="url(#clip4_29_16)">
<path id="Vector_14" d="M679.808 214.669C679.808 214.669 678.82 216.83 683.336 214.761C688.802 212.253 691.229 210.759 695.61 207.046C695.61 207.046 697.924 206.741 700.682 206.041C693.764 216.04 672.953 221.702 679.808 214.669V214.669ZM671.54 211.605C671.54 211.605 670.853 214.272 675.325 212.175C681.107 209.463 685.29 207.099 691.07 202.168C691.07 202.168 693.066 202.176 695.174 201.595C684.812 212.531 664.539 219.671 671.54 211.605" fill="#5382A1"/>
<path id="Vector_15" d="M672.51 197.751C678.939 198.015 678.267 201.98 678.267 201.98C678.267 201.98 681.929 195.34 673.539 194.517C665.709 193.752 660.94 193.878 666.601 181.557C666.601 181.557 650.708 196.852 672.51 197.751" fill="#E76F00"/>
<path id="Vector_16" d="M711.86 201.961C711.86 201.961 715.056 201.785 712.494 204.554C707.621 209.817 686.142 222.957 677.319 224.958C674.148 225.678 676.955 222.515 677.977 221.601C679.041 220.646 679.873 220.23 679.873 220.23C675.683 220.648 667.398 231.361 677.929 226.979C706.651 215.031 721.165 199.933 711.86 201.961ZM667.126 206.034C667.126 206.034 658.551 214.074 666.789 210.44C670.269 208.906 676.293 205.321 681.512 201.756C685.775 198.841 689.615 195.659 689.615 195.659C689.615 195.659 688.677 197.013 688.301 198.168C679.885 206.501 656.412 218.435 659.689 212.99C662.461 208.386 667.126 206.034 667.126 206.034L667.126 206.034ZM698.608 200.904C704.179 190.709 693 190.456 690.034 193.072C689.307 193.713 689.063 194.045 689.063 194.045C689.063 194.045 688.869 193.54 689.289 193.03C694.094 187.242 710.107 189.902 698.679 201.214C698.679 201.214 698.698 201.018 698.608 200.904" fill="#5382A1"/>
<path id="Vector_17" d="M646.183 178.724C646.183 178.724 659.059 178.731 656.434 191.686C654.332 202.077 666.623 200.215 674.089 201.883C662.921 202.21 653.95 202.002 652.496 197.827C650.36 191.699 659.013 183.135 646.183 178.724" fill="#E76F00"/>
<path id="Vector_18" d="M695.943 221.352C707.806 215.328 723.815 204.803 718.938 201.519C718.938 201.519 720.161 203.126 713.317 208.913C705.595 215.442 693.649 222.096 685.539 225.451C685.539 225.451 688.145 225.31 695.943 221.352" fill="#5382A1"/>
</g>
</g>
<g id="NodeBack">
<rect id="Rectangle 9" width="417.385" height="123.1" rx="10" transform="matrix(0.87699 -0.480509 0.87699 0.480509 11 400.557)" fill="url(#paint14_linear_29_16)"/>
</g>
<g id="Group_3">
<g id="NodeJS" clip-path="url(#clip5_29_16)">
<g id="Group_4">
<path id="Vector_19" d="M323.795 271.615C323.314 271.892 322.946 272.219 322.766 272.593L317.223 284.502C316.863 285.272 317.268 286.1 318.247 286.665L333.306 295.359C334.284 295.923 335.717 296.157 337.053 295.95L342.439 295.113C344.917 294.626 345.516 294.266 346.272 293.829C348.73 292.41 348.645 290.74 346.057 289.247L331.192 280.665C330.982 280.544 330.649 280.562 330.443 280.681L328.803 281.628C328.593 281.749 328.565 281.939 328.775 282.06L343.64 290.642C344.787 291.304 344.743 292.661 341.832 293.223L336.195 294.075C336.001 294.108 335.784 294.094 335.64 294.011L320.581 285.318C320.438 285.235 320.388 285.096 320.443 284.981L325.986 273.104C326.011 273.05 326.06 273.001 326.128 272.962C326.196 272.922 326.281 272.894 326.375 272.88L346.949 269.679C347.148 269.651 347.385 269.674 347.532 269.759L362.591 278.453C362.735 278.536 362.81 278.663 362.757 278.773L357.186 290.667C357.141 290.77 356.986 290.859 356.797 290.891L351.439 291.68C351.36 291.693 351.288 291.718 351.23 291.751C351.172 291.785 351.129 291.826 351.105 291.872C350.702 292.711 350.589 292.847 350.02 293.523C349.88 293.69 349.671 293.945 350.686 293.779L357.655 292.734C358.307 292.632 358.901 292.433 359.377 292.156C359.858 291.882 360.203 291.539 360.378 291.162L365.949 279.268C366.304 278.496 365.903 277.67 364.925 277.106L349.865 268.412C348.887 267.847 347.455 267.614 346.12 267.821L325.49 271.021C324.846 271.123 324.276 271.337 323.795 271.615L323.795 271.615Z" fill="#83CD29"/>
<path id="Vector_20" d="M338.056 275.806C334.33 277.957 333.694 280.152 336.326 281.672C339.182 283.32 342.169 282.502 346.099 280.641C350.796 278.412 351.756 278.582 352.597 279.067C354.055 279.909 353.512 280.94 350.759 282.529C347.3 284.526 345.679 284.467 343.707 283.623C343.493 283.534 343.201 283.53 343.012 283.639L341.318 284.618C341.109 284.738 341.108 284.946 341.317 285.066C343.516 286.335 347.313 287.145 353.033 283.842C357.174 281.452 357.94 279.136 355.098 277.495C352.28 275.869 349.594 276.545 345.047 278.558C340.452 280.592 339.803 280.664 338.854 280.116C338.071 279.664 337.352 278.87 340.358 277.134C343.043 275.584 344.614 275.345 346.828 276.154C347.033 276.231 347.318 276.223 347.494 276.121L349.189 275.143C349.293 275.082 349.33 274.987 349.328 274.902C349.319 274.815 349.279 274.734 349.162 274.678C345.787 273.033 342.244 273.388 338.056 275.806V275.806Z" fill="#83CD29"/>
</g>
<path id="Vector_21" d="M227.114 304.63C226.968 304.714 226.862 304.819 226.808 304.934C226.755 305.05 226.756 305.171 226.809 305.286C226.863 305.401 226.967 305.507 227.112 305.591L248.328 317.839C248.536 317.959 248.626 318.123 248.55 318.288C248.513 318.369 248.439 318.442 248.337 318.501C248.234 318.561 248.106 318.603 247.966 318.625L242.496 319.477C242.097 319.539 241.732 319.66 241.44 319.829C241.147 319.998 240.936 320.209 240.829 320.439L234.952 333.054C234.732 333.526 234.991 334.039 235.589 334.384L251.563 343.606C252.16 343.95 253.022 344.084 253.838 343.957L275.69 340.564C276.09 340.503 276.455 340.381 276.747 340.212C277.04 340.043 277.25 339.833 277.357 339.602L283.234 326.987C283.342 326.756 283.343 326.513 283.236 326.283C283.129 326.052 282.918 325.842 282.626 325.673L242.801 302.682C242.501 302.51 242.128 302.386 241.718 302.325C241.309 302.263 240.878 302.265 240.47 302.331L227.614 304.437C227.412 304.47 227.256 304.546 227.114 304.63V304.63ZM157.867 367.629C157.613 367.788 157.41 367.958 157.31 368.174L151.433 380.789C151.325 381.02 151.324 381.263 151.431 381.494C151.538 381.724 151.748 381.935 152.042 382.103L173.508 394.463C173.806 394.635 174.237 394.706 174.645 394.639C174.847 394.61 175.031 394.549 175.177 394.465C175.324 394.38 175.429 394.274 175.479 394.157L178.989 386.688C179.2 386.209 179.003 385.702 178.407 385.358L168.396 379.578C167.798 379.234 167.565 378.735 167.787 378.264L169.263 375.075C169.369 374.844 169.581 374.634 169.875 374.465C170.161 374.3 170.525 374.172 170.93 374.113L176.456 373.26C176.855 373.197 177.276 373.197 177.676 373.259C178.076 373.32 178.44 373.442 178.732 373.611L188.743 379.391C189.339 379.735 190.224 379.849 191.046 379.727L203.985 377.701C204.187 377.672 204.371 377.611 204.518 377.527C204.664 377.442 204.769 377.336 204.819 377.219C204.873 377.104 204.873 376.982 204.819 376.867C204.766 376.752 204.661 376.647 204.515 376.562L183.104 364.17C182.813 364.001 182.449 363.879 182.049 363.817C181.65 363.755 181.228 363.756 180.829 363.819L158.977 367.212C158.606 367.268 158.31 367.386 158.033 367.533L157.867 367.629ZM282.645 295.818C282.356 295.986 282.145 296.192 282.034 296.428L276.157 309.043C276.049 309.273 276.048 309.516 276.155 309.747C276.262 309.978 276.472 310.188 276.765 310.356L292.739 319.578C293.34 319.925 294.223 320.044 295.043 319.914L316.617 316.489C317.414 316.363 318.056 316.017 318.283 315.558L321.987 308.072C322.105 307.835 322.011 307.574 321.711 307.4C321.566 307.314 321.384 307.253 321.184 307.222C320.984 307.191 320.773 307.192 320.573 307.224L298.638 310.665C298.228 310.73 297.744 310.662 297.445 310.489L292.453 307.608C292.154 307.435 292.066 307.17 292.176 306.935L294.015 302.991C294.068 302.876 294.173 302.771 294.32 302.686C294.466 302.602 294.648 302.541 294.848 302.51L301.678 301.449C301.878 301.418 302.089 301.418 302.288 301.448C302.488 301.479 302.67 301.54 302.816 301.625L306.754 303.898C306.9 303.983 307.082 304.043 307.282 304.074C307.482 304.105 307.692 304.105 307.892 304.074C308.302 304.01 308.616 303.829 308.725 303.593L312.208 296.011C312.315 295.78 312.316 295.537 312.209 295.307C312.102 295.076 311.892 294.866 311.6 294.697L307.745 292.472C307.15 292.128 306.285 291.995 305.469 292.121L283.701 295.465C283.301 295.527 282.937 295.649 282.646 295.819L282.645 295.818ZM253.116 326.635C253.189 326.593 253.292 326.554 253.394 326.538L260.891 325.38C261.094 325.349 261.325 325.374 261.473 325.46L266.965 328.63C267.114 328.716 267.158 328.849 267.103 328.966L265.097 333.294C265.07 333.352 265.017 333.404 264.944 333.446C264.871 333.489 264.78 333.519 264.681 333.535L257.184 334.693C256.98 334.724 256.75 334.699 256.601 334.613L251.11 331.443C250.961 331.357 250.918 331.224 250.972 331.106L252.977 326.779C253 326.724 253.048 326.674 253.117 326.635L253.117 326.634L253.116 326.635Z" fill="#404137"/>
<path id="Vector_22" d="M199.626 343.649C199.337 343.816 199.125 344.023 199.015 344.259L193.11 356.858C192.889 357.329 193.149 357.843 193.746 358.187L209.72 367.409C210.317 367.754 211.179 367.887 211.996 367.761L233.847 364.368C234.247 364.306 234.612 364.185 234.905 364.016C235.198 363.847 235.408 363.636 235.514 363.405L241.392 350.79C241.5 350.56 241.5 350.317 241.393 350.086C241.286 349.855 241.076 349.645 240.783 349.477L224.809 340.255C224.211 339.91 223.322 339.76 222.505 339.887L200.682 343.296C200.282 343.358 199.918 343.48 199.626 343.649V343.649ZM296.789 304.016C296.734 304.048 296.673 304.083 296.651 304.128L295.536 306.564C295.514 306.609 295.513 306.656 295.532 306.701C295.552 306.746 295.591 306.787 295.647 306.821L298.698 308.582C298.812 308.648 298.984 308.671 299.142 308.646L303.334 307.986C303.492 307.962 303.599 307.901 303.64 307.81L304.781 305.39C304.803 305.345 304.805 305.298 304.785 305.253C304.766 305.208 304.727 305.167 304.671 305.133L301.62 303.372C301.562 303.34 301.491 303.317 301.413 303.306C301.335 303.295 301.254 303.296 301.176 303.308L296.956 303.951C296.877 303.963 296.845 303.984 296.79 304.016L296.789 304.016Z" fill="#83CD29"/>
</g>
</g>
</g>
<defs>
<linearGradient id="paint0_linear_29_16" x1="769.625" y1="157.413" x2="487.701" y2="766.957" gradientUnits="userSpaceOnUse">
<stop stop-color="#F6D1AF"/>
<stop offset="1" stop-color="#FF6F6F"/>
</linearGradient>
<linearGradient id="paint1_linear_29_16" x1="988.985" y1="657.562" x2="487.566" y2="777.821" gradientUnits="userSpaceOnUse">
<stop stop-color="#EBBC75"/>
<stop offset="1" stop-color="#F291CB"/>
</linearGradient>
<linearGradient id="paint2_linear_29_16" x1="355.294" y1="135.142" x2="524.855" y2="624.513" gradientUnits="userSpaceOnUse">
<stop stop-color="#CF70A6"/>
<stop offset="1" stop-color="#EEA069"/>
</linearGradient>
<linearGradient id="paint3_linear_29_16" x1="873" y1="262" x2="544.5" y2="462.5" gradientUnits="userSpaceOnUse">
<stop stop-color="white"/>
<stop offset="0.9999" stop-color="#898989" stop-opacity="0.692708"/>
<stop offset="1" stop-color="#D8AFAF" stop-opacity="0"/>
</linearGradient>
<linearGradient id="paint4_linear_29_16" x1="891" y1="501" x2="562.5" y2="701.5" gradientUnits="userSpaceOnUse">
<stop stop-color="white"/>
<stop offset="0.9999" stop-color="#898989" stop-opacity="0.692708"/>
<stop offset="1" stop-color="#D8AFAF" stop-opacity="0"/>
</linearGradient>
<linearGradient id="paint5_linear_29_16" x1="347" y1="522" x2="172.191" y2="626.23" gradientUnits="userSpaceOnUse">
<stop stop-color="#F8F8F8"/>
<stop offset="0.505208" stop-color="#CBC2C2" stop-opacity="0.494792"/>
<stop offset="1" stop-color="#848484" stop-opacity="0"/>
</linearGradient>
<linearGradient id="paint6_linear_29_16" x1="455" y1="588" x2="280.191" y2="692.23" gradientUnits="userSpaceOnUse">
<stop stop-color="#F8F8F8"/>
<stop offset="0.505208" stop-color="#CBC2C2" stop-opacity="0.494792"/>
<stop offset="1" stop-color="#848484" stop-opacity="0"/>
</linearGradient>
<linearGradient id="paint7_linear_29_16" x1="681.135" y1="201.439" x2="500.734" y2="309.004" gradientUnits="userSpaceOnUse">
<stop stop-color="#F8F8F8"/>
<stop offset="0.505208" stop-color="#CBC2C2" stop-opacity="0.494792"/>
<stop offset="1" stop-color="#848484" stop-opacity="0"/>
</linearGradient>
<linearGradient id="paint8_linear_29_16" x1="237" y1="455" x2="62.191" y2="559.23" gradientUnits="userSpaceOnUse">
<stop stop-color="#F8F8F8"/>
<stop offset="0.505208" stop-color="#CBC2C2" stop-opacity="0.494792"/>
<stop offset="1" stop-color="#848484" stop-opacity="0"/>
</linearGradient>
<linearGradient id="paint9_linear_29_16" x1="237" y1="455" x2="62.191" y2="559.23" gradientUnits="userSpaceOnUse">
<stop stop-color="#F8F8F8"/>
<stop offset="0.505208" stop-color="#CBC2C2" stop-opacity="0.494792"/>
<stop offset="1" stop-color="#848484" stop-opacity="0"/>
</linearGradient>
<linearGradient id="paint10_linear_29_16" x1="497" y1="212" x2="400.651" y2="264.596" gradientUnits="userSpaceOnUse">
<stop stop-color="#F8F8F8"/>
<stop offset="0.505208" stop-color="#CBC2C2" stop-opacity="0.494792"/>
<stop offset="1" stop-color="#848484" stop-opacity="0"/>
</linearGradient>
<linearGradient id="paint11_linear_29_16" x1="497.5" y1="212" x2="400.473" y2="265.663" gradientUnits="userSpaceOnUse">
<stop stop-color="#F8F8F8"/>
<stop offset="0.505208" stop-color="#CBC2C2" stop-opacity="0.494792"/>
<stop offset="1" stop-color="#848484" stop-opacity="0"/>
</linearGradient>
<linearGradient id="paint12_linear_29_16" x1="78.9725" y1="0" x2="78.9725" y2="74.7906" gradientUnits="userSpaceOnUse">
<stop stop-color="#FF9A9A"/>
<stop offset="0.994792" stop-color="#FAA05F"/>
</linearGradient>
<linearGradient id="paint13_linear_29_16" x1="78.9725" y1="0" x2="78.9725" y2="74.7906" gradientUnits="userSpaceOnUse">
<stop stop-color="#FFDDAA"/>
<stop offset="1" stop-color="#FFCFCF"/>
</linearGradient>
<linearGradient id="paint14_linear_29_16" x1="208.693" y1="0" x2="208.693" y2="123.1" gradientUnits="userSpaceOnUse">
<stop offset="0.0625" stop-color="#FFD2DB"/>
<stop offset="0.979167" stop-color="#FFD6CD"/>
</linearGradient>
<clipPath id="clip0_29_16">
<rect width="1037" height="679" fill="white"/>
</clipPath>
<clipPath id="clip1_29_16">
<rect width="39.191" height="44.9063" fill="white" transform="matrix(0.866044 -0.499967 0.866044 0.499967 203 454.594)"/>
</clipPath>
<clipPath id="clip2_29_16">
<rect width="41.6404" height="48.1722" fill="white" transform="matrix(0.866044 -0.499967 0.866044 0.499967 311 518.819)"/>
</clipPath>
<clipPath id="clip3_29_16">
<rect width="43.5862" height="49.9425" fill="white" transform="matrix(0.866044 -0.499967 0.866044 0.499967 417 585.792)"/>
</clipPath>
<clipPath id="clip4_29_16">
<rect width="52.9924" height="71.7125" fill="white" transform="matrix(0.866044 -0.499967 0.866044 0.499967 617 195.495)"/>
</clipPath>
<clipPath id="clip5_29_16">
<rect width="228.299" height="64.535" fill="white" transform="matrix(0.866044 -0.499967 0.866044 0.499967 122 365.142)"/>
</clipPath>
</defs>
</svg>
