<svg xmlns="http://www.w3.org/2000/svg" xmlns:xlink="http://www.w3.org/1999/xlink" style="margin:auto;background:rgba(NaN, NaN, NaN, 0);display:block;z-index:1;position:relative" width="1737" height="1315" preserveAspectRatio="xMidYMid" viewBox="0 0 1737 1315">
<g transform="translate(868.5,657.5) scale(1,1) translate(-868.5,-657.5)"><path d="M-100 936.22C-67.42 918.26 -66.09 929.07 -37.52 929.07S-2.63 917.38 24.97 917.38S58.08 923.16 87.45 923.16S120.25 918.88 149.94 918.88S184.2 933.46 212.42 933.46S244.63 911.36 274.9 911.36S309.46 908.2 337.39 908.2S369.79 912.39 399.87 912.39S433.04 941.84 462.35 941.84S494.74 920.97 524.84 920.97S557.6 942.28 587.32 942.28S621.01 934.06 649.81 934.06S683.88 929.7 712.29 929.7S744.71 938.61 774.77 938.61S808.18 919.92 837.26 919.92S870.42 938.91 899.74 938.91S931.7 926.71 962.23 926.71S996.42 923.63 1024.71 923.63S1058.94 936.52 1087.19 936.52S1119.7 924.69 1149.68 924.69S1181.53 910.43 1212.16 910.43S1243.69 934.41 1274.65 934.41S1306.18 931.37 1337.13 931.37S1370.33 911.74 1399.61 911.74S1433.46 932.01 1462.1 932.01S1495.59 920.22 1524.58 920.22S1558.54 930.95 1587.06 930.95S1619.42 934.19 1649.55 934.19S1682 933.57 1712.03 933.57S1746 944.14 1774.52 944.14S1808.14 919.93 1837 919.93S1871.02 910.27 1899.48 910.27L1837 1315 L-100 1315 Z" fill="#343434" stroke-width="0">
  <animate attributeName="d" dur="25s" repeatCount="indefinite" values="M-100 936.22C-67.42 918.26 -66.09 929.07 -37.52 929.07S-2.63 917.38 24.97 917.38S58.08 923.16 87.45 923.16S120.25 918.88 149.94 918.88S184.2 933.46 212.42 933.46S244.63 911.36 274.9 911.36S309.46 908.2 337.39 908.2S369.79 912.39 399.87 912.39S433.04 941.84 462.35 941.84S494.74 920.97 524.84 920.97S557.6 942.28 587.32 942.28S621.01 934.06 649.81 934.06S683.88 929.7 712.29 929.7S744.71 938.61 774.77 938.61S808.18 919.92 837.26 919.92S870.42 938.91 899.74 938.91S931.7 926.71 962.23 926.71S996.42 923.63 1024.71 923.63S1058.94 936.52 1087.19 936.52S1119.7 924.69 1149.68 924.69S1181.53 910.43 1212.16 910.43S1243.69 934.41 1274.65 934.41S1306.18 931.37 1337.13 931.37S1370.33 911.74 1399.61 911.74S1433.46 932.01 1462.1 932.01S1495.59 920.22 1524.58 920.22S1558.54 930.95 1587.06 930.95S1619.42 934.19 1649.55 934.19S1682 933.57 1712.03 933.57S1746 944.14 1774.52 944.14S1808.14 919.93 1837 919.93S1871.02 910.27 1899.48 910.27L1837 1315 L-100 1315 Z;M-100 927.57C-66.83 914.34 -67.53 929.94 -37.52 929.94S-5.45 931.86 24.97 931.86S58.73 931.14 87.45 931.14S120.07 928.24 149.94 928.24S183.49 945.3 212.42 945.3S246.19 914.36 274.9 914.36S306.98 942.25 337.39 942.25S371.49 920.55 399.87 920.55S431.31 916.49 462.35 916.49S496.53 944.03 524.84 944.03S558.36 922.25 587.32 922.25S622.36 911.58 649.81 911.58S683.77 945.02 712.29 945.02S745.69 911.78 774.77 911.78S808.98 938.25 837.26 938.25S869.05 910.26 899.74 910.26S932.18 914.83 962.23 914.83S996.87 908.39 1024.71 908.39S1057.81 940.02 1087.19 940.02S1121.99 938.54 1149.68 938.54S1184.29 917.9 1212.16 917.9S1246.9 932.5 1274.65 932.5S1306.8 941.62 1337.13 941.62S1369.89 919.93 1399.61 919.93S1432.08 924.44 1462.1 924.44S1494.33 919.3 1524.58 919.3S1557.38 935.26 1587.06 935.26S1621.95 910.41 1649.55 910.41S1684.13 912.82 1712.03 912.82S1746.97 931.09 1774.52 931.09S1809.51 934.81 1837 934.81S1869.13 907.83 1899.48 907.83L1837 1315 L-100 1315 Z;M-100 936.22C-67.42 918.26 -66.09 929.07 -37.52 929.07S-2.63 917.38 24.97 917.38S58.08 923.16 87.45 923.16S120.25 918.88 149.94 918.88S184.2 933.46 212.42 933.46S244.63 911.36 274.9 911.36S309.46 908.2 337.39 908.2S369.79 912.39 399.87 912.39S433.04 941.84 462.35 941.84S494.74 920.97 524.84 920.97S557.6 942.28 587.32 942.28S621.01 934.06 649.81 934.06S683.88 929.7 712.29 929.7S744.71 938.61 774.77 938.61S808.18 919.92 837.26 919.92S870.42 938.91 899.74 938.91S931.7 926.71 962.23 926.71S996.42 923.63 1024.71 923.63S1058.94 936.52 1087.19 936.52S1119.7 924.69 1149.68 924.69S1181.53 910.43 1212.16 910.43S1243.69 934.41 1274.65 934.41S1306.18 931.37 1337.13 931.37S1370.33 911.74 1399.61 911.74S1433.46 932.01 1462.1 932.01S1495.59 920.22 1524.58 920.22S1558.54 930.95 1587.06 930.95S1619.42 934.19 1649.55 934.19S1682 933.57 1712.03 933.57S1746 944.14 1774.52 944.14S1808.14 919.93 1837 919.93S1871.02 910.27 1899.48 910.27L1837 1315 L-100 1315 Z"></animate>
  <animateTransform attributeName="transform" type="translate" dur="25s" begin="0s" repeatCount="indefinite" values="0;10;0" calcMode="spline" keySplines="0.3 0 0.7 1;0.3 0 0.7 1"></animateTransform>
</path><path d="M-100 971.03C-65.79 981.32 -66.21 960.67 -35.86 960.67S-3.59 953.9 28.28 953.9S62.37 970.33 92.42 970.33S124.61 978.46 156.56 978.46S190.92 989.96 220.7 989.96S255.75 960.11 284.83 960.11S318.17 968.86 348.97 968.86S384.44 970.63 413.11 970.63S446.87 968.85 477.25 968.85S509.63 989.31 541.39 989.31S574.03 965.9 605.53 965.9S641.14 961.22 669.67 961.22S704.51 970.28 733.81 970.28S767.74 980.76 797.95 980.76S830.38 961.7 862.09 961.7S895.71 963.41 926.23 963.41S959.24 977.3 990.36 977.3S1023.03 978.81 1054.5 978.81S1089.88 981.03 1118.64 981.03S1154.44 963.98 1182.78 963.98S1218.05 966.5 1246.92 966.5S1282.2 954.42 1311.06 954.42S1343.55 961.64 1375.2 961.64S1410.53 982.11 1439.34 982.11S1472.47 977.34 1503.48 977.34S1539.32 959.08 1567.62 959.08S1601.52 984.95 1631.75 984.95S1666.76 983.4 1695.89 983.4S1728.29 956.53 1760.03 956.53S1793.86 960.91 1824.17 960.91S1858.37 984.67 1888.31 984.67L1837 1315 L-100 1315 Z" fill="#454545" stroke-width="0">
  <animate attributeName="d" dur="22.5s" repeatCount="indefinite" values="M-100 971.03C-65.79 981.32 -66.21 960.67 -35.86 960.67S-3.59 953.9 28.28 953.9S62.37 970.33 92.42 970.33S124.61 978.46 156.56 978.46S190.92 989.96 220.7 989.96S255.75 960.11 284.83 960.11S318.17 968.86 348.97 968.86S384.44 970.63 413.11 970.63S446.87 968.85 477.25 968.85S509.63 989.31 541.39 989.31S574.03 965.9 605.53 965.9S641.14 961.22 669.67 961.22S704.51 970.28 733.81 970.28S767.74 980.76 797.95 980.76S830.38 961.7 862.09 961.7S895.71 963.41 926.23 963.41S959.24 977.3 990.36 977.3S1023.03 978.81 1054.5 978.81S1089.88 981.03 1118.64 981.03S1154.44 963.98 1182.78 963.98S1218.05 966.5 1246.92 966.5S1282.2 954.42 1311.06 954.42S1343.55 961.64 1375.2 961.64S1410.53 982.11 1439.34 982.11S1472.47 977.34 1503.48 977.34S1539.32 959.08 1567.62 959.08S1601.52 984.95 1631.75 984.95S1666.76 983.4 1695.89 983.4S1728.29 956.53 1760.03 956.53S1793.86 960.91 1824.17 960.91S1858.37 984.67 1888.31 984.67L1837 1315 L-100 1315 Z;M-100 970.49C-66.37 958.38 -66.73 993.35 -35.86 993.35S-1.72 974.36 28.28 974.36S61.32 963.21 92.42 963.21S127.46 992.09 156.56 992.09S191.2 977.44 220.7 977.44S254.38 987.4 284.83 987.4S317.95 972.61 348.97 972.61S382.45 970.39 413.11 970.39S448.96 977.13 477.25 977.13S512.54 964.68 541.39 964.68S574.8 982.44 605.53 982.44S641.21 977.11 669.67 977.11S704.81 990.45 733.81 990.45S768.6 954.17 797.95 954.17S832.76 963.87 862.09 963.87S897.57 952.25 926.23 952.25S960.18 966.62 990.36 966.62S1023.01 970.07 1054.5 970.07S1088.92 980.98 1118.64 980.98S1151.87 967.72 1182.78 967.72S1215.55 971.51 1246.92 971.51S1280.44 988.47 1311.06 988.47S1344.77 964.52 1375.2 964.52S1410.36 992.23 1439.34 992.23S1471.99 970.14 1503.48 970.14S1536.84 953.93 1567.62 953.93S1600.86 968.09 1631.75 968.09S1665.11 963.8 1695.89 963.8S1728.2 987 1760.03 987S1792.9 975.38 1824.17 975.38S1856.46 956.22 1888.31 956.22L1837 1315 L-100 1315 Z;M-100 971.03C-65.79 981.32 -66.21 960.67 -35.86 960.67S-3.59 953.9 28.28 953.9S62.37 970.33 92.42 970.33S124.61 978.46 156.56 978.46S190.92 989.96 220.7 989.96S255.75 960.11 284.83 960.11S318.17 968.86 348.97 968.86S384.44 970.63 413.11 970.63S446.87 968.85 477.25 968.85S509.63 989.31 541.39 989.31S574.03 965.9 605.53 965.9S641.14 961.22 669.67 961.22S704.51 970.28 733.81 970.28S767.74 980.76 797.95 980.76S830.38 961.7 862.09 961.7S895.71 963.41 926.23 963.41S959.24 977.3 990.36 977.3S1023.03 978.81 1054.5 978.81S1089.88 981.03 1118.64 981.03S1154.44 963.98 1182.78 963.98S1218.05 966.5 1246.92 966.5S1282.2 954.42 1311.06 954.42S1343.55 961.64 1375.2 961.64S1410.53 982.11 1439.34 982.11S1472.47 977.34 1503.48 977.34S1539.32 959.08 1567.62 959.08S1601.52 984.95 1631.75 984.95S1666.76 983.4 1695.89 983.4S1728.29 956.53 1760.03 956.53S1793.86 960.91 1824.17 960.91S1858.37 984.67 1888.31 984.67L1837 1315 L-100 1315 Z"></animate>
  <animateTransform attributeName="transform" type="translate" dur="22.5s" begin="-2.25s" repeatCount="indefinite" values="0;10;0" calcMode="spline" keySplines="0.3 0 0.7 1;0.3 0 0.7 1"></animateTransform>
</path><path d="M-100 1007.08C-66.48 1031.42 -64.49 1013.29 -34.12 1013.29S0.6 1027.05 31.77 1027.05S67.93 1036.8 97.65 1036.8S132.25 1025.41 163.54 1025.41S199.87 1004.99 229.42 1004.99S263.16 1003.52 295.31 1003.52S329.72 1008.86 361.19 1008.86S396.99 1014.29 427.07 1014.29S463.07 1019.44 492.96 1019.44S527.61 1020.14 558.84 1020.14S594.59 1025.67 624.73 1025.67S660.01 1030.66 690.61 1030.66S724.57 1041.28 756.5 1041.28S792.25 1023.79 822.38 1023.79S858.68 1015.63 888.27 1015.63S924.73 1017.77 954.15 1017.77S987.13 1018.76 1020.03 1018.76S1055.43 1025.42 1085.92 1025.42S1122.59 1037.59 1151.8 1037.59S1186.91 1013.88 1217.69 1013.88S1252.54 1007.45 1283.57 1007.45S1316.87 999.73 1349.46 999.73S1385.95 1039.04 1415.34 1039.04S1451.56 1029.14 1481.22 1029.14S1514.69 1031.24 1547.11 1031.24S1582.53 1013.11 1612.99 1013.11S1649.68 1039.34 1678.88 1039.34S1714.93 1024.14 1744.76 1024.14S1779.64 1011.37 1810.65 1011.37S1846.48 1005.88 1876.53 1005.88L1837 1315 L-100 1315 Z" fill="#585858" stroke-width="0">
  <animate attributeName="d" dur="20s" repeatCount="indefinite" values="M-100 1007.08C-66.48 1031.42 -64.49 1013.29 -34.12 1013.29S0.6 1027.05 31.77 1027.05S67.93 1036.8 97.65 1036.8S132.25 1025.41 163.54 1025.41S199.87 1004.99 229.42 1004.99S263.16 1003.52 295.31 1003.52S329.72 1008.86 361.19 1008.86S396.99 1014.29 427.07 1014.29S463.07 1019.44 492.96 1019.44S527.61 1020.14 558.84 1020.14S594.59 1025.67 624.73 1025.67S660.01 1030.66 690.61 1030.66S724.57 1041.28 756.5 1041.28S792.25 1023.79 822.38 1023.79S858.68 1015.63 888.27 1015.63S924.73 1017.77 954.15 1017.77S987.13 1018.76 1020.03 1018.76S1055.43 1025.42 1085.92 1025.42S1122.59 1037.59 1151.8 1037.59S1186.91 1013.88 1217.69 1013.88S1252.54 1007.45 1283.57 1007.45S1316.87 999.73 1349.46 999.73S1385.95 1039.04 1415.34 1039.04S1451.56 1029.14 1481.22 1029.14S1514.69 1031.24 1547.11 1031.24S1582.53 1013.11 1612.99 1013.11S1649.68 1039.34 1678.88 1039.34S1714.93 1024.14 1744.76 1024.14S1779.64 1011.37 1810.65 1011.37S1846.48 1005.88 1876.53 1005.88L1837 1315 L-100 1315 Z;M-100 1002.71C-64.93 998.1 -64.2 1010.02 -34.12 1010.02S0.5 997.93 31.77 997.93S65.95 1005.33 97.65 1005.33S134.18 1032.02 163.54 1032.02S196.91 1008.68 229.42 1008.68S265.97 1028.27 295.31 1028.27S328.77 1014.58 361.19 1014.58S396.93 1007.25 427.07 1007.25S461.76 1027.41 492.96 1027.41S526.44 1004.22 558.84 1004.22S592.2 1037.19 624.73 1037.19S657.79 1020.69 690.61 1020.69S723.76 1004.55 756.5 1004.55S790.71 1006.57 822.38 1006.57S857.17 1035.2 888.27 1035.2S924.3 1009.37 954.15 1009.37S987.31 1024.8 1020.03 1024.8S1054.4 998.69 1085.92 998.69S1121 1036.78 1151.8 1036.78S1185.98 1006.11 1217.69 1006.11S1251.1 1033.94 1283.57 1033.94S1318.68 1011.53 1349.46 1011.53S1385.91 1020.37 1415.34 1020.37S1449.06 1025.84 1481.22 1025.84S1517.7 1005.34 1547.11 1005.34S1582.27 1001.45 1612.99 1001.45S1646.38 1026.13 1678.88 1026.13S1712.8 1012.72 1744.76 1012.72S1779.36 1041.19 1810.65 1041.19S1846.7 1011.04 1876.53 1011.04L1837 1315 L-100 1315 Z;M-100 1007.08C-66.48 1031.42 -64.49 1013.29 -34.12 1013.29S0.6 1027.05 31.77 1027.05S67.93 1036.8 97.65 1036.8S132.25 1025.41 163.54 1025.41S199.87 1004.99 229.42 1004.99S263.16 1003.52 295.31 1003.52S329.72 1008.86 361.19 1008.86S396.99 1014.29 427.07 1014.29S463.07 1019.44 492.96 1019.44S527.61 1020.14 558.84 1020.14S594.59 1025.67 624.73 1025.67S660.01 1030.66 690.61 1030.66S724.57 1041.28 756.5 1041.28S792.25 1023.79 822.38 1023.79S858.68 1015.63 888.27 1015.63S924.73 1017.77 954.15 1017.77S987.13 1018.76 1020.03 1018.76S1055.43 1025.42 1085.92 1025.42S1122.59 1037.59 1151.8 1037.59S1186.91 1013.88 1217.69 1013.88S1252.54 1007.45 1283.57 1007.45S1316.87 999.73 1349.46 999.73S1385.95 1039.04 1415.34 1039.04S1451.56 1029.14 1481.22 1029.14S1514.69 1031.24 1547.11 1031.24S1582.53 1013.11 1612.99 1013.11S1649.68 1039.34 1678.88 1039.34S1714.93 1024.14 1744.76 1024.14S1779.64 1011.37 1810.65 1011.37S1846.48 1005.88 1876.53 1005.88L1837 1315 L-100 1315 Z"></animate>
  <animateTransform attributeName="transform" type="translate" dur="20s" begin="-4s" repeatCount="indefinite" values="0;10;0" calcMode="spline" keySplines="0.3 0 0.7 1;0.3 0 0.7 1"></animateTransform>
</path><path d="M-100 1081.7C-65.19 1082.31 -63.2 1068.17 -32.27 1068.17S5.23 1073.92 35.45 1073.92S70.71 1084.25 103.18 1084.25S138.2 1056.87 170.91 1056.87S206.16 1063.9 238.64 1063.9S274.23 1055.86 306.36 1055.86S342.93 1068.89 374.09 1068.89S411.37 1063.33 441.82 1063.33S477.39 1066.55 509.55 1066.55S544.17 1050.14 577.27 1050.14S612.01 1080.76 645 1080.76S679.01 1074.95 712.73 1074.95S746.73 1077.68 780.45 1077.68S817.3 1051.29 848.18 1051.29S883.43 1075.8 915.91 1075.8S951.07 1075.5 983.64 1075.5S1018.48 1056.53 1051.36 1056.53S1087.48 1066.91 1119.09 1066.91S1154.76 1086.64 1186.82 1086.64S1223.96 1070.39 1254.55 1070.39S1289.03 1059.04 1322.27 1059.04S1359.74 1044.13 1390 1044.13S1425.5 1084.1 1457.73 1084.1S1491.77 1073.05 1525.45 1073.05S1562.32 1080.15 1593.18 1080.15S1630.53 1050.5 1660.91 1050.5S1696.46 1089.11 1728.64 1089.11S1764.38 1075.82 1796.36 1075.82S1833.19 1076.73 1864.09 1076.73L1837 1315 L-100 1315 Z" fill="#6b6b6b" stroke-width="0">
  <animate attributeName="d" dur="17.5s" repeatCount="indefinite" values="M-100 1081.7C-65.19 1082.31 -63.2 1068.17 -32.27 1068.17S5.23 1073.92 35.45 1073.92S70.71 1084.25 103.18 1084.25S138.2 1056.87 170.91 1056.87S206.16 1063.9 238.64 1063.9S274.23 1055.86 306.36 1055.86S342.93 1068.89 374.09 1068.89S411.37 1063.33 441.82 1063.33S477.39 1066.55 509.55 1066.55S544.17 1050.14 577.27 1050.14S612.01 1080.76 645 1080.76S679.01 1074.95 712.73 1074.95S746.73 1077.68 780.45 1077.68S817.3 1051.29 848.18 1051.29S883.43 1075.8 915.91 1075.8S951.07 1075.5 983.64 1075.5S1018.48 1056.53 1051.36 1056.53S1087.48 1066.91 1119.09 1066.91S1154.76 1086.64 1186.82 1086.64S1223.96 1070.39 1254.55 1070.39S1289.03 1059.04 1322.27 1059.04S1359.74 1044.13 1390 1044.13S1425.5 1084.1 1457.73 1084.1S1491.77 1073.05 1525.45 1073.05S1562.32 1080.15 1593.18 1080.15S1630.53 1050.5 1660.91 1050.5S1696.46 1089.11 1728.64 1089.11S1764.38 1075.82 1796.36 1075.82S1833.19 1076.73 1864.09 1076.73L1837 1315 L-100 1315 Z;M-100 1078.19C-62.66 1046.77 -64.41 1088.88 -32.27 1088.88S5.24 1051.23 35.45 1051.23S72.41 1083.47 103.18 1083.47S140.71 1064.95 170.91 1064.95S207.36 1084.74 238.64 1084.74S273.49 1073.19 306.36 1073.19S342.4 1066.59 374.09 1066.59S410.41 1087.22 441.82 1087.22S479.37 1070.84 509.55 1070.84S546.47 1050.3 577.27 1050.3S611.36 1066.34 645 1066.34S679.82 1068.3 712.73 1068.3S750.34 1054.42 780.45 1054.42S814.71 1074.3 848.18 1074.3S885.82 1087.28 915.91 1087.28S950.98 1070.27 983.64 1070.27S1018.24 1072.13 1051.36 1072.13S1088.06 1062.05 1119.09 1062.05S1153.24 1076.79 1186.82 1076.79S1223.46 1059.53 1254.55 1059.53S1289.26 1058.84 1322.27 1058.84S1358.66 1054.46 1390 1054.46S1427.2 1088.97 1457.73 1088.97S1492.32 1049.36 1525.45 1049.36S1559.32 1088.31 1593.18 1088.31S1630.16 1076.95 1660.91 1076.95S1695.94 1065.88 1728.64 1065.88S1765.68 1055.57 1796.36 1055.57S1830.78 1058.88 1864.09 1058.88L1837 1315 L-100 1315 Z;M-100 1081.7C-65.19 1082.31 -63.2 1068.17 -32.27 1068.17S5.23 1073.92 35.45 1073.92S70.71 1084.25 103.18 1084.25S138.2 1056.87 170.91 1056.87S206.16 1063.9 238.64 1063.9S274.23 1055.86 306.36 1055.86S342.93 1068.89 374.09 1068.89S411.37 1063.33 441.82 1063.33S477.39 1066.55 509.55 1066.55S544.17 1050.14 577.27 1050.14S612.01 1080.76 645 1080.76S679.01 1074.95 712.73 1074.95S746.73 1077.68 780.45 1077.68S817.3 1051.29 848.18 1051.29S883.43 1075.8 915.91 1075.8S951.07 1075.5 983.64 1075.5S1018.48 1056.53 1051.36 1056.53S1087.48 1066.91 1119.09 1066.91S1154.76 1086.64 1186.82 1086.64S1223.96 1070.39 1254.55 1070.39S1289.03 1059.04 1322.27 1059.04S1359.74 1044.13 1390 1044.13S1425.5 1084.1 1457.73 1084.1S1491.77 1073.05 1525.45 1073.05S1562.32 1080.15 1593.18 1080.15S1630.53 1050.5 1660.91 1050.5S1696.46 1089.11 1728.64 1089.11S1764.38 1075.82 1796.36 1075.82S1833.19 1076.73 1864.09 1076.73L1837 1315 L-100 1315 Z"></animate>
  <animateTransform attributeName="transform" type="translate" dur="17.5s" begin="-5.25s" repeatCount="indefinite" values="0;10;0" calcMode="spline" keySplines="0.3 0 0.7 1;0.3 0 0.7 1"></animateTransform>
</path><path d="M-100 1090.6C-63.38 1112.65 -64.62 1127.35 -30.32 1127.35S6.77 1096.2 39.35 1096.2S74.47 1116.76 109.03 1116.76S146.32 1117.52 178.71 1117.52S214.49 1115.72 248.38 1115.72S284.67 1094.61 318.06 1094.61S355.27 1123.67 387.73 1123.67S422.92 1133.06 457.41 1133.06S492.64 1103.23 527.09 1103.23S563.34 1095.7 596.76 1095.7S633.19 1131.33 666.44 1131.33S703.41 1113.98 736.12 1113.98S772.66 1135.01 805.79 1135.01S842.87 1116.92 875.47 1116.92S911.64 1120.97 945.14 1120.97S981.98 1104.6 1014.82 1104.6S1051.84 1116.55 1084.5 1116.55S1121.96 1108.48 1154.17 1108.48S1191.7 1114.37 1223.85 1114.37S1260.32 1123.24 1293.53 1123.24S1331.94 1138.56 1363.2 1138.56S1400.51 1108.11 1432.88 1108.11S1468.69 1128.63 1502.55 1128.63S1540.67 1119.01 1572.23 1119.01S1608.92 1131.07 1641.91 1131.07S1679.1 1115.51 1711.58 1115.51S1747.38 1110.55 1781.26 1110.55S1819.78 1111.02 1850.94 1111.02L1837 1315 L-100 1315 Z" fill="#7e7e7e" stroke-width="0">
  <animate attributeName="d" dur="15s" repeatCount="indefinite" values="M-100 1090.6C-63.38 1112.65 -64.62 1127.35 -30.32 1127.35S6.77 1096.2 39.35 1096.2S74.47 1116.76 109.03 1116.76S146.32 1117.52 178.71 1117.52S214.49 1115.72 248.38 1115.72S284.67 1094.61 318.06 1094.61S355.27 1123.67 387.73 1123.67S422.92 1133.06 457.41 1133.06S492.64 1103.23 527.09 1103.23S563.34 1095.7 596.76 1095.7S633.19 1131.33 666.44 1131.33S703.41 1113.98 736.12 1113.98S772.66 1135.01 805.79 1135.01S842.87 1116.92 875.47 1116.92S911.64 1120.97 945.14 1120.97S981.98 1104.6 1014.82 1104.6S1051.84 1116.55 1084.5 1116.55S1121.96 1108.48 1154.17 1108.48S1191.7 1114.37 1223.85 1114.37S1260.32 1123.24 1293.53 1123.24S1331.94 1138.56 1363.2 1138.56S1400.51 1108.11 1432.88 1108.11S1468.69 1128.63 1502.55 1128.63S1540.67 1119.01 1572.23 1119.01S1608.92 1131.07 1641.91 1131.07S1679.1 1115.51 1711.58 1115.51S1747.38 1110.55 1781.26 1110.55S1819.78 1111.02 1850.94 1111.02L1837 1315 L-100 1315 Z;M-100 1116.16C-62.74 1136.23 -61.46 1116.05 -30.32 1116.05S5.8 1093.94 39.35 1093.94S77.96 1119.41 109.03 1119.41S147.09 1108 178.71 1108S214.11 1115.86 248.38 1115.86S285.27 1087.02 318.06 1087.02S352.92 1124.18 387.73 1124.18S424.56 1096.84 457.41 1096.84S492.79 1137.99 527.09 1137.99S563.6 1122.71 596.76 1122.71S632.57 1103.15 666.44 1103.15S704.39 1116.82 736.12 1116.82S771.24 1101.93 805.79 1101.93S840.9 1107.18 875.47 1107.18S912.3 1113.93 945.14 1113.93S981.28 1111.69 1014.82 1111.69S1051.26 1117.03 1084.5 1117.03S1120.6 1105.07 1154.17 1105.07S1191.67 1125.91 1223.85 1125.91S1261.82 1116.76 1293.53 1116.76S1330.81 1109.47 1363.2 1109.47S1398.73 1093.41 1432.88 1093.41S1468.64 1134.04 1502.55 1134.04S1538.36 1122.58 1572.23 1122.58S1608.59 1116.78 1641.91 1116.78S1678.57 1111.29 1711.58 1111.29S1749.85 1111.04 1781.26 1111.04S1819.05 1124.24 1850.94 1124.24L1837 1315 L-100 1315 Z;M-100 1090.6C-63.38 1112.65 -64.62 1127.35 -30.32 1127.35S6.77 1096.2 39.35 1096.2S74.47 1116.76 109.03 1116.76S146.32 1117.52 178.71 1117.52S214.49 1115.72 248.38 1115.72S284.67 1094.61 318.06 1094.61S355.27 1123.67 387.73 1123.67S422.92 1133.06 457.41 1133.06S492.64 1103.23 527.09 1103.23S563.34 1095.7 596.76 1095.7S633.19 1131.33 666.44 1131.33S703.41 1113.98 736.12 1113.98S772.66 1135.01 805.79 1135.01S842.87 1116.92 875.47 1116.92S911.64 1120.97 945.14 1120.97S981.98 1104.6 1014.82 1104.6S1051.84 1116.55 1084.5 1116.55S1121.96 1108.48 1154.17 1108.48S1191.7 1114.37 1223.85 1114.37S1260.32 1123.24 1293.53 1123.24S1331.94 1138.56 1363.2 1138.56S1400.51 1108.11 1432.88 1108.11S1468.69 1128.63 1502.55 1128.63S1540.67 1119.01 1572.23 1119.01S1608.92 1131.07 1641.91 1131.07S1679.1 1115.51 1711.58 1115.51S1747.38 1110.55 1781.26 1110.55S1819.78 1111.02 1850.94 1111.02L1837 1315 L-100 1315 Z"></animate>
  <animateTransform attributeName="transform" type="translate" dur="15s" begin="-6s" repeatCount="indefinite" values="0;10;0" calcMode="spline" keySplines="0.3 0 0.7 1;0.3 0 0.7 1"></animateTransform>
</path><path d="M-100 1162.49C-61.26 1153.35 -64.02 1167.36 -28.26 1167.36S9.58 1139.39 43.48 1139.39S81.81 1172.12 115.22 1172.12S152.56 1145.16 186.96 1145.16S225.21 1163.67 258.7 1163.67S294.72 1184.69 330.44 1184.69S367.75 1157.88 402.19 1157.88S441.06 1176.79 473.93 1176.79S510.77 1167.99 545.67 1167.99S583.95 1137.95 617.41 1137.95S654.89 1155.79 689.15 1155.79S728.79 1149.25 760.89 1149.25S797.4 1155.62 832.63 1155.62S868.55 1173.6 904.37 1173.6S943.85 1141.12 976.11 1141.12S1013.16 1168.26 1047.85 1168.26S1083.82 1149.99 1119.59 1149.99S1156.3 1150.03 1191.33 1150.03S1230.27 1184.04 1263.07 1184.04S1299.34 1154.29 1334.81 1154.29S1370.77 1173.46 1406.56 1173.46S1443.99 1140.16 1478.3 1140.16S1515.38 1153.23 1550.04 1153.23S1588.38 1148.53 1621.78 1148.53S1658.25 1132.43 1693.52 1132.43S1731.66 1148.97 1765.26 1148.97S1804.19 1143.52 1837 1143.52S1873.13 1167.12 1908.74 1167.12L1837 1315 L-100 1315 Z" fill="#939393" stroke-width="0">
  <animate attributeName="d" dur="12.5s" repeatCount="indefinite" values="M-100 1162.49C-61.26 1153.35 -64.02 1167.36 -28.26 1167.36S9.58 1139.39 43.48 1139.39S81.81 1172.12 115.22 1172.12S152.56 1145.16 186.96 1145.16S225.21 1163.67 258.7 1163.67S294.72 1184.69 330.44 1184.69S367.75 1157.88 402.19 1157.88S441.06 1176.79 473.93 1176.79S510.77 1167.99 545.67 1167.99S583.95 1137.95 617.41 1137.95S654.89 1155.79 689.15 1155.79S728.79 1149.25 760.89 1149.25S797.4 1155.62 832.63 1155.62S868.55 1173.6 904.37 1173.6S943.85 1141.12 976.11 1141.12S1013.16 1168.26 1047.85 1168.26S1083.82 1149.99 1119.59 1149.99S1156.3 1150.03 1191.33 1150.03S1230.27 1184.04 1263.07 1184.04S1299.34 1154.29 1334.81 1154.29S1370.77 1173.46 1406.56 1173.46S1443.99 1140.16 1478.3 1140.16S1515.38 1153.23 1550.04 1153.23S1588.38 1148.53 1621.78 1148.53S1658.25 1132.43 1693.52 1132.43S1731.66 1148.97 1765.26 1148.97S1804.19 1143.52 1837 1143.52S1873.13 1167.12 1908.74 1167.12L1837 1315 L-100 1315 Z;M-100 1141.47C-61.97 1143.9 -61.63 1178.8 -28.26 1178.8S8.78 1158.89 43.48 1158.89S83.15 1181.96 115.22 1181.96S153.6 1142.86 186.96 1142.86S224.21 1157.54 258.7 1157.54S296.29 1139.82 330.44 1139.82S366.51 1165.95 402.19 1165.95S439.71 1148.02 473.93 1148.02S511.8 1171.82 545.67 1171.82S582.15 1146.72 617.41 1146.72S655.82 1177.92 689.15 1177.92S728.27 1153.77 760.89 1153.77S798.03 1171.58 832.63 1171.58S869.32 1141.02 904.37 1141.02S944.03 1152.22 976.11 1152.22S1013.32 1145.05 1047.85 1145.05S1086.79 1165.34 1119.59 1165.34S1155.71 1168.05 1191.33 1168.05S1228.63 1135.94 1263.07 1135.94S1302.06 1134.93 1334.81 1134.93S1374.2 1142.18 1406.56 1142.18S1443.41 1142.25 1478.3 1142.25S1514.7 1175.97 1550.04 1175.97S1586.75 1137.4 1621.78 1137.4S1661.11 1157.7 1693.52 1157.7S1733.16 1142.12 1765.26 1142.12S1804.3 1132.04 1837 1132.04S1875.3 1166.35 1908.74 1166.35L1837 1315 L-100 1315 Z;M-100 1162.49C-61.26 1153.35 -64.02 1167.36 -28.26 1167.36S9.58 1139.39 43.48 1139.39S81.81 1172.12 115.22 1172.12S152.56 1145.16 186.96 1145.16S225.21 1163.67 258.7 1163.67S294.72 1184.69 330.44 1184.69S367.75 1157.88 402.19 1157.88S441.06 1176.79 473.93 1176.79S510.77 1167.99 545.67 1167.99S583.95 1137.95 617.41 1137.95S654.89 1155.79 689.15 1155.79S728.79 1149.25 760.89 1149.25S797.4 1155.62 832.63 1155.62S868.55 1173.6 904.37 1173.6S943.85 1141.12 976.11 1141.12S1013.16 1168.26 1047.85 1168.26S1083.82 1149.99 1119.59 1149.99S1156.3 1150.03 1191.33 1150.03S1230.27 1184.04 1263.07 1184.04S1299.34 1154.29 1334.81 1154.29S1370.77 1173.46 1406.56 1173.46S1443.99 1140.16 1478.3 1140.16S1515.38 1153.23 1550.04 1153.23S1588.38 1148.53 1621.78 1148.53S1658.25 1132.43 1693.52 1132.43S1731.66 1148.97 1765.26 1148.97S1804.19 1143.52 1837 1143.52S1873.13 1167.12 1908.74 1167.12L1837 1315 L-100 1315 Z"></animate>
  <animateTransform attributeName="transform" type="translate" dur="12.5s" begin="-6.25s" repeatCount="indefinite" values="0;10;0" calcMode="spline" keySplines="0.3 0 0.7 1;0.3 0 0.7 1"></animateTransform>
</path><path d="M-100 1206.17C-60.58 1199.32 -62.02 1215.21 -26.07 1215.21S11.61 1185.57 47.86 1185.57S87.43 1179.06 121.79 1179.06S159.49 1195.66 195.73 1195.66S235.87 1212.87 269.66 1212.87S306.65 1187.74 343.59 1187.74S382.46 1207.62 417.52 1207.62S457.62 1192.2 491.45 1192.2S528.93 1220.82 565.38 1220.82S603.68 1202.92 639.31 1202.92S677.72 1233.15 713.24 1233.15S751.46 1198.18 787.18 1198.18S825.35 1209.97 861.11 1209.97S898.51 1189.1 935.04 1189.1S972.14 1224.14 1008.97 1224.14S1047.92 1198.95 1082.9 1198.95S1120.86 1231.27 1156.83 1231.27S1195.23 1198.36 1230.76 1198.36S1270.28 1182.75 1304.69 1182.75S1344.39 1198.39 1378.63 1198.39S1417.41 1203.93 1452.56 1203.93S1489.73 1212.34 1526.49 1212.34S1563.47 1180.55 1600.42 1180.55S1638.98 1233.18 1674.35 1233.18S1712.35 1221.17 1748.28 1221.17S1787.32 1184.11 1822.21 1184.11S1860.44 1200.81 1896.15 1200.81L1837 1315 L-100 1315 Z" fill="#a7a7a7" stroke-width="0">
  <animate attributeName="d" dur="10s" repeatCount="indefinite" values="M-100 1206.17C-60.58 1199.32 -62.02 1215.21 -26.07 1215.21S11.61 1185.57 47.86 1185.57S87.43 1179.06 121.79 1179.06S159.49 1195.66 195.73 1195.66S235.87 1212.87 269.66 1212.87S306.65 1187.74 343.59 1187.74S382.46 1207.62 417.52 1207.62S457.62 1192.2 491.45 1192.2S528.93 1220.82 565.38 1220.82S603.68 1202.92 639.31 1202.92S677.72 1233.15 713.24 1233.15S751.46 1198.18 787.18 1198.18S825.35 1209.97 861.11 1209.97S898.51 1189.1 935.04 1189.1S972.14 1224.14 1008.97 1224.14S1047.92 1198.95 1082.9 1198.95S1120.86 1231.27 1156.83 1231.27S1195.23 1198.36 1230.76 1198.36S1270.28 1182.75 1304.69 1182.75S1344.39 1198.39 1378.63 1198.39S1417.41 1203.93 1452.56 1203.93S1489.73 1212.34 1526.49 1212.34S1563.47 1180.55 1600.42 1180.55S1638.98 1233.18 1674.35 1233.18S1712.35 1221.17 1748.28 1221.17S1787.32 1184.11 1822.21 1184.11S1860.44 1200.81 1896.15 1200.81L1837 1315 L-100 1315 Z;M-100 1204.78C-62.53 1184.44 -62.59 1219.9 -26.07 1219.9S14.46 1208.08 47.86 1208.08S87.29 1201.47 121.79 1201.47S161.35 1217.37 195.73 1217.37S233.61 1200.44 269.66 1200.44S309.57 1233.55 343.59 1233.55S382.15 1210.23 417.52 1210.23S456.67 1192.27 491.45 1192.27S529.34 1229.75 565.38 1229.75S604.89 1198.06 639.31 1198.06S678.75 1211.9 713.24 1211.9S750.78 1206.79 787.18 1206.79S824.26 1206.8 861.11 1206.8S899.46 1209.03 935.04 1209.03S973.69 1210.1 1008.97 1210.1S1046.74 1198.35 1082.9 1198.35S1120.42 1212.41 1156.83 1212.41S1196.77 1198.43 1230.76 1198.43S1271.45 1229.72 1304.69 1229.72S1342.15 1203.81 1378.63 1203.81S1419.28 1212.39 1452.56 1212.39S1492.22 1192.78 1526.49 1192.78S1565.66 1195.76 1600.42 1195.76S1640.45 1175.78 1674.35 1175.78S1711.65 1201.63 1748.28 1201.63S1786.39 1206.51 1822.21 1206.51S1859.21 1220.14 1896.15 1220.14L1837 1315 L-100 1315 Z;M-100 1206.17C-60.58 1199.32 -62.02 1215.21 -26.07 1215.21S11.61 1185.57 47.86 1185.57S87.43 1179.06 121.79 1179.06S159.49 1195.66 195.73 1195.66S235.87 1212.87 269.66 1212.87S306.65 1187.74 343.59 1187.74S382.46 1207.62 417.52 1207.62S457.62 1192.2 491.45 1192.2S528.93 1220.82 565.38 1220.82S603.68 1202.92 639.31 1202.92S677.72 1233.15 713.24 1233.15S751.46 1198.18 787.18 1198.18S825.35 1209.97 861.11 1209.97S898.51 1189.1 935.04 1189.1S972.14 1224.14 1008.97 1224.14S1047.92 1198.95 1082.9 1198.95S1120.86 1231.27 1156.83 1231.27S1195.23 1198.36 1230.76 1198.36S1270.28 1182.75 1304.69 1182.75S1344.39 1198.39 1378.63 1198.39S1417.41 1203.93 1452.56 1203.93S1489.73 1212.34 1526.49 1212.34S1563.47 1180.55 1600.42 1180.55S1638.98 1233.18 1674.35 1233.18S1712.35 1221.17 1748.28 1221.17S1787.32 1184.11 1822.21 1184.11S1860.44 1200.81 1896.15 1200.81L1837 1315 L-100 1315 Z"></animate>
  <animateTransform attributeName="transform" type="translate" dur="10s" begin="-6s" repeatCount="indefinite" values="0;10;0" calcMode="spline" keySplines="0.3 0 0.7 1;0.3 0 0.7 1"></animateTransform>
</path><path d="M-100 1241.12C-58.38 1240.94 -61.08 1283.39 -23.74 1283.39S15.33 1223.17 52.52 1223.17S91.38 1275.1 128.78 1275.1S167.16 1225.94 205.04 1225.94S244.98 1278.76 281.3 1278.76S321.75 1265.56 357.56 1265.56S396.11 1256.77 433.82 1256.77S473.31 1225.11 510.08 1225.11S550.58 1255.81 586.34 1255.81S624.52 1227.46 662.6 1227.46S703.01 1262.73 738.86 1262.73S777.19 1226.87 815.12 1226.87S856.13 1247.72 891.38 1247.72S932.67 1243.07 967.64 1243.07S1006.01 1266.03 1043.9 1266.03S1083.14 1230.83 1120.16 1230.83S1159.47 1280.33 1196.42 1280.33S1238.24 1244.21 1272.68 1244.21S1314.28 1270.36 1348.94 1270.36S1390.13 1250.38 1425.2 1250.38S1465.35 1278.26 1501.46 1278.26S1539.78 1233.24 1577.72 1233.24S1619.02 1257.51 1653.98 1257.51S1694.39 1221.55 1730.24 1221.55S1771.96 1220.7 1806.5 1220.7S1846.83 1248.81 1882.76 1248.81L1837 1315 L-100 1315 Z" fill="#bdbdbd" stroke-width="0">
  <animate attributeName="d" dur="7.5s" repeatCount="indefinite" values="M-100 1241.12C-58.38 1240.94 -61.08 1283.39 -23.74 1283.39S15.33 1223.17 52.52 1223.17S91.38 1275.1 128.78 1275.1S167.16 1225.94 205.04 1225.94S244.98 1278.76 281.3 1278.76S321.75 1265.56 357.56 1265.56S396.11 1256.77 433.82 1256.77S473.31 1225.11 510.08 1225.11S550.58 1255.81 586.34 1255.81S624.52 1227.46 662.6 1227.46S703.01 1262.73 738.86 1262.73S777.19 1226.87 815.12 1226.87S856.13 1247.72 891.38 1247.72S932.67 1243.07 967.64 1243.07S1006.01 1266.03 1043.9 1266.03S1083.14 1230.83 1120.16 1230.83S1159.47 1280.33 1196.42 1280.33S1238.24 1244.21 1272.68 1244.21S1314.28 1270.36 1348.94 1270.36S1390.13 1250.38 1425.2 1250.38S1465.35 1278.26 1501.46 1278.26S1539.78 1233.24 1577.72 1233.24S1619.02 1257.51 1653.98 1257.51S1694.39 1221.55 1730.24 1221.55S1771.96 1220.7 1806.5 1220.7S1846.83 1248.81 1882.76 1248.81L1837 1315 L-100 1315 Z;M-100 1233.39C-60.92 1229.23 -59.9 1242.01 -23.74 1242.01S17.5 1281.72 52.52 1281.72S91.84 1248.47 128.78 1248.47S169.02 1225.49 205.04 1225.49S246.86 1258.25 281.3 1258.25S321.01 1251.27 357.56 1251.27S395.93 1267.83 433.82 1267.83S471.98 1227.75 510.08 1227.75S550.05 1249.53 586.34 1249.53S626.34 1243.24 662.6 1243.24S704.51 1246.3 738.86 1246.3S780.54 1224.17 815.12 1224.17S855.18 1265.79 891.38 1265.79S931.04 1235.67 967.64 1235.67S1005.99 1259.41 1043.9 1259.41S1083.87 1253.3 1120.16 1253.3S1159.73 1257.78 1196.42 1257.78S1236.85 1223.09 1272.68 1223.09S1312.42 1247.23 1348.94 1247.23S1388.58 1246.7 1425.2 1246.7S1464.58 1255.98 1501.46 1255.98S1542.04 1240.35 1577.72 1240.35S1618.92 1279.05 1653.98 1279.05S1694.97 1227.21 1730.24 1227.21S1770.94 1282.42 1806.5 1282.42S1847.31 1244.56 1882.76 1244.56L1837 1315 L-100 1315 Z;M-100 1241.12C-58.38 1240.94 -61.08 1283.39 -23.74 1283.39S15.33 1223.17 52.52 1223.17S91.38 1275.1 128.78 1275.1S167.16 1225.94 205.04 1225.94S244.98 1278.76 281.3 1278.76S321.75 1265.56 357.56 1265.56S396.11 1256.77 433.82 1256.77S473.31 1225.11 510.08 1225.11S550.58 1255.81 586.34 1255.81S624.52 1227.46 662.6 1227.46S703.01 1262.73 738.86 1262.73S777.19 1226.87 815.12 1226.87S856.13 1247.72 891.38 1247.72S932.67 1243.07 967.64 1243.07S1006.01 1266.03 1043.9 1266.03S1083.14 1230.83 1120.16 1230.83S1159.47 1280.33 1196.42 1280.33S1238.24 1244.21 1272.68 1244.21S1314.28 1270.36 1348.94 1270.36S1390.13 1250.38 1425.2 1250.38S1465.35 1278.26 1501.46 1278.26S1539.78 1233.24 1577.72 1233.24S1619.02 1257.51 1653.98 1257.51S1694.39 1221.55 1730.24 1221.55S1771.96 1220.7 1806.5 1220.7S1846.83 1248.81 1882.76 1248.81L1837 1315 L-100 1315 Z"></animate>
  <animateTransform attributeName="transform" type="translate" dur="7.5s" begin="-5.25s" repeatCount="indefinite" values="0;10;0" calcMode="spline" keySplines="0.3 0 0.7 1;0.3 0 0.7 1"></animateTransform>
</path><path d="M-100 1267.98C-60.35 1273.41 -58.1 1314.04 -21.26 1314.04S19.54 1280.44 57.48 1280.44S100.47 1327.79 136.22 1327.79S176.01 1283.66 214.96 1283.66S255.07 1298.75 293.7 1298.75S335.44 1265.64 372.44 1265.64S413.35 1307.4 451.18 1307.4S492.48 1301.9 529.92 1301.9S572.49 1301.33 608.66 1301.33S649.18 1291.22 687.4 1291.22S730.11 1318.55 766.14 1318.55S808.65 1301.31 844.88 1301.31S885.72 1315.63 923.62 1315.63S966.8 1272.4 1002.36 1272.4S1045.19 1318.78 1081.1 1318.78S1123.17 1286.77 1159.84 1286.77S1199.41 1305.24 1238.58 1305.24S1280.64 1286.9 1317.32 1286.9S1357.24 1321.63 1396.06 1321.63S1437.6 1332.29 1474.8 1332.29S1517.75 1320.37 1553.54 1320.37S1594.71 1276.69 1632.28 1276.69S1671.68 1321.21 1711.02 1321.21S1753.08 1299.98 1789.76 1299.98S1829.32 1330.5 1868.5 1330.5L1837 1315 L-100 1315 Z" fill="#d2d2d2" stroke-width="0">
  <animate attributeName="d" dur="5s" repeatCount="indefinite" values="M-100 1267.98C-60.35 1273.41 -58.1 1314.04 -21.26 1314.04S19.54 1280.44 57.48 1280.44S100.47 1327.79 136.22 1327.79S176.01 1283.66 214.96 1283.66S255.07 1298.75 293.7 1298.75S335.44 1265.64 372.44 1265.64S413.35 1307.4 451.18 1307.4S492.48 1301.9 529.92 1301.9S572.49 1301.33 608.66 1301.33S649.18 1291.22 687.4 1291.22S730.11 1318.55 766.14 1318.55S808.65 1301.31 844.88 1301.31S885.72 1315.63 923.62 1315.63S966.8 1272.4 1002.36 1272.4S1045.19 1318.78 1081.1 1318.78S1123.17 1286.77 1159.84 1286.77S1199.41 1305.24 1238.58 1305.24S1280.64 1286.9 1317.32 1286.9S1357.24 1321.63 1396.06 1321.63S1437.6 1332.29 1474.8 1332.29S1517.75 1320.37 1553.54 1320.37S1594.71 1276.69 1632.28 1276.69S1671.68 1321.21 1711.02 1321.21S1753.08 1299.98 1789.76 1299.98S1829.32 1330.5 1868.5 1330.5L1837 1315 L-100 1315 Z;M-100 1330.23C-57.12 1318.13 -56.87 1315.16 -21.26 1315.16S20.13 1288.46 57.48 1288.46S100.65 1295.99 136.22 1295.99S178.6 1308.83 214.96 1308.83S254.88 1313.64 293.7 1313.64S336.29 1298.95 372.44 1298.95S414.09 1312.24 451.18 1312.24S493.71 1270.23 529.92 1270.23S572.05 1322.47 608.66 1322.47S650.81 1276.93 687.4 1276.93S728.93 1302.99 766.14 1302.99S808.15 1268.35 844.88 1268.35S884.71 1322.14 923.62 1322.14S963.26 1289.11 1002.36 1289.11S1044.79 1295.36 1081.1 1295.36S1121.97 1309.36 1159.84 1309.36S1201.54 1304.93 1238.58 1304.93S1280.86 1278.44 1317.32 1278.44S1359.9 1297.82 1396.06 1297.82S1437.75 1291.17 1474.8 1291.17S1516.2 1314.27 1553.54 1314.27S1594.49 1292.21 1632.28 1292.21S1672.86 1327.48 1711.02 1327.48S1753.74 1298.21 1789.76 1298.21S1829.61 1278.32 1868.5 1278.32L1837 1315 L-100 1315 Z;M-100 1267.98C-60.35 1273.41 -58.1 1314.04 -21.26 1314.04S19.54 1280.44 57.48 1280.44S100.47 1327.79 136.22 1327.79S176.01 1283.66 214.96 1283.66S255.07 1298.75 293.7 1298.75S335.44 1265.64 372.44 1265.64S413.35 1307.4 451.18 1307.4S492.48 1301.9 529.92 1301.9S572.49 1301.33 608.66 1301.33S649.18 1291.22 687.4 1291.22S730.11 1318.55 766.14 1318.55S808.65 1301.31 844.88 1301.31S885.72 1315.63 923.62 1315.63S966.8 1272.4 1002.36 1272.4S1045.19 1318.78 1081.1 1318.78S1123.17 1286.77 1159.84 1286.77S1199.41 1305.24 1238.58 1305.24S1280.64 1286.9 1317.32 1286.9S1357.24 1321.63 1396.06 1321.63S1437.6 1332.29 1474.8 1332.29S1517.75 1320.37 1553.54 1320.37S1594.71 1276.69 1632.28 1276.69S1671.68 1321.21 1711.02 1321.21S1753.08 1299.98 1789.76 1299.98S1829.32 1330.5 1868.5 1330.5L1837 1315 L-100 1315 Z"></animate>
  <animateTransform attributeName="transform" type="translate" dur="5s" begin="-4s" repeatCount="indefinite" values="0;10;0" calcMode="spline" keySplines="0.3 0 0.7 1;0.3 0 0.7 1"></animateTransform>
</path><path d="M-100 1328.33C-59.05 1343.25 -57.91 1345.37 -18.61 1345.37S24.35 1328.92 62.77 1328.92S106.88 1322.8 144.16 1322.8S187.06 1329.8 225.55 1329.8S268.59 1350.58 306.93 1350.58S349.12 1318.46 388.32 1318.46S432.76 1362.2 469.71 1362.2S511.42 1315.94 551.09 1315.94S591.8 1335.99 632.48 1335.99S676.73 1332.34 713.87 1332.34S755.65 1350.21 795.25 1350.21S837.68 1310.81 876.64 1310.81S920.21 1357 958.03 1357S998.82 1338.89 1039.41 1338.89S1080.51 1380.63 1120.8 1380.63S1164.47 1330.32 1202.18 1330.32S1246.65 1366.74 1283.57 1366.74S1326.96 1345.67 1364.96 1345.67S1409.34 1312.17 1446.34 1312.17S1490 1329.84 1527.73 1329.84S1569.69 1379.51 1609.12 1379.51S1650.06 1370.65 1690.5 1370.65S1733.49 1347.14 1771.89 1347.14S1813.79 1315.24 1853.28 1315.24L1837 1315 L-100 1315 Z" fill="#e8e8e8" stroke-width="0">
  <animate attributeName="d" dur="2.5s" repeatCount="indefinite" values="M-100 1328.33C-59.05 1343.25 -57.91 1345.37 -18.61 1345.37S24.35 1328.92 62.77 1328.92S106.88 1322.8 144.16 1322.8S187.06 1329.8 225.55 1329.8S268.59 1350.58 306.93 1350.58S349.12 1318.46 388.32 1318.46S432.76 1362.2 469.71 1362.2S511.42 1315.94 551.09 1315.94S591.8 1335.99 632.48 1335.99S676.73 1332.34 713.87 1332.34S755.65 1350.21 795.25 1350.21S837.68 1310.81 876.64 1310.81S920.21 1357 958.03 1357S998.82 1338.89 1039.41 1338.89S1080.51 1380.63 1120.8 1380.63S1164.47 1330.32 1202.18 1330.32S1246.65 1366.74 1283.57 1366.74S1326.96 1345.67 1364.96 1345.67S1409.34 1312.17 1446.34 1312.17S1490 1329.84 1527.73 1329.84S1569.69 1379.51 1609.12 1379.51S1650.06 1370.65 1690.5 1370.65S1733.49 1347.14 1771.89 1347.14S1813.79 1315.24 1853.28 1315.24L1837 1315 L-100 1315 Z;M-100 1343.88C-56.29 1320.39 -56.87 1355.38 -18.61 1355.38S22.64 1338.36 62.77 1338.36S106.85 1362.55 144.16 1362.55S184.98 1347.02 225.55 1347.02S268.33 1350.44 306.93 1350.44S347.71 1332.44 388.32 1332.44S430.56 1370.63 469.71 1370.63S513.89 1320.63 551.09 1320.63S593.09 1361.75 632.48 1361.75S674.59 1333.69 713.87 1333.69S758.2 1363.87 795.25 1363.87S839.72 1326.37 876.64 1326.37S919.13 1380.53 958.03 1380.53S999.51 1312.29 1039.41 1312.29S1082.63 1368.51 1120.8 1368.51S1161.53 1331.87 1202.18 1331.87S1242.95 1365.61 1283.57 1365.61S1327.75 1350.65 1364.96 1350.65S1408.85 1375.9 1446.34 1375.9S1490.49 1319.91 1527.73 1319.91S1568.58 1334.38 1609.12 1334.38S1650.73 1336.28 1690.5 1336.28S1734.08 1338.71 1771.89 1338.71S1815.42 1346.77 1853.28 1346.77L1837 1315 L-100 1315 Z;M-100 1328.33C-59.05 1343.25 -57.91 1345.37 -18.61 1345.37S24.35 1328.92 62.77 1328.92S106.88 1322.8 144.16 1322.8S187.06 1329.8 225.55 1329.8S268.59 1350.58 306.93 1350.58S349.12 1318.46 388.32 1318.46S432.76 1362.2 469.71 1362.2S511.42 1315.94 551.09 1315.94S591.8 1335.99 632.48 1335.99S676.73 1332.34 713.87 1332.34S755.65 1350.21 795.25 1350.21S837.68 1310.81 876.64 1310.81S920.21 1357 958.03 1357S998.82 1338.89 1039.41 1338.89S1080.51 1380.63 1120.8 1380.63S1164.47 1330.32 1202.18 1330.32S1246.65 1366.74 1283.57 1366.74S1326.96 1345.67 1364.96 1345.67S1409.34 1312.17 1446.34 1312.17S1490 1329.84 1527.73 1329.84S1569.69 1379.51 1609.12 1379.51S1650.06 1370.65 1690.5 1370.65S1733.49 1347.14 1771.89 1347.14S1813.79 1315.24 1853.28 1315.24L1837 1315 L-100 1315 Z"></animate>
  <animateTransform attributeName="transform" type="translate" dur="2.5s" begin="-2.25s" repeatCount="indefinite" values="0;10;0" calcMode="spline" keySplines="0.3 0 0.7 1;0.3 0 0.7 1"></animateTransform>
</path></g>
</svg>