<svg width="1093" height="833" viewBox="0 0 1093 833" fill="none" xmlns="http://www.w3.org/2000/svg">
<g id="Headset">
<path d="M174.5 336V300C177.65 274.497 183.717 215.184 185.19 164.5L185.343 158.5C185.376 156.99 185.405 155.49 185.429 154C185.461 151.98 185.485 149.979 185.5 148L228 51.5L333 12.5L482 1L527 20L545.5 27.5L568.5 41.5L602 65.5L632.5 106L644.5 133L659 154L672 179.5L682.5 222V255L676.5 285L682.5 323V365L659 409L649 414L614 423L586 429.5L568.5 435.5H551H537L520 429.5H509.5L504 414L500.5 389L504 365L509.5 341.5L516 310L527 285L537 262.5L545.5 238L556 217.5L576 200.5L602 194L614 204.5L628 227.5H649L644.5 187C643.333 165.833 618.2 108.1 527 46.5C413 -30.5 314 30 273.5 41.5C241.1 50.7 218 147 210.5 194V227.5V255L215.5 285L222 300L215.5 329.5L210.5 352L215.5 389L190.5 378.5L171 365L174.5 336Z" fill="black"/>
<path d="M185.19 164.5C185.293 160.953 185.373 157.448 185.429 154C185.461 151.98 185.485 149.979 185.5 148L228 51.5L333 12.5L482 1L527 20L545.5 27.5L568.5 41.5L602 65.5L632.5 106L644.5 133L659 154L672 179.5L682.5 222V255L676.5 285L682.5 323V365L659 409L649 414L614 423L586 429.5L568.5 435.5H551H537L520 429.5H509.5L504 414L500.5 389L504 365L509.5 341.5L516 310L527 285L537 262.5L545.5 238L556 217.5L576 200.5L602 194L614 204.5L628 227.5H649L644.5 187C643.333 165.833 618.2 108.1 527 46.5C413 -30.5 314 30 273.5 41.5C241.1 50.7 218 147 210.5 194V227.5V255L215.5 285L222 300L215.5 329.5L210.5 352L215.5 389L190.5 378.5L171 365L174.5 336V300C177.65 274.497 183.717 215.184 185.19 164.5ZM185.19 164.5L185.343 158.5" stroke="black"/>
</g>
<path id="Face" d="M210 256.5V229.5L236 202L243.5 184.5L248.5 167V145H255.5L271.5 141.5L287 133.5L303 125.5L317.5 114L340 85L344.5 133.5L351.5 184.5C359.167 197.167 373.9 222.9 371.5 224.5C369.1 226.1 398.833 243.5 414 252C435.667 249.167 478.5 243.1 476.5 241.5C474.5 239.9 505 263.167 520.5 275V279.5V309L508.5 361L505 377V392V405.5L508.5 421L513.5 429.5L526 438.5H538V443L529.5 450L520.5 458L513.5 463.5L505 476L491 492L471.5 506L456 519.5L427.5 539.5L403.5 555.5L385 569L368 574H344.5H322L308.5 569L291 546.5L271.5 515L255.5 484.5L236 463.5C237.333 457 228.365 441.503 227 438.5C217 416.5 215 398.5 215 392C215 380.5 215.333 363.333 215 350.5V332L221.5 309V292.5L215 279.5L210 256.5Z" fill="#CAB0A6" stroke="black"/>
<g id="Hair" filter="url(#filter0_d_4_11)">
<path d="M383.5 12L408.5 4.50001C411.667 2.00001 425.6 -1.49999 456 4.50001C494 12 512 2.5 564.5 53.5C617 104.5 640 129.5 640 173.5C640 217.5 630 219.5 630 226.5C630 233.5 619 198 605 200C591 202 576 193.5 558 226.5C543.6 252.9 528.333 292.167 522.5 308.5C524.333 297.5 526.9 275.1 522.5 273.5C517 271.5 492 258.5 483.5 245C482.378 243.218 480.488 241.618 478 240.014C456.167 246.009 411.7 255.4 408.5 245C389 235 374.5 235.5 350 181C343.6 147.8 342.667 115.167 343 103L339.5 82.5C318.333 109.333 304.5 146.5 251.5 146.5C251.5 154.5 249.5 245.5 209.5 226.5C179.9 250.1 171.833 236.333 171.5 226.5C189 223.5 220.1 212.1 204.5 190.5C185 163.5 182.17 88.3702 215.5 73.5C248 59 219.5 36.5 263 38.5C301.8 1.3 359.5 5.33334 383.5 12Z" fill="#060606"/>
<path d="M453.215 226.5C434.632 215.301 412.224 196.143 399 154.5C399 134.9 392.333 152.333 389 163.5C387.333 169.167 385 181.6 389 186C393 190.4 397.333 197.167 399 200L414 216L438 222.5L453.215 226.5ZM453.215 226.5C463.294 232.574 472.248 236.306 478 240.014M478 240.014C480.488 241.618 482.378 243.218 483.5 245C492 258.5 517 271.5 522.5 273.5C526.9 275.1 524.333 297.5 522.5 308.5C528.333 292.167 543.6 252.9 558 226.5C576 193.5 591 202 605 200C619 198 630 233.5 630 226.5C630 219.5 640 217.5 640 173.5C640 129.5 617 104.5 564.5 53.5C512 2.5 494 12 456 4.50001C425.6 -1.49999 411.667 2.00001 408.5 4.50001L383.5 12C359.5 5.33334 301.8 1.3 263 38.5C219.5 36.5 248 59 215.5 73.5C182.17 88.3702 185 163.5 204.5 190.5C220.1 212.1 189 223.5 171.5 226.5C171.833 236.333 179.9 250.1 209.5 226.5C249.5 245.5 251.5 154.5 251.5 146.5C304.5 146.5 318.333 109.333 339.5 82.5L343 103C342.667 115.167 343.6 147.8 350 181C374.5 235.5 389 235 408.5 245C411.7 255.4 456.167 246.009 478 240.014Z" stroke="black"/>
</g>
<path id="Shirt" d="M610 446C597.833 442.167 566.9 435.7 540.5 440.5L558 456L570.5 479.5V506.5V534.5L558 573L511 677L467 728.5C454.667 741 426.8 765.4 414 763C401.2 760.6 391.333 739 388 728.5L364.5 689L352 661L348 636L352 604L348 582L330.5 573L305.5 565.5L255 487.5L164 541.5H155.5L100.5 582L63.5 656.5L39 714.5L27 753.5L17 792L1.5 831.5L1091.5 827L1031.5 747.5L976.5 663L941 611L859 544.5L841 524L792.5 506.5L720.5 479.5L667 465.5L610 446Z" fill="black" stroke="black"/>
<path id="Vector 1" d="M346 580.5L333.5 573H352H370L389.5 567L405.5 555L427 540.5L446.5 524.5L468.5 504L490.5 492L503 473L513 460.5L528 453L540.5 442L559.5 455V467L570.5 484V513.5V536L559.5 573L545 604L531.5 627.5L518.5 658L503 680.5L490.5 699.5L468.5 727L446.5 752.5L427 764H411L401 752.5C395.667 743.167 384.7 723.6 383.5 720C382.3 716.4 369.333 695.167 363 685L352 666.5V641.5V604L346 580.5Z" fill="#CAB0A6" stroke="black"/>
<defs>
<filter id="filter0_d_4_11" x="166.986" y="0.687103" width="477.515" height="315.981" filterUnits="userSpaceOnUse" color-interpolation-filters="sRGB">
<feFlood flood-opacity="0" result="BackgroundImageFix"/>
<feColorMatrix in="SourceAlpha" type="matrix" values="0 0 0 0 0 0 0 0 0 0 0 0 0 0 0 0 0 0 127 0" result="hardAlpha"/>
<feOffset dy="4"/>
<feGaussianBlur stdDeviation="2"/>
<feComposite in2="hardAlpha" operator="out"/>
<feColorMatrix type="matrix" values="0 0 0 0 0 0 0 0 0 0 0 0 0 0 0 0 0 0 0.25 0"/>
<feBlend mode="normal" in2="BackgroundImageFix" result="effect1_dropShadow_4_11"/>
<feBlend mode="normal" in="SourceGraphic" in2="effect1_dropShadow_4_11" result="shape"/>
</filter>
</defs>
</svg>
